<mxfile host="app.diagrams.net" agent="Mozilla/5.0 (Windows NT 10.0; Win64; x64) AppleWebKit/537.36 (KHTML, like Gecko) Chrome/127.0.0.0 Safari/537.36 Edg/127.0.0.0" version="24.7.6">
  <diagram name="Page-1" id="YSzfWiJkTcqVzJzmtQcH">
    <mxGraphModel dx="2026" dy="1117" grid="1" gridSize="10" guides="1" tooltips="1" connect="1" arrows="0" fold="1" page="1" pageScale="1" pageWidth="1280" pageHeight="5000" background="#d1e0ee" math="0" shadow="0">
      <root>
        <object label="" formName="Adastra Template" transformer="Curtis Reet" id="0">
          <mxCell />
        </object>
        <mxCell id="1" parent="0" />
        <mxCell id="TlLSA2YpN_VJsbKg_DD5-18" value="" style="group;fillColor=none;" parent="1" vertex="1" connectable="0">
          <mxGeometry x="1" y="1" width="1198" height="209" as="geometry" />
        </mxCell>
        <object label="Form Name:" id="TlLSA2YpN_VJsbKg_DD5-11">
          <mxCell style="text;html=1;strokeColor=none;fillColor=none;align=left;verticalAlign=middle;whiteSpace=wrap;rounded=0;" parent="TlLSA2YpN_VJsbKg_DD5-18" vertex="1">
            <mxGeometry x="958" width="80" height="40" as="geometry" />
          </mxCell>
        </object>
        <object placeholder="formName" placeholders="1" label="Adastra Template" id="TlLSA2YpN_VJsbKg_DD5-12">
          <mxCell style="text;html=1;strokeColor=none;fillColor=none;align=left;verticalAlign=middle;whiteSpace=wrap;rounded=0;glass=0;" parent="TlLSA2YpN_VJsbKg_DD5-18" vertex="1">
            <mxGeometry x="1038" width="160" height="40" as="geometry" />
          </mxCell>
        </object>
        <object label="Transformer:" id="TlLSA2YpN_VJsbKg_DD5-14">
          <mxCell style="text;html=1;strokeColor=none;fillColor=none;align=left;verticalAlign=middle;whiteSpace=wrap;rounded=0;" parent="TlLSA2YpN_VJsbKg_DD5-18" vertex="1">
            <mxGeometry x="958" y="40" width="80" height="40" as="geometry" />
          </mxCell>
        </object>
        <object placeholder="transformer" placeholders="1" id="TlLSA2YpN_VJsbKg_DD5-16">
          <mxCell style="text;html=1;strokeColor=none;fillColor=none;align=left;verticalAlign=middle;whiteSpace=wrap;rounded=0;" parent="TlLSA2YpN_VJsbKg_DD5-18" vertex="1">
            <mxGeometry x="1038" y="39" width="160" height="40" as="geometry" />
          </mxCell>
        </object>
        <mxCell id="TlLSA2YpN_VJsbKg_DD5-17" value="" style="group;movable=0;resizable=0;rotatable=0;deletable=0;editable=0;locked=1;connectable=0;" parent="TlLSA2YpN_VJsbKg_DD5-18" vertex="1" connectable="0">
          <mxGeometry width="958" height="201" as="geometry" />
        </mxCell>
        <mxCell id="TlLSA2YpN_VJsbKg_DD5-4" value="" style="rounded=0;whiteSpace=wrap;html=1;fillColor=#BDD0E8;strokeColor=#9FB5D0;strokeWidth=2;" parent="TlLSA2YpN_VJsbKg_DD5-17" vertex="1">
          <mxGeometry width="958" height="198" as="geometry" />
        </mxCell>
        <mxCell id="TlLSA2YpN_VJsbKg_DD5-7" value="" style="rounded=0;whiteSpace=wrap;html=1;strokeColor=#666666;fillColor=#CFDDEE;" parent="TlLSA2YpN_VJsbKg_DD5-17" vertex="1">
          <mxGeometry x="9" y="152" width="940" height="47" as="geometry" />
        </mxCell>
        <mxCell id="TlLSA2YpN_VJsbKg_DD5-5" value="Case Questions" style="text;html=1;align=center;verticalAlign=middle;whiteSpace=wrap;rounded=0;fontFamily=Verdana;fontSize=14;fontColor=#364D6C;movable=0;resizable=0;rotatable=0;deletable=0;editable=0;locked=1;connectable=0;" parent="TlLSA2YpN_VJsbKg_DD5-17" vertex="1">
          <mxGeometry y="9" width="121" height="30" as="geometry" />
        </mxCell>
        <mxCell id="TlLSA2YpN_VJsbKg_DD5-3" value="" style="rounded=0;whiteSpace=wrap;html=1;strokeColor=#666666;movable=0;resizable=0;rotatable=0;deletable=0;editable=0;locked=1;connectable=0;" parent="TlLSA2YpN_VJsbKg_DD5-17" vertex="1">
          <mxGeometry x="9" y="39" width="940" height="113" as="geometry" />
        </mxCell>
        <mxCell id="TlLSA2YpN_VJsbKg_DD5-6" value="" style="endArrow=none;html=1;rounded=0;strokeWidth=5;strokeColor=#00549F;movable=0;resizable=0;rotatable=0;deletable=0;editable=0;locked=1;connectable=0;" parent="TlLSA2YpN_VJsbKg_DD5-17" edge="1">
          <mxGeometry width="50" height="50" relative="1" as="geometry">
            <mxPoint x="9" y="154" as="sourcePoint" />
            <mxPoint x="949" y="154" as="targetPoint" />
          </mxGeometry>
        </mxCell>
        <mxCell id="TlLSA2YpN_VJsbKg_DD5-9" value="" style="rounded=0;whiteSpace=wrap;html=1;strokeColor=none;fillColor=#CFDDEE;movable=0;resizable=0;rotatable=0;deletable=0;editable=0;locked=1;connectable=0;" parent="TlLSA2YpN_VJsbKg_DD5-17" vertex="1">
          <mxGeometry x="10" y="196" width="938" height="5" as="geometry" />
        </mxCell>
        <object label="%formName%" placeholders="1" id="TlLSA2YpN_VJsbKg_DD5-10">
          <mxCell style="text;html=1;align=left;verticalAlign=middle;whiteSpace=wrap;rounded=0;fontSize=17;fontStyle=1;fontFamily=Helvetica;movable=0;resizable=0;rotatable=0;deletable=0;editable=0;locked=1;connectable=0;" parent="TlLSA2YpN_VJsbKg_DD5-17" vertex="1">
            <mxGeometry x="17" y="167" width="922" height="30" as="geometry" />
          </mxCell>
        </object>
        <mxCell id="Qrci0i7kSumKpOHUvGRR-1" value="" style="shape=image;verticalLabelPosition=bottom;labelBackgroundColor=default;verticalAlign=top;aspect=fixed;imageAspect=0;image=data:image/svg+xml,PHN2ZyB4bWxucz0iaHR0cDovL3d3dy53My5vcmcvMjAwMC9zdmciIHhtbDpzcGFjZT0icHJlc2VydmUiIGlkPSJzdmcxIiB2ZXJzaW9uPSIxLjEiIHZpZXdCb3g9IjAgMCA1MSAxMSIgaGVpZ2h0PSIxMW1tIiB3aWR0aD0iNTFtbSI+PGRlZnMgaWQ9ImRlZnMxIi8+PGcgaWQ9ImxheWVyMSI+PGcgdHJhbnNmb3JtPSJ0cmFuc2xhdGUoLTg1Ljc5Mjk4NCwtMTk0LjU2NzkyKSIgc3R5bGU9ImRpc3BsYXk6aW5saW5lIiBpZD0iZzciPjxnIHN0eWxlPSJkaXNwbGF5OmlubGluZSIgaWQ9ImczIj48Y2lyY2xlIHI9IjUuNSIgY3k9IjIwMC4wNjc5MiIgY3g9IjkxLjI5Mjk4NCIgaWQ9InBhdGgxIiBzdHlsZT0ib3BhY2l0eToxO2ZpbGw6IzAwNGQ4ODtmaWxsLW9wYWNpdHk6MTtzdHJva2Utd2lkdGg6MS4yNDQzMyIvPjxwYXRoIGQ9Im0gOTEuMjkzMTM2LDE5Ni4wNjgxNCBjIC0wLjM5MzcxNSw3LjNlLTQgLTAuNzUyNjEzLDAuMDU5OCAtMS4xMjkxMzYsMC4xNzQ4NiBsIDllLTYsMi42MDExOSBIIDg3LjQ5MTMgYyAtMC4xMjkzMzYsMC4zOTUxMSAtMC4xOTYyODYsMC44MDc5NyAtMC4xOTg0MzcsMS4yMjM3IC0xLjQ5ZS00LDIuMjA5MzUgMS43OTA5MjIsNC4wMDA0MiA0LjAwMDI3Myw0LjAwMDI3IDIuMjA5MTQ5LC0xLjRlLTQgMy45OTk5MDQsLTEuNzkxMTIgMy45OTk3NTUsLTQuMDAwMjcgLTEuMzhlLTQsLTIuMjA4OTUgLTEuNzkwODA5LC0zLjk5OTYxIC0zLjk5OTc1NSwtMy45OTk3NSB6IiBzdHlsZT0iZGlzcGxheTppbmxpbmU7b3BhY2l0eToxO2ZpbGw6I2ZmZmZmZjtmaWxsLW9wYWNpdHk6MTtzdHJva2Utd2lkdGg6MS4yMzcxMiIgaWQ9InBhdGgyIi8+PGNpcmNsZSByPSIyLjkwMDAwMDEiIGN5PSIyMDAuMDY3OTIiIGN4PSI5MS4yOTI5ODQiIGlkPSJwYXRoMyIgc3R5bGU9Im9wYWNpdHk6MTtmaWxsOiMwMDRlODk7ZmlsbC1vcGFjaXR5OjE7c3Ryb2tlLXdpZHRoOjEiLz48Y2lyY2xlIHI9IjEuMjUiIGN5PSIyMDAuMDY3OTIiIGN4PSI5MS4yOTI5ODQiIGlkPSJwYXRoMy05IiBzdHlsZT0ib3BhY2l0eToxO2ZpbGw6I2ZmZmZmZjtmaWxsLW9wYWNpdHk6MTtzdHJva2Utd2lkdGg6MSIvPjxjaXJjbGUgcj0iMC41IiBjeT0iMjAwLjA2NzkyIiBjeD0iOTEuMjkyOTg0IiBpZD0icGF0aDMtOS0xIiBzdHlsZT0ib3BhY2l0eToxO2ZpbGw6IzAwNGM4ODtmaWxsLW9wYWNpdHk6MTtzdHJva2Utd2lkdGg6MSIvPjxjaXJjbGUgcj0iMC43NSIgY3k9IjE5Ny43MzYwNSIgY3g9Ijg4LjkxOTY1NSIgaWQ9InBhdGgzLTktMS0wIiBzdHlsZT0ib3BhY2l0eToxO2ZpbGw6I2Y1YjMyMDtmaWxsLW9wYWNpdHk6MTtzdHJva2Utd2lkdGg6MSIvPjxyZWN0IHRyYW5zZm9ybT0ibWF0cml4KDAuNzMzNzA0NTMsLTAuNjc5NDY4NjgsMC43MzM3MDQ1MywwLjY3OTQ2ODY4LDAsMCkiIHJ4PSI0LjExODkxOTRlLTE3IiB5PSIyMTAuMTYzNyIgeD0iLTg1LjU0MjE3NSIgaGVpZ2h0PSIyLjY0MzEzNzUiIHdpZHRoPSIwLjkzNDQ0MjQ2IiBpZD0icmVjdDQiIHN0eWxlPSJvcGFjaXR5OjE7ZmlsbDojZmZmZmZmO2ZpbGwtb3BhY2l0eToxO3N0cm9rZS13aWR0aDoxLjIzODM3Ii8+PC9nPjxwYXRoIGFyaWEtbGFiZWw9ImFkYXN0cmEiIGlkPSJ0ZXh0NCIgZD0ibSAxMDIuOTYxMzYsMjAyLjg1MjE5IHEgLTAuMzY3NDIsMC4zNTM0NyAtMC43NTM0NCwwLjUzMDIgLTAuMzgxMzgsMC4xNzY3NCAtMC43ODEzNSwwLjE3Njc0IC0wLjY4MzY4LDAgLTEuMTMwMTcsLTAuNDE4NTggLTAuNDQxODI4LC0wLjQyMzIzIC0wLjQ0MTgyOCwtMS4wNjUwNSAwLC0wLjg3NDM3IDAuNjQ2NDY4LC0xLjI3ODk5IDAuNjQ2NDgsLTAuNDA5MjggMi4wMzcwOSwtMC40MDkyOCBoIDAuMjMyNTQgdiAtMC42MDQ2MiBxIDAsLTAuODc0MzYgLTAuODU1NzYsLTAuODc0MzYgLTAuNDY1MDksMCAtMC44NjUwNiwwLjMwNjk2IGwgLTAuMDYwNSwwLjQ0MTgzIGggLTAuNzQ0MTQgdiAtMS4wMDkyNCBxIDAuOTMwMTcsLTAuNDI3ODggMS44OTI5LC0wLjQyNzg4IDIuMDA5MTgsMCAyLjAwOTE4LDEuNTQ4NzQgdiAyLjI0MTczIHEgMCwwLjc0ODc5IDAuMzk1MzMsMC43NDg3OSAwLjA3NDQsMCAwLjE3NjczLC0wLjAyMzMgbCAwLjA2MDUsMC43MDY5NCBxIC0wLjM1ODEyLDAuMTE2MjcgLTAuNzAyMjgsMC4xMTYyNyAtMC43NTM0NCwwIC0xLjExNjIxLC0wLjcwNjk0IHogbSAtMC4xOTA2OSwtMC41MzQ4NSB2IC0xLjMxMTU0IGggLTAuMTg2MDMgcSAtMC42ODgzMywwIC0xLjAzNzE1LDAuMjI3ODkgLTAuMzQ0MTYsMC4yMjc4OSAtMC4zNDQxNiwwLjY4ODMzIDAsMC4zMzAyMSAwLjIwNDY0LDAuNTUzNDUgMC4yMDQ2MywwLjIyMzI1IDAuNTExNTksMC4yMjMyNSAwLjE5OTk5LDAgMC40MTM5MywtMC4wOTMgMC4yMTM5NCwtMC4wOTc3IDAuNDM3MTgsLTAuMjg4MzYgeiBtIDYuMzM3MDgsMS4xMjU1MiB2IC0wLjk2Mjc0IHEgLTAuMjg4MzUsMC41Mzk1MSAtMC43MjA4OCwwLjgwOTI2IC0wLjQzMjUzLDAuMjY5NzUgLTEuMDA5MjQsMC4yNjk3NSAtMC44ODM2NywwIC0xLjQwNDU3LC0wLjY4ODMzIC0wLjUyMDksLTAuNjg4MzMgLTAuNTIwOSwtMS44NTU3IDAsLTEuMjc0MzQgMC41OTA2NiwtMi4wMzI0NCAwLjU5MDY3LC0wLjc2Mjc0IDEuNTc2NjUsLTAuNzYyNzQgMC40Mjc4OCwwIDAuODA0NiwwLjE1ODEzIDAuMzc2NzMsMC4xNTgxMyAwLjcwMjI5LDAuNDc0MzkgbCAtMC4wMTg2LC0wLjUxNjI1IHYgLTEuNTQ4NzQgaCAtMC42ODgzMyB2IC0wLjY4ODMzIGggMi4wNjk2NCB2IDYuNjU1NDEgaCAwLjY4ODMzIHYgMC42ODgzMyB6IG0gMCwtMy45MDIwOSBxIC0wLjI5MywtMC4yNDY1IC0wLjU2Mjc1LC0wLjM2NzQyIC0wLjI2OTc1LC0wLjEyMDkyIC0wLjUyMDksLTAuMTIwOTIgLTAuNTAyMywwIC0wLjgwNDYsMC40OTc2NCAtMC4zMDIzMSwwLjQ5NzY0IC0wLjMwMjMxLDEuMzE2MiAwLDAuODI3ODYgMC4yNTExNSwxLjI0NjQzIDAuMjU1OCwwLjQxMzkzIDAuNzU4MDksMC40MTM5MyAwLjMzNDg2LDAgMC42Mjc4NywtMC4xNzY3MyAwLjI5NzY1LC0wLjE3NjczIDAuNTUzNDUsLTAuNTI1NTUgeiBtIDUuNzI3ODIsMy4zMTE0MiBxIC0wLjM2NzQyLDAuMzUzNDcgLTAuNzUzNDQsMC41MzAyIC0wLjM4MTM4LDAuMTc2NzQgLTAuNzgxMzUsMC4xNzY3NCAtMC42ODM2OCwwIC0xLjEzMDE3LC0wLjQxODU4IC0wLjQ0MTgzLC0wLjQyMzIzIC0wLjQ0MTgzLC0xLjA2NTA1IDAsLTAuODc0MzcgMC42NDY0NywtMS4yNzg5OSAwLjY0NjQ4LC0wLjQwOTI4IDIuMDM3MDksLTAuNDA5MjggaCAwLjIzMjU0IHYgLTAuNjA0NjIgcSAwLC0wLjg3NDM2IC0wLjg1NTc2LC0wLjg3NDM2IC0wLjQ2NTA5LDAgLTAuODY1MDYsMC4zMDY5NiBsIC0wLjA2MDUsMC40NDE4MyBoIC0wLjc0NDE1IHYgLTEuMDA5MjQgcSAwLjkzMDE4LC0wLjQyNzg4IDEuODkyOTEsLTAuNDI3ODggMi4wMDkxOCwwIDIuMDA5MTgsMS41NDg3NCB2IDIuMjQxNzMgcSAwLDAuNzQ4NzkgMC4zOTUzMywwLjc0ODc5IDAuMDc0NCwwIDAuMTc2NzMsLTAuMDIzMyBsIDAuMDYwNSwwLjcwNjk0IHEgLTAuMzU4MTIsMC4xMTYyNyAtMC43MDIyOCwwLjExNjI3IC0wLjc1MzQ0LDAgLTEuMTE2MjEsLTAuNzA2OTQgeiBtIC0wLjE5MDY5LC0wLjUzNDg1IHYgLTEuMzExNTQgaCAtMC4xODYwMyBxIC0wLjY4ODMzLDAgLTEuMDM3MTUsMC4yMjc4OSAtMC4zNDQxNiwwLjIyNzg5IC0wLjM0NDE2LDAuNjg4MzMgMCwwLjMzMDIxIDAuMjA0NjMsMC41NTM0NSAwLjIwNDY0LDAuMjIzMjUgMC41MTE2LDAuMjIzMjUgMC4xOTk5OSwwIDAuNDEzOTMsLTAuMDkzIDAuMjEzOTQsLTAuMDk3NyAwLjQzNzE4LC0wLjI4ODM2IHogbSAyLjg1MzU3LDAuODgzNjcgdiAtMS4yMDQ1OCBoIDAuODA0NjEgdiAwLjQ4MzY5IHEgMC4zMjA5MSwwLjE5NTM0IDAuNTk5OTYsMC4yOTMwMSAwLjI4MzcsMC4wOTc3IDAuNTI1NTUsMC4wOTc3IDAuNDM3MTgsMCAwLjY1NTc3LC0wLjE1MzQ4IDAuMjE4NTksLTAuMTU4MTMgMC4yMTg1OSwtMC40NjUwOSAwLC0wLjQzNzE4IC0wLjg2MDQxLC0wLjc3NjcgbCAtMC40MTg1OCwtMC4xNjc0MyBxIC0xLjQ2OTY4LC0wLjU4MTM2IC0xLjQ2OTY4LC0xLjU2NzM0IDAsLTAuNzAyMjkgMC41Njc0MSwtMS4xMTE1NiAwLjU2NzQxLC0wLjQwOTI4IDEuNTQ0MDksLTAuNDA5MjggMC40Mjc4OCwwIDAuODM3MTYsMC4wNjUxIDAuNDEzOTMsMC4wNjUxIDAuODA5MjUsMC4xOTUzNCB2IDEuMjA0NTggaCAtMC43OTk5NSB2IC0wLjQ4ODM1IHEgLTAuMjE4NTksLTAuMTQ0MTcgLTAuNDQxODMsLTAuMjEzOTQgLTAuMjE4NTksLTAuMDc0NCAtMC40MzcxOCwtMC4wNzQ0IC0wLjMzNDg3LDAgLTAuNTQ4ODEsMC4xNzIwOCAtMC4yMDkyOSwwLjE3MjA4IC0wLjIwOTI5LDAuNDM3MTggMCwwLjI1MTE1IDAuMTk1MzQsMC40MTM5MyAwLjE5NTM0LDAuMTYyNzggMC43NjI3NCwwLjM4MTM3IGwgMC40MTg1OCwwLjE2Mjc5IHEgMC43ODYsMC4zMDIzIDEuMTA2OTEsMC42MzI1MSAwLjMyMDkxLDAuMzMwMjIgMC4zMjA5MSwwLjgzNzE2IDAsMC43MDY5NCAtMC42MDQ2MSwxLjE2MjcyIC0wLjYwNDYxLDAuNDUxMTQgLTEuNTQ4NzQsMC40NTExNCAtMC41ODYwMSwwIC0xLjA5Mjk2LC0wLjA5MyAtMC41MDY5NSwtMC4wODg0IC0wLjkzNDgzLC0wLjI2NTEgeiBtIDguMTY0ODgsMC4xOTk5OSBxIC0wLjQyMzIzLDAuMTU4MTMgLTAuODY5NzIsMC4xNTgxMyAtMC44NDY0NiwwIC0xLjI3NDM0LC0wLjQyMzIzIC0wLjQyMzIzLC0wLjQyNzg4IC0wLjQyMzIzLC0xLjI3ODk5IHYgLTIuODMyMzkgaCAtMC42ODgzMyB2IC0wLjY4ODMzIGggMC42ODgzMyB2IC0wLjg2MDQxIGwgMS4zNzY2NiwtMC4yMjc4OSB2IDEuMDg4MyBoIDEuMTM0ODIgdiAwLjY4ODMzIGggLTEuMTM0ODIgdiAyLjg2NDk0IHEgMCwwLjQ0NjQ5IDAuMTc2NzQsMC42Njk3MyAwLjE4MTM4LDAuMjIzMjQgMC41MzQ4NSwwLjIyMzI0IDAuMjEzOTQsMCAwLjQ3OTA0LC0wLjA5NzcgeiBtIDIuNzM3MywtMy40NDE2NSB2IDIuNzk1MTggaCAwLjY4ODMzIHYgMC42ODgzMyBoIC0yLjc1MzMyIHYgLTAuNjg4MzMgaCAwLjY4ODMzIHYgLTMuNzMwMDEgaCAtMC42ODgzMyB2IC0wLjY4ODMzIGggMi4wNjQ5OSB2IDAuOTYyNzMgcSAwLjU5MDY2LC0xLjA3OSAxLjYyNzgxLC0xLjA3OSAwLjE2NzQzLDAgMC4zMjU1NiwwLjA2MDUgdiAxLjQ4ODI4IGggLTAuODA0NiB2IC0wLjQ2OTc0IHEgLTAuNjU1NzgsMCAtMS4xNDg3NywwLjY2MDQzIHogbSA1LjYxNjE5LDIuODkyODQgcSAtMC4zNjc0MiwwLjM1MzQ3IC0wLjc1MzQ0LDAuNTMwMiAtMC4zODEzNywwLjE3Njc0IC0wLjc4MTM1LDAuMTc2NzQgLTAuNjgzNjcsMCAtMS4xMzAxNiwtMC40MTg1OCAtMC40NDE4MywtMC40MjMyMyAtMC40NDE4MywtMS4wNjUwNSAwLC0wLjg3NDM3IDAuNjQ2NDcsLTEuMjc4OTkgMC42NDY0NywtMC40MDkyOCAyLjAzNzA4LC0wLjQwOTI4IGggMC4yMzI1NSB2IC0wLjYwNDYyIHEgMCwtMC44NzQzNiAtMC44NTU3NiwtMC44NzQzNiAtMC40NjUwOSwwIC0wLjg2NTA3LDAuMzA2OTYgbCAtMC4wNjA1LDAuNDQxODMgaCAtMC43NDQxNCB2IC0xLjAwOTI0IHEgMC45MzAxOCwtMC40Mjc4OCAxLjg5MjkxLC0wLjQyNzg4IDIuMDA5MTgsMCAyLjAwOTE4LDEuNTQ4NzQgdiAyLjI0MTczIHEgMCwwLjc0ODc5IDAuMzk1MzIsMC43NDg3OSAwLjA3NDQsMCAwLjE3Njc0LC0wLjAyMzMgbCAwLjA2MDUsMC43MDY5NCBxIC0wLjM1ODEyLDAuMTE2MjcgLTAuNzAyMjgsMC4xMTYyNyAtMC43NTM0NSwwIC0xLjExNjIyLC0wLjcwNjk0IHogbSAtMC4xOTA2OCwtMC41MzQ4NSB2IC0xLjMxMTU0IGggLTAuMTg2MDQgcSAtMC42ODgzMywwIC0xLjAzNzE0LDAuMjI3ODkgLTAuMzQ0MTcsMC4yMjc4OSAtMC4zNDQxNywwLjY4ODMzIDAsMC4zMzAyMSAwLjIwNDY0LDAuNTUzNDUgMC4yMDQ2NCwwLjIyMzI1IDAuNTExNiwwLjIyMzI1IDAuMTk5OTksMCAwLjQxMzkzLC0wLjA5MyAwLjIxMzk0LC0wLjA5NzcgMC40MzcxOCwtMC4yODgzNiB6IiBzdHlsZT0iZm9udC13ZWlnaHQ6NjAwO2ZvbnQtc2l6ZTo5LjUyNXB4O2ZvbnQtZmFtaWx5OidMdWNpZGEgRmF4JzstaW5rc2NhcGUtZm9udC1zcGVjaWZpY2F0aW9uOidMdWNpZGEgRmF4IFNlbWktQm9sZCc7bGV0dGVyLXNwYWNpbmc6LTAuMTMyMjkycHg7d29yZC1zcGFjaW5nOi0wLjAwNzkzNzVweDtvcGFjaXR5OjE7ZmlsbDojMDA0ZDg4Ii8+PC9nPjwvZz48L3N2Zz4=;" parent="TlLSA2YpN_VJsbKg_DD5-17" vertex="1">
          <mxGeometry x="660.81" y="70.5" width="278.19" height="60" as="geometry" />
        </mxCell>
        <object label="" fieldType="Yes No Radio" id="BLBVMyfhBP9onTaYwxfi-1">
          <mxCell style="fontFamily=Tahoma;group;recursiveResize=0;fillColor=#bdd0e8;movable=0;resizable=1;rotatable=1;deletable=1;editable=1;locked=0;connectable=1;strokeColor=none;" parent="1" fieldType="Pick List" vertex="1" connectable="0">
            <mxGeometry y="200" width="960" height="40" as="geometry" />
          </mxCell>
        </object>
        <mxCell id="BLBVMyfhBP9onTaYwxfi-39" value="" style="rounded=0;whiteSpace=wrap;html=1;fillColor=#CFDDEE;strokeColor=none;movable=0;resizable=0;rotatable=0;deletable=0;editable=0;locked=1;connectable=0;" parent="BLBVMyfhBP9onTaYwxfi-1" vertex="1">
          <mxGeometry x="10" width="940" height="40" as="geometry" />
        </mxCell>
        <object label="&lt;font style=&quot;font-size: 14px;&quot; face=&quot;Tahoma&quot;&gt;Yes/No Radio&lt;/font&gt;" tooltip="&lt;b&gt;fieldType:&lt;/b&gt; %fieldType%" placeholders="1" id="BLBVMyfhBP9onTaYwxfi-2">
          <mxCell style="fontFamily=Helvetica;text;html=1;strokeColor=none;fillColor=none;align=left;verticalAlign=top;whiteSpace=wrap;rounded=0;fontSize=16;fontColor=#485fab;movable=0;resizable=0;rotatable=1;deletable=0;editable=1;locked=0;connectable=1;autosize=0;movableLabel=0;" parent="BLBVMyfhBP9onTaYwxfi-1" vertex="1">
            <mxGeometry x="17" width="433" height="40" as="geometry" />
          </mxCell>
        </object>
        <mxCell id="BLBVMyfhBP9onTaYwxfi-27" value="X" style="rounded=1;whiteSpace=wrap;html=1;fillColor=default;strokeColor=#bac8dc;fontColor=#4b6692;textShadow=1;fontFamily=Tahoma;fontSize=16;spacing=0;spacingLeft=-2;spacingTop=-4;gradientColor=#d1dfee;spacingRight=-1;strokeWidth=2;movable=0;resizable=0;rotatable=0;deletable=0;editable=0;locked=1;connectable=0;" parent="BLBVMyfhBP9onTaYwxfi-1" vertex="1">
          <mxGeometry x="870" y="5" width="39" height="31" as="geometry" />
        </mxCell>
        <mxCell id="BLBVMyfhBP9onTaYwxfi-31" value="No" style="ellipse;whiteSpace=wrap;html=1;aspect=fixed;strokeColor=#000222;labelPosition=right;verticalLabelPosition=middle;align=left;verticalAlign=middle;fontSize=16;fontFamily=Tahoma;spacingLeft=5;spacingTop=-1;fontColor=#4f5d8d;movable=0;resizable=0;rotatable=0;deletable=0;editable=0;locked=1;connectable=0;" parent="BLBVMyfhBP9onTaYwxfi-1" vertex="1">
          <mxGeometry x="667" y="10" width="19" height="19" as="geometry" />
        </mxCell>
        <mxCell id="BLBVMyfhBP9onTaYwxfi-33" value="Yes" style="ellipse;whiteSpace=wrap;html=1;aspect=fixed;strokeColor=#000222;labelPosition=right;verticalLabelPosition=middle;align=left;verticalAlign=middle;fontSize=16;fontFamily=Tahoma;spacingLeft=5;spacingTop=-1;fontColor=#4f5d8d;movable=0;resizable=0;rotatable=0;deletable=0;editable=0;locked=1;connectable=0;" parent="BLBVMyfhBP9onTaYwxfi-1" vertex="1">
          <mxGeometry x="495" y="10" width="19" height="19" as="geometry" />
        </mxCell>
        <object label="" fieldType="Yes/No Checkbox" id="BLBVMyfhBP9onTaYwxfi-49">
          <mxCell style="fontFamily=Tahoma;group;recursiveResize=0;fillColor=#bdd0e8;movable=1;resizable=1;rotatable=1;deletable=1;editable=1;locked=0;connectable=1;" parent="1" fieldType="Pick List" vertex="1" connectable="0">
            <mxGeometry y="240" width="960" height="40" as="geometry" />
          </mxCell>
        </object>
        <mxCell id="BLBVMyfhBP9onTaYwxfi-52" value="" style="rounded=0;whiteSpace=wrap;html=1;strokeColor=none;fillColor=#cfddee;movable=0;resizable=0;rotatable=0;deletable=0;editable=0;locked=1;connectable=0;" parent="BLBVMyfhBP9onTaYwxfi-49" vertex="1">
          <mxGeometry x="10" width="940" height="40" as="geometry" />
        </mxCell>
        <object label="&lt;font face=&quot;Tahoma&quot; style=&quot;font-size: 14px;&quot;&gt;Yes/No Checkbox&lt;/font&gt;" tooltip="&lt;b&gt;fieldType:&lt;/b&gt; %fieldType%" placeholders="1" id="BLBVMyfhBP9onTaYwxfi-50">
          <mxCell style="fontFamily=Helvetica;text;html=1;strokeColor=none;fillColor=none;align=left;verticalAlign=top;whiteSpace=wrap;rounded=0;fontSize=16;fontColor=#485fab;editable=1;movable=0;resizable=0;rotatable=0;deletable=0;locked=0;connectable=1;" parent="BLBVMyfhBP9onTaYwxfi-49" vertex="1">
            <mxGeometry x="17" width="433" height="40" as="geometry" />
          </mxCell>
        </object>
        <object label="" tooltip="&lt;b&gt;fieldType:&lt;/b&gt; %fieldType%" placeholders="1" id="BLBVMyfhBP9onTaYwxfi-51">
          <mxCell style="strokeWidth=1;shadow=0;dashed=0;align=center;html=1;shape=mxgraph.mockup.forms.rrect;rSize=0;fillColor=#eeeeee;strokeColor=#999999;gradientColor=#cccccc;align=left;spacingLeft=4;fontSize=17;fontColor=#666666;labelPosition=right;movable=1;resizable=1;rotatable=1;deletable=1;editable=1;locked=0;connectable=1;" parent="BLBVMyfhBP9onTaYwxfi-49" vertex="1">
            <mxGeometry x="495" y="10" width="19" height="19" as="geometry" />
          </mxCell>
        </object>
        <object label="" fieldType="Selection" id="BLBVMyfhBP9onTaYwxfi-53">
          <mxCell style="fontFamily=Tahoma;group;recursiveResize=0;fillColor=#bdd0e8;" parent="1" fieldType="Pick List" vertex="1" connectable="0">
            <mxGeometry y="280" width="960" height="80" as="geometry" />
          </mxCell>
        </object>
        <mxCell id="BLBVMyfhBP9onTaYwxfi-61" value="" style="rounded=0;whiteSpace=wrap;html=1;strokeColor=none;fillColor=#cfddee;" parent="BLBVMyfhBP9onTaYwxfi-53" vertex="1">
          <mxGeometry x="10" width="940" height="80" as="geometry" />
        </mxCell>
        <object label="&lt;font style=&quot;font-size: 14px;&quot; face=&quot;Tahoma&quot;&gt;Selection&lt;/font&gt;" tooltip="&lt;b&gt;fieldType:&lt;/b&gt; %fieldType%" placeholders="1" id="BLBVMyfhBP9onTaYwxfi-54">
          <mxCell style="fontFamily=Helvetica;text;html=1;strokeColor=none;fillColor=none;align=left;verticalAlign=top;whiteSpace=wrap;rounded=0;fontSize=16;fontColor=#485fab;movable=0;rotatable=0;resizable=0;deletable=0;" parent="BLBVMyfhBP9onTaYwxfi-53" vertex="1">
            <mxGeometry x="17" width="433" height="80" as="geometry" />
          </mxCell>
        </object>
        <object label="Selection" placeholders="1" tooltip="&lt;b&gt;fieldType:&lt;/b&gt; %fieldType%" id="BLBVMyfhBP9onTaYwxfi-55">
          <mxCell style="fontFamily=Tahoma;swimlane;fontStyle=0;childLayout=stackLayout;horizontal=1;startSize=20;horizontalStack=0;resizeParent=1;resizeParentMax=0;resizeLast=0;collapsible=1;marginBottom=0;whiteSpace=wrap;html=1;treeFolding=0;expand=1;strokeColor=#666666;fillColor=#FFFFFF;" parent="BLBVMyfhBP9onTaYwxfi-53" vertex="1">
            <mxGeometry x="466" width="424" height="80" as="geometry">
              <mxRectangle x="240" width="320" height="40" as="alternateBounds" />
            </mxGeometry>
          </mxCell>
        </object>
        <object label="Option 1" placeholders="1" tooltip="&lt;b&gt;fieldType:&lt;/b&gt; %fieldType%" id="BLBVMyfhBP9onTaYwxfi-56">
          <mxCell style="fontFamily=Tahoma;text;strokeColor=none;fillColor=default;align=left;verticalAlign=middle;spacingLeft=4;spacingRight=4;overflow=hidden;points=[[0,0.5],[1,0.5]];portConstraint=eastwest;rotatable=0;whiteSpace=wrap;html=1;fontFamily=Tahoma;spacing=0;labelBackgroundColor=none;" parent="BLBVMyfhBP9onTaYwxfi-55" vertex="1">
            <mxGeometry y="20" width="424" height="15" as="geometry" />
          </mxCell>
        </object>
        <object label="Option 2" placeholders="1" tooltip="&lt;b&gt;fieldType:&lt;/b&gt; %fieldType%" id="BLBVMyfhBP9onTaYwxfi-57">
          <mxCell style="fontFamily=Tahoma;text;strokeColor=none;fillColor=default;align=left;verticalAlign=middle;spacingLeft=4;spacingRight=4;overflow=hidden;points=[[0,0.5],[1,0.5]];portConstraint=eastwest;rotatable=0;whiteSpace=wrap;html=1;fontFamily=Tahoma;spacing=0;labelBackgroundColor=none;" parent="BLBVMyfhBP9onTaYwxfi-55" vertex="1">
            <mxGeometry y="35" width="424" height="15" as="geometry" />
          </mxCell>
        </object>
        <object label="Option 3" placeholders="1" tooltip="&lt;b&gt;fieldType:&lt;/b&gt; %fieldType%" id="BLBVMyfhBP9onTaYwxfi-58">
          <mxCell style="fontFamily=Tahoma;text;strokeColor=none;fillColor=default;align=left;verticalAlign=middle;spacingLeft=4;spacingRight=4;overflow=hidden;points=[[0,0.5],[1,0.5]];portConstraint=eastwest;rotatable=0;whiteSpace=wrap;html=1;fontFamily=Tahoma;spacing=0;labelBackgroundColor=none;" parent="BLBVMyfhBP9onTaYwxfi-55" vertex="1">
            <mxGeometry y="50" width="424" height="15" as="geometry" />
          </mxCell>
        </object>
        <object label="Option 4" placeholders="1" tooltip="&lt;b&gt;fieldType:&lt;/b&gt; %fieldType%" id="BLBVMyfhBP9onTaYwxfi-59">
          <mxCell style="fontFamily=Tahoma;text;strokeColor=none;fillColor=default;align=left;verticalAlign=middle;spacingLeft=4;spacingRight=4;overflow=hidden;points=[[0,0.5],[1,0.5]];portConstraint=eastwest;rotatable=0;whiteSpace=wrap;fontFamily=Tahoma;spacing=0;html=1;labelBackgroundColor=none;" parent="BLBVMyfhBP9onTaYwxfi-55" vertex="1">
            <mxGeometry y="65" width="424" height="15" as="geometry" />
          </mxCell>
        </object>
        <object label="" tooltip="&lt;b&gt;fieldType:&lt;/b&gt; %fieldType%" placeholders="1" id="BLBVMyfhBP9onTaYwxfi-60">
          <mxCell style="fontFamily=Tahoma;html=1;verticalLabelPosition=bottom;labelBackgroundColor=#ffffff;verticalAlign=top;shadow=0;dashed=0;strokeWidth=2;shape=mxgraph.ios7.misc.down;strokeColor=#000000;aspect=fixed;container=0;" parent="BLBVMyfhBP9onTaYwxfi-53" vertex="1">
            <mxGeometry x="870" y="6.25" width="15" height="7.5" as="geometry">
              <mxRectangle x="540" y="1327.75" width="160" height="160" as="alternateBounds" />
            </mxGeometry>
          </mxCell>
        </object>
        <mxCell id="gsqfuOAhVpBWlZJEWZv--7" value="" style="group" parent="1" vertex="1" connectable="0">
          <mxGeometry y="360" width="960" height="80" as="geometry" />
        </mxCell>
        <object label="" fieldType="Yes No Radio" id="gsqfuOAhVpBWlZJEWZv--1">
          <mxCell style="fontFamily=Tahoma;group;recursiveResize=0;fillColor=#bdd0e8;movable=1;resizable=1;rotatable=1;deletable=1;editable=1;locked=0;connectable=1;strokeColor=none;container=0;" parent="gsqfuOAhVpBWlZJEWZv--7" fieldType="Pick List" vertex="1" connectable="0">
            <mxGeometry width="960" height="80" as="geometry" />
          </mxCell>
        </object>
        <mxCell id="gsqfuOAhVpBWlZJEWZv--2" value="" style="rounded=0;whiteSpace=wrap;html=1;fillColor=#CFDDEE;strokeColor=none;movable=1;resizable=1;rotatable=1;deletable=1;editable=1;locked=0;connectable=1;" parent="gsqfuOAhVpBWlZJEWZv--7" vertex="1">
          <mxGeometry x="10" width="940" height="80" as="geometry" />
        </mxCell>
        <object label="&lt;font style=&quot;font-size: 14px;&quot; face=&quot;Tahoma&quot;&gt;Yes/No Radio w Information&lt;/font&gt;" tooltip="&lt;b&gt;fieldType:&lt;/b&gt; %fieldType%" placeholders="1" id="gsqfuOAhVpBWlZJEWZv--3">
          <mxCell style="fontFamily=Helvetica;text;html=1;strokeColor=none;fillColor=none;align=left;verticalAlign=top;whiteSpace=wrap;rounded=0;fontSize=16;fontColor=#485fab;movable=0;resizable=0;rotatable=1;deletable=0;editable=1;locked=0;connectable=1;autosize=0;movableLabel=0;" parent="gsqfuOAhVpBWlZJEWZv--7" vertex="1">
            <mxGeometry x="17" width="433" height="40" as="geometry" />
          </mxCell>
        </object>
        <mxCell id="gsqfuOAhVpBWlZJEWZv--4" value="X" style="rounded=1;whiteSpace=wrap;html=1;fillColor=default;strokeColor=#bac8dc;fontColor=#4b6692;textShadow=1;fontFamily=Tahoma;fontSize=16;spacing=0;spacingLeft=-2;spacingTop=-4;gradientColor=#d1dfee;spacingRight=-1;strokeWidth=2;movable=0;resizable=0;rotatable=0;deletable=0;editable=0;locked=1;connectable=0;" parent="gsqfuOAhVpBWlZJEWZv--7" vertex="1">
          <mxGeometry x="870" y="5" width="39" height="31" as="geometry" />
        </mxCell>
        <mxCell id="gsqfuOAhVpBWlZJEWZv--5" value="No" style="ellipse;whiteSpace=wrap;html=1;aspect=fixed;strokeColor=#000222;labelPosition=right;verticalLabelPosition=middle;align=left;verticalAlign=middle;fontSize=16;fontFamily=Tahoma;spacingLeft=5;spacingTop=-1;fontColor=#4f5d8d;movable=0;resizable=0;rotatable=0;deletable=0;editable=0;locked=1;connectable=0;" parent="gsqfuOAhVpBWlZJEWZv--7" vertex="1">
          <mxGeometry x="667" y="10" width="19" height="19" as="geometry" />
        </mxCell>
        <mxCell id="gsqfuOAhVpBWlZJEWZv--6" value="Yes" style="ellipse;whiteSpace=wrap;html=1;aspect=fixed;strokeColor=#000222;labelPosition=right;verticalLabelPosition=middle;align=left;verticalAlign=middle;fontSize=16;fontFamily=Tahoma;spacingLeft=5;spacingTop=-1;fontColor=#4f5d8d;movable=0;resizable=0;rotatable=0;deletable=0;editable=0;locked=1;connectable=0;" parent="gsqfuOAhVpBWlZJEWZv--7" vertex="1">
          <mxGeometry x="495" y="10" width="19" height="19" as="geometry" />
        </mxCell>
        <object label="&lt;font style=&quot;font-size: 14px;&quot; face=&quot;Tahoma&quot;&gt;Information&lt;/font&gt;" tooltip="&lt;b&gt;fieldType:&lt;/b&gt; %fieldType%" placeholders="1" id="gsqfuOAhVpBWlZJEWZv--23">
          <mxCell style="fontFamily=Helvetica;text;html=1;strokeColor=none;fillColor=none;align=left;verticalAlign=top;whiteSpace=wrap;rounded=0;fontSize=16;fontColor=#485fab;movable=0;resizable=0;rotatable=0;deletable=0;editable=1;locked=0;connectable=1;autosize=0;movableLabel=0;" parent="gsqfuOAhVpBWlZJEWZv--7" vertex="1">
            <mxGeometry x="17" y="36" width="433" height="40" as="geometry" />
          </mxCell>
        </object>
        <mxCell id="gsqfuOAhVpBWlZJEWZv--21" value="" style="group;fillColor=#e0ecf9;gradientColor=#d2e1ef;gradientDirection=south;rounded=1;movable=0;resizable=0;rotatable=0;deletable=0;editable=0;locked=1;connectable=0;" parent="gsqfuOAhVpBWlZJEWZv--7" vertex="1" connectable="0">
          <mxGeometry x="467" y="10" width="27" height="20" as="geometry" />
        </mxCell>
        <mxCell id="gsqfuOAhVpBWlZJEWZv--16" value="" style="shape=image;verticalLabelPosition=bottom;labelBackgroundColor=default;verticalAlign=top;aspect=fixed;imageAspect=0;image=data:image/svg+xml,PHN2ZyB4bWxucz0iaHR0cDovL3d3dy53My5vcmcvMjAwMC9zdmciIGZpbGw9Im5vbmUiIHZpZXdCb3g9IjAgMCA0OCA0OCIgaGVpZ2h0PSI2NHB4IiB3aWR0aD0iNjRweCI+JiN4YTsmI3hhOzxnIHN0cm9rZS13aWR0aD0iMCIgaWQ9IlNWR1JlcG9fYmdDYXJyaWVyIi8+JiN4YTsmI3hhOzxnIHN0cm9rZS1saW5lam9pbj0icm91bmQiIHN0cm9rZS1saW5lY2FwPSJyb3VuZCIgaWQ9IlNWR1JlcG9fdHJhY2VyQ2FycmllciIvPiYjeGE7JiN4YTs8ZyBpZD0iU1ZHUmVwb19pY29uQ2FycmllciI+IDxyZWN0IGZpbGwtb3BhY2l0eT0iMC4wMSIgZmlsbD0id2hpdGUiIGhlaWdodD0iNDgiIHdpZHRoPSI0OCIvPiA8cGF0aCBzdHJva2UtbGluZWpvaW49InJvdW5kIiBzdHJva2UtbGluZWNhcD0icm91bmQiIHN0cm9rZS13aWR0aD0iNCIgc3Ryb2tlPSIjMDAwMDAwIiBkPSJNMTIgMjRMMjQgMTJMMzYgMjQiLz4gPHBhdGggc3Ryb2tlLWxpbmVqb2luPSJyb3VuZCIgc3Ryb2tlLWxpbmVjYXA9InJvdW5kIiBzdHJva2Utd2lkdGg9IjQiIHN0cm9rZT0iIzAwMDAwMCIgZD0iTTEyIDM2TDI0IDI0TDM2IDM2Ii8+IDwvZz4mI3hhOyYjeGE7PC9zdmc+;movable=1;resizable=1;rotatable=1;deletable=1;editable=1;locked=0;connectable=1;container=0;" parent="gsqfuOAhVpBWlZJEWZv--21" vertex="1">
          <mxGeometry x="6" y="1" width="16.13" height="16.13" as="geometry" />
        </mxCell>
        <mxCell id="gsqfuOAhVpBWlZJEWZv--20" value="" style="rounded=1;whiteSpace=wrap;html=1;gradientColor=#d2e0ef;fillColor=none;strokeColor=#becddf;" parent="gsqfuOAhVpBWlZJEWZv--21" vertex="1">
          <mxGeometry width="27" height="20" as="geometry" />
        </mxCell>
        <mxCell id="V5l7xqbYga4Lv0CrcqgJ-2" value="" style="shape=image;verticalLabelPosition=bottom;labelBackgroundColor=default;verticalAlign=top;aspect=fixed;imageAspect=0;image=data:image/png,iVBORw0KGgoAAAANSUhEUgAAA6wAAAK8CAYAAADrmjJrAAAAAXNSR0IArs4c6QAAAARnQU1BAACxjwv8YQUAAAAJcEhZcwAAFxEAABcRAcom8z8AAP+lSURBVHhe7J0FfFZl+8cHSAgiGISKIoggiqLS3dLd3Smd0h1jwXpjGytGw4iNJYwV6+5ONmIbMDrU3/+6zvMMBoKAgs73f/3ez/fd9jzn3Oc+9zl8fL7PHUcDEolEIpFIJBKJRCKRlMIowpqclgW3c/5wPesHN8/zgiAIgiAIgiAIgvCv4eEdiHPnQ1XC6urpjx1GdrA46AxbBw/YHHMXBEEQBEEQBEEQhH8BDxjbHscOA2u1sJ71gznJamDyZUTl3ERo+lVBEARBEARBEARB+EcJy7yOqAs34eQTCS0jG5Wwcpcr96xGXbiF6LwHCEq9geC0m8J/Er52f5dnlSsIgiAIgiAIgvDmYA8NzbiNxPzf4BGcCB0Tu8fCyl2vYRnXlI3ORl3BuZh8QRAEQRAEQRAEQfhH8CQP9YkrRHTuXbgFxj1bWNlseWPv2AJBEARBEARBEARB+EfwIg/1jb8qwioIgiAIgiAIgiCULl5dWGP+WIggCIIgCIIgCIIgvG6eK6we554S1mgRVkEQBEEQBEEQBOGf45nCevv+7zjt4QdbRVivKosu8WRX3lgQBEEQBEEQBEEQ/gnORV+BT/xTiy5FZj2A/Ukf2B13R7h6leD/vLBG/w2eVZ4gCIIgCIIgCILwRnmmsGbm/4ojp31h5yDCqvCs8gRBEARBEARBEIQ3yjOFleewuj+awypDggVBEARBEARBEIR/nucL66NVgkVYBUEQBEEQBEEQhH+e5wrr48faiLAKgiD86zxrusKr8qxyBUEQBEEQSjEirIIgCP8FniWgr8qzyhUEQRAEQSjFvFhY01XCejbysrKxIAiCIAiCIAiCIPwTeEZdhndcwd8Q1iiG7Dc6H94xBU+ifKv/1Pb/JGTkf3j4LJv6s7Z9YxR/O/D036pvCwRBEARBEARBEIRn81qE1TPmKnwTbyIk7TZC05k7CE27hZDka/CLy1eGEz9z3zcG1TWmED5Up6CSdaKfXKfzcartPP+w3+vFk+T0XOw1+CdfR0BSoSLw56itziddR2DyVfiwxP7jbSMIgiAIgiAIgvDf4G8Iq0oKvRNuIDQuEy4evtA0d8QawxPYYHQc68zdscUhEYcDL8M/tmQP45vHK+EmzkdfgMcZHxhYc51OYr0R1cvUGZonknAojAQyoQB+sW9QWpUe5jx4BifAzjEKVi7pcIvKg3d4POxOhMDoaDxOhl3CufiCf7cXWhAEQRAEQRAEoZTyN4SVewsLcC7yAs6dPo0dGzah1ZAF+Lr3XLToNxtNBq3C93OPYdPxVPglXYVP/DX4xl+FX8I1gn/SayyyLL5cXmwhbVPi/Xj6m95XHYvkL+7JfX2p0n8UPVWdfOg9d3cv6G9ej94j51Gd5uPHvrPQbMBctJyzF3Ntk+EYlk/1KVTK8Ynjejwuw0tdhnfx8fnvV617fBECYtLgedYRPy+3w4RNAXCIzkVAuC+27DyIqRvPwdY/F+eSr1FZVA9lX9X+j89NNaSZ6+lD5+9LbahsQ8fyfXR8+sn7P3F81dDnx+0iCIIgCIIgCILw3+OFwhpKwhqYUoQzEZeUjYvxirsOr/B0OB22x8IZ69F9oiGm7nbFloPeMDzghS0GJzF3gTnW2/nhYNJ1nIu/Dn8SqvOJKhQxU0uX0supSBe9x9soqIWVh8wWC6N63/NqqfNmYStRJ+7x5bm059xdsW3TDvSYaoApWqew46Af9A+6QsvKAhMmrEDXMaaYY5eCY2FXEZLMZanroZSjkl5fkj4f7oF93vFfVHcW1uhUnPU4hilzzTHsFy8com3PJ2bhuEcsbF1S4RRGbRpX+EjGVW2jFk6+OCysdJ6+Snks/OptaNtHdWZhZZkt3r/4+Mpw4+JzEgRBEARBEARB+O9xNvKS0pEYdeHOqwkrzw/18IuFxYaNGDZuG4Zqh2N/3E2E5N5HZM4DBERexKnD3rA/E4cjwQk4sP8Qlm82xbjlxpi4fDemb3DAzpNJOJVwFz7RF+Hp4QEtfUtMWmaIiSvNMXmHBzRPZsEz4Qr8oyKx2/wg5i41xKTlppi0cj82HIjC4egiRSa9lTqRuCWwbCbAdqc2Joxag55bAmASeB0RuQ8QeeE2QlOScMhYD+MmbkePlWdg4hQE62P+2Lk3Cg6hVIf4QvhFpuCEmz80LQNg5pwFn5SLOBcYAB1dO8xcYoAJy8wwbf0x7DiVjJOJ9+FLdT/3RN0tMEXTAzquGTh9Pgjm2proP3gxfhy8CaPWWGChmRvW7wmE8dEkOIVfQWBSGo44nMYva40xdbkRtc9hrN4TjeNxdGGiY6l+Ydi+2wcm5lZYuc0QY5caYcbWw9jhmIHj0dTOEelwcTqF9ZrmmMD1W22NGbt8YeyeibMktTx0u+R1EwRBEARBEARB+K/wl4X1fMoNnPSIw4qpOop87gq7gTOxJHzFc1Xpp1dcIXwSiuDlEwpbIz2Mnb0G7cesRbfhy9Fj+DoM0vSEll8hPLxCYbldC6OmLEHLMSvQesgKfNdPG5P0fXAgPBFHDhzF0kXb0HPManQbvQrdRqzF4NUOWO94AU6R+fCJ455QHlabA8+Qs1g9TxPDx1lhs3suHOOLcJ7rEnOVTvQKgiN9oaW7FyMmW2OHlS1mrrfC4IUusPTPgyedZ3BECGytbTBgsh0WWobDKSwae81puzmb0H30anQdtRI9xmzByB1noet1GS5Ud/On6t6U6j7V2AfW3j7QXL0K3btPQv0uP6Pt2F8waLkWukwyw7Bl7rA6nwgXdwesWbIO7fouRcsBS9C86zJ0m70PqzyS4OzvgU3rTdFt8A6Mn/sLBk5fhtZ9pqHNoEXotsEbO8/kw9X1HHTWbkT/SUvRYvRytBz4C34caoT51qE4nnRNdR1KXDdBEARBEARBEIT/Cn9ZWAPTruOISxJGjdiDCZvcYJtyHed4mG7xNspQ2QJlfqV35AW4+yfgoGsErE7HYP8RN5jp6KL7ikOYYuGNg/b7MHWEJkncEezwSYGtSzR0NthD02Y/tp9wxM8TjDF3w0lonomH3elA7LW3w7RFZhi64gwsz1+AZ/JVRUj9YtLh6XkCP9N7wxa7wiaY6pxEoqrUKZ/qcoXqHQkT/QOYOlgf680sMW6j9TOE1RYDpthhma0bjO2OYs5oIyw08IDuuQQccPSCxR4rjPzZBjN3nITxXnuMH7kTIx7VPYrqbofNZu6wjkzE0ZMHMXWWPgYsOgVj11A4uDpg9mJLDF1+AsbuLti4fDWGjNaidkjEbtckHLYww4wlmuhMbWp67BS2/bISbXuvxAhtf+xyz4bzKUfo79iJdtPsMNvUCQYmezBskBYmarpAPzADNkcDsH31Hmy194FdwjWcjcl/fE0EQRAEQRAEQRD+Q7yUsAYkX4dH+EVl42L4sSwH3FIxcOpxTNfyxYnkAnhSQedKbMMLNZ2Npv2T8uDl74cd280xfrY2Rs/ZiEHjFqD+EAOM0D+NPUetMbbXQvzQdhsmmUXhUPo9+IZnwTfAE6Y2ZhjQdT5a9V2J3ksNMGqhJkbPXIpv2y1Bs1H22OaVCdfUa/CO4eG8qTjrdgwzl5LErfLC/tA8eCfywlBcFxboy/BLj4bprv2Y1V8Ha0lYx26xw3CS2z3nc0l8ryMonITV1h5DZuzFavNj0DLQQ4/289B25Ab0W2aIsQu3YujkxWjUei36LrPB5iPWGN5nEZoX1z3tDtU9Ha4+qXCLScMZLyfMWWJLYhwEx4RLCA33wMo11hi19CAMju7DlFlaGDb/JEzD7sIv8x5iQ92xfbMuOo00xxpzeyzerINeEy2x/lQe3DKA5MRYnDxgi36T92CO0VHssjRC7zbz0bI3SfWRdDhl3IaPfyKczyfjVPQVnOEL/cQ1EQRBEARBEARB+G9wJuKi8sSZVxbWABLWQ65JGDVxL2ZsP4fDiUXwImH1jryoFKosGMQLAMVkwcnRGds3aWHIlC3oNmE7Bs8i+Zu6Ej8M0sNY7XOw8w+Gke4ezJiqhRELzDBX8yhWmgXCxtELZiSsfUesRUceQjx3OwbM2or+MzUxYLoZZmt6YnfABbgmFMArihdpysBZX0fMn6uHoTMdYOJ/CR6JJLNUp7ORPL/1CoJTwmGob4+xwwyx0dwKU1hYl7rBmoT1HAtrZBj22h/AMBLWNXr7sc3IAF0GrUG3cSTZfPyZWwktDJppg+XW52HpHwR9nT2YWVz3HYex0tQPxq458IhJgbuHA2YstMSotT44HJoOnwAXLF1NwrpgL/T22mEMieuU7Syz+fAhuQ6ODoSRpgUG/aSJBQbmmKi1D0MWusHSOxvnUosQGBmJgwf3YcQMOyzY7YsD3j7YucEYE6fpYPQSCyzQOo61FsHY45kF17grOCvCKgiCIAiCIAjCf5S/LKx+KUU46RaLZeO2YfgsW6x2vYjTcddoW9VKtT4xBfAMTIPXeXds36qF7gM0Md0sAvZx9xEYlYjTx+0wdtZuEjkP2AdlwjGCn5+aimMnDmPuqBVo2XINRq/dTVJog76TLTDfIAjH4q/jHEuxMieViFZ1EatgQc7F2YgA7Fi2HSNH6GLO/hQcjCpCENcpqQjn4y/gnPtxrF5vjiHzjmCX/T7MXU1yON8VVsFX4Jt1F+HhwbC1tMKAabb4xegANhtZoO8EG6zZFwcnlnLluPnKT++oC3APycKpIBL04rqPXIaWLX7BgPVnYBmVCuezxzFzzm4MX+mLw1E5OB/ihhXcw7poP/QP2mPCfDOMWemBvVRP39QbiAj3gs42I/QcaIDlJtaYpWlL9TsNs3NZ8Ey5gaCICBw8YI/h023ws64vjkXm4nTEJXjFx8LOyhLjei1E8w6bMM7AD9YJV3GG61viugmCIAiCIAiCIPxX+MvC6pVQhDP+8bDdsQ2DBqxE54WnsSsgDx4p1+CfdB1u3qmw1jsIc/vdmKdlhq5j92LDsTR4XgLCIuJx3EIHfSfqYfCqQzA77Y4NhxJh430ZgQkpOLD/JOaNWY+pawwx18IOI4euwrjVbtALegj/lJsI5Z5GqtN5pWeV6kPCpjwnNrYA56KzccJqN+ZMW4U2809i8+lMeJHo+Sdfwrlwf2ivWINhY3Ux1TwG+11OY/lcXfSZeAja53PhnnkH5z1coLNhE9qMt8R8O1foWxhj1MA1mKQThj2RvyGEpDKYCCRComJwwtkd6/fGwupR3U9g3ug1GLvsIHb6peOk+wnMmaiN/rOdYBaWgbNBrli+0gojVjjA6LQDFs9ZiQHjTLHc6Roco6/D32k/lq/agTYLjkLL/gjWbiV5nusIE88snH0krPswjIR1wfZDMHX2wvpDaTgadAmBMXEwN7LD9GGrMXGLE3RD6LpFs1g/vm6CIAiCIAiCIAj/FV5KWP2Tr8E9LE/ZuJiz/LzSyAs4c9YLWmu3Y9DIJejysxYGLtHH+MW6GDRrF7pPM8c6e0+YHnDArBmrMXTWFgxdYogJi7djzM+r0HSgHkZtPAij43aYNGMn+gzXxLgVtP+qXRg63wKLzf1g5e4L4x3bMWr8enScoI+RC3QwepEOhizZi/mmwTgQlAvPuHx4cp0iebXgfHgHRsDKfA+mzFqHvrNIqBcZY9xyHUxasR4Dp+ti0lZfmPsV4ExoPKy0TTB5/Ap0n6uFAYsNMGXJRgycvBrfDjHHPJsQHPNypfNbh35jtqDLZH2MXqiNkYv0MXTlcWw+4AGrE3aYOHUHepes+wJzLDAKwIHQy3D3D4fWii0YOOBn9FqijSnb9NF7ohEGLCSB9QrFPjtTzCa57jhuFwbOoX1HrESvGWaYejAMRz0dsWaVMX6a5gCDM5k4owhrKPbb26D/eAvM1TmAXfv3YNiY7fS3Niau0sPY5XoYvsgWq2wicDisQLnInuph2oIgCIIgCIIgCP8lPMLzlEd1vrKwnonIw9noApyLvQpvz3Mw3Lkd/SasQrsRv6DLyKVoz8863XIO+mcL4OsdhN07N2HElGVoPXQ5fpqxBSM32mHcKidssfPDvnNnsHnFTgwZSvsNX4pOEzdh8E5v6Jy5isD4C/AL9MK2zbroP3w5uoxagU6jf0GbCYYYt9MXdgEXlOeNni2uFwta/A34BEbjkIURJs5ejfZD56FZj/Go22Eh+msGYU/M7whJv4WghEJ4nzkLA6p73/FU5rDl6LtQR5HoKWtcoHMkBeeSsuB21hm/LNuGXkOXofPo5eg4Zg3aTbXGAlt/2HudVeo+9A91vwzfOGobatwThw9i9ZLF6DVpLQauNMeoVQ5YrBuIg4EX4B8XCUtzS4we9ws60/m1HroLE7b4wDYihyQ8ANqGDpi33Rs2Ptk4k3AVfhFxOHbKGYs3O2HbYX/sdXbEitmb0G/YMrQbtgRdputgjEk4LHyv4HyMyKogCIIgCIIgCP9d/oawMpdwNuqK0tPqHpSK495JOOrFJOKoTwoceEGk8MvwDM+Fe2AqTvjQe+eScIzeOxGQiVMB2XAJoX3Dc+B8nt5X9iW86X2SOd73XNQlIhcugWk4Tu8de7RNGk7458AtnOrxtJRRnRRRC82Eo18qnM95YpeBKfqMM8YcAz/YB2XjpH8mnEPz4BFxAW7Fdae6Ofil4WRAFpwCcuAaQlKuDDlW1Y+Przq/ZDp+Ok4F8fFz4PKcuhcvdnQmLAvO/slw8E7GcR4m7J+F00F03tR+56Ivwj0kAyfp+HxuR7yoXGo3jyjuMb4AlyCqSyAfh9qfy4vIhUdoNk4HUtuFUhlh9Ltfiqpu5xKpban+wXlK2SKrgiAIgiAIgiD8l/mbwqqGn3Eap5q7GkD4JxXRT/o7nl4n8ToTeYXev47zifR6chH8E+n3+EJlDiovoKQM4+UVhem9AGVfej9Ota8HidcZXlApnsor8X5A0lX4xanFlKX1iTqx3JEwxlKZiTcQnnEVrm5eWLtwJfqPno+2I9ai92xzLD8cj4NRN+BLx+Z5uly2P9eD6uaXQMePpmOHs5QXwIdef+L4iYXw5boriz09u+5KPag+Z2MKaf/i876qnLevuu4eETz3ll5Tzon2p7b2o3Y7x+fNC1HF0rb8t3KeLNj8qKB8eo3aLprbjupG5T6qWyLVJZa/ROCyS7aJIAiCIAiCIAjCf4vXI6ylHM/YIpwJTMYh2z1YsnoHBkzXwbiVB7DpRBKORBQqcneWhfAZ+wqCIAiCIAiCIAj/Dv8vhFWBh9M+vVrus7YTBEEQBEEQBEEQSgX/r4TVM6YA3nGF8I0vhI8ybFekVRAEQRAEQRAEobTy/0dYBUEQBEEQBOHvwOum/F2eVa4gCM/lucLqcU6EVRAEQRAEQRAe8SwBfVWeVa4gCM/F/VnCevfB73A+4wfbYmFNuga30FzFbp+G54IWP75FEARBEARBEARBEF6FR48DJUF92jfdwnLhGXUJkTm34V4srFHZD7DvpA/2HvdAWIYIqyAIgiAIgiAIgvDmYKd8aWFNv/IQh0/7ws7h+cLKBToHZ8PqdCR0DvhCa58gCIIgCIIgCIIgvDomx4Lg4JuqyGtJ73ymsPIcVveSc1ifIaw+sfk44ZeGdWYuWG18Anr7PQVBEARBEARBEAThldhm5YJleg7Y4xgBb/LMktLq/jLCGpB8nTa++ESXrW9cIY75pmGNqTOOnQ3H1aJbgiAIgiAIgiAIgvBKRCZlY5O5M0yOh8InroAE9fIj7+Rhwl4xV/78sTZ/Jqzcw3o2OJF3kUgkEolEIpFIJBKJ5JVyMf86tlu7w9jhDQmrq3+cciCJRCKRSCQSiUQikUheJRm5+dhm5fbmelhFWCUSiUQikUgkEolE8lciwiqRSCQSiUQikUgkklIZEVaJRCKRSCQSiUQikZTKiLBKJBKJRCKRSCQSiaRURoRVIpFIJBKJRCKRSCSlMiKsEolEIpFIJBKJRCIplRFhlUgkEolEIpFIJBJJqYwIq0QikUgkEolEIpFISmVEWCUSiUQikUgkEolEUiojwiqRSCQSiUQikUgkklIZEVaJRCKRSCQSiUQikZTKiLBKJBKJRCKRSCQSiaRURoRVIpFIJBKJRCKRSCSlMiKsEolEIpFIJBKJRCIplRFhlUgkEolEIpFIJBJJqYwIq0QikUgkEolEIpFISmVEWCUSiUQikUgkEolEUiojwiqRSCQSiUQikUgkklIZEVaJRCKRSCQSiUQikZTKiLBKJBKJRCKRSCQSiaRURoRVIpFIJBKJRCKRSCSlMiKsEolEIpFIJBKJRCIplRFhlUgkEolEIpFIJBJJqYwIq0QikUgkEolEIpFISmVEWCUSiUQikUgkEolEUiojwiqRSCQSiUQikUgkklIZEVaJRCKRSCQSyX8qv/8O/Eb/99tvKn5VU/z377yBRCL5n4gIq0QikUgkEomkVIf988bte8jMu4aQuAtwDUjFIY847HEMh/HRYBgcCoIhYeYQAtvTkXA4Fw/P0HREp1zCxYKbuHPvobokiUTyX4sIq0QikUgkEomk1IV7Si9cuYEgElQH7wRYngrDDltfLNrlggmbjmPwioP4acFedJptjfYzrdCB6PqzDfosssfwVYcxbdtJ/GJ8BrsOBMDWOQouASmISb2Mqzfuqo8gkUj+CxFhlUgkEolEIpGUmty7/xBXrt1GYGwODI8EYerWk+i5aC86zLJC62kWaDHFHC2mmqMV/d5mhiXazdiDdjPV0O9tplui1VQLNKftWhK8Tac51hiw/AAW67vigEcMErMKUHTrHh7++pv6qBKJpLRGhFUikUgkEolEUipScP0OXAJTsHGPF8ZvdED3+bYkn+ZoNnk3mk82I3aTsO5WXmsz3YIE1RLtSVTbz1JDv7el11hsW9I2vL2y3yT+uZves0DfpfswU9NRkeHQhDzcf/Cr+ugSiaQ0RoRVIpFIJBKJRPKv5s79BwiOz4X+4SCMI1Fl6fxuvAlhihaTzenvPUoPazEdZ9NPNfz70xS//mifmdw7a4kfJ5nhu3EmaErldp9nhwW7XHDAPQapF66qayKRSEpbRFglEolEIpFIJP9a8q/fhtP5JMzVdUY7Estvx5mSWO5Whvby3NSSdJhljfYEb9eGJLYVSSgP/22pRhkmPH0P2vL2tB1vr+xTogzuheV9mo43w/cTzNBn8T5ss/UlYb6A23cfqGslkUhKS0RYJRKJRCKRSCT/SrIuFcHyVDiGrz5MkmqOpiSQLUlCWTpZSothAWX4dZbUFlMs0HyyOZqR2LLc/jhRBf/NryvzV6fy0GBVWW1nqMphYVXKI9ltTULcnMr5jsS1NW0ze+dp+sCbosxtlUgkpScirBKJRCKRSCSSfzyJWfnQtD+PHgv3KkN/vyW4l7SkoLJYFv/O73073hiNRxngu7FGaDPVDD3mWWPA0r0YvGI/BhH9Ftuhy2wS2kkm+Ga0obLtt+NN0IzEtDVJ66Ny1XAvbTOS22/G0jYkumM3HMPBs7EoKLqjrqXkUX7/HXfuPUDWlSLEZBUgLqcQ8SW5UIi47AIk5BTgQsENPHgoc4MlrycirBKJRCKRSCSSfzSJmfnYYu2D9nOs8eUoQ/wwaTcJpSVJ5B5lVd9i+LVWvOrvNAuSVwv0nG+FiesPYaWRC/T2+8LWKQxHzkbD4VyswiGPKFieCMIOm3NYoHMKw3+xR6dZ5mg63gjfjDFSzYkl8eUeV5bV1ooQ71GOwcL8NYnroJWHYO8WLY+/eSq//vY7kkhKtY8EYrLmKUzddRpTDVwwVZ9xVqHjiGn0ut6pUFy+flu9p0Ty9yLCKpFIJBKJRCL5x5KeexU77PxIGK3QmHs2p5grw3NZGltO34Pm06zQbJq18rMV/f3jZB72a4qBS+2gaX0WPqGpyL5YiDt37yu9fk/nt99+xfUbt5GYfhGOPrHQsjuH2Tsc0G+RDZpPMkGTccaKIPPQ41YkrHxcFuOW9PMHOlbDUUYYsOIgjnjG4/otkdbiPPj1N5yNzkKHRbbQaLkKGp03QqPHZmj8tAUavbdBo9dWaHSl13puRc8NR5CcJwtZSV5PRFglEolEIpFIJP9IrhXdhfGxEHSYY0Oyaoqmk8wVKVXJqiWJqhWaTrFBk8l2ys/mJK7fTtit9JBO3ngIHv4JePDgobq0F4Rk9jZJbf7Vm0jNycdxzyjM1TyGNlNN0Hi0Ib6nY7egY7MkK724RItpPOzYDN+MM8XQ1Ydx2j8Z92VoqxIWVo/ITLSZZwWNH5ZDo906aHTaAI3um0oIK/2uCOtREVbJa4sIq0QikUgkEonkjecWyeN+92j0XbYfDUYakqyakTCqRLH5tD34dpINvplgjVZTTNB5hh5aTjHFNxNt0GgcvTfeBH0XWuH42Wh1aa+eW7fvIjwhG+YOARi1ej+ajDHAV2OM8MMUC7ScsUeRVa4P89VYYxJqY8zc6YTAuBx1Cf+/8/DX3xGQmItR24/jo+G78NkEY9SdbILqo/VRdrA2NAbuJHHdjnL0c+DW40i5eE295//f3Lj9AI4hadh02B+bDwVgy8HzMDkdDn9qx3vyRchLR4RVIpFIJBKJRPJGwwvwBJD4jVp/FI1GG+G7iaYkiNzDaYkfp+7Bd5Ot0GKyKcYuWA/NzVNgtnMktmychhHzN6A5CezXE8zReIwh1pi6IievEDdv3VV6TjNyC5Xe0+RsFWkXCpB18Sryr93Er88Rgpskrk4+MZi2+TCaTTJGQ6pP08m7SZpZnFlYLUhid+MbkuTv6fUNVl7IuVKk3vv/b377/Xdk59/AAe94bCTx2n4sCDuIflscUHGYLjT67lB6V8sN2IkBIqxKcgpuYqaJO6pS+7w7VBfVSOa//3kPdE+GoujOffVWkhdFhFUikUgkEolE8kaTlFOIDdbeJIQW+HKUEZpNtUBzohkJ4teTbPDjZDNMX7ICbqY9cPPUF7jn/CmuHm8IR6OemLp0Jb6duBt1R5hh8Ap7GB/2g4NnFCxOBGGDhQdWmrhiqaEzlhm6YBUJ7ZY9Z2BxPAB+EWm4mH8dd+/98dmqD+4/QEBkOpbsckTzySZoSDL8wxRzpT5K3aieLLH1Rxjgp8X7YOsSJY+7obC0Pnj4G+4++BX31GgdD8Y7o3ZBo9c2ZT6rIqzbRFg5mVeKMFLLUTVUustGaLRfh0/HGmDj4QBcuy3308tGhFUikUgkEolE8sZy9/5D2LvHoONcGxJDYzSZYIYfSQp/JEH8fqolvhxvg74/b4ODYR/cPlUPOFMTcK8NeNRC0Yn6sNIehvbTdPHF2D0klBboOtcKvRfZotOcPWg+ZTeaTTFTekR/VH7fjZZTd6PDbAsMX7WfZNYF9s5hSM26QjV5coEmngsbkZCD5Yan0WyysTI8+DuSVBbWH6eaKwLbeBy9PtYEk7edQnjyRfWekpLRdwwjYdUTYX1GWFhH6zpBo8cWaHTfDI3OG/DZBCNsPiLC+ioRYZVIJBKJRCKRvLHEZeZjvr4rPh9hoAirIqokht9PNse3k0lYx1lj6tJfkH7we5LUmnjo/CnuONXDb/QT7jXha9EB/WZvRqPxVmg8wRwNRhrg82F6+Hy4PuqPNMQXowzRYLSxAv/OvaKfDeX39dBknCF6zLfCLySlHgEJuFb0x0ethMZlYZ7WcXw1Wo/qZ4Tv1fVjYWUR/ny4gTLHVe9wIC4W3lTvJVHld+xwCEKVkSKsz0rmlRsYp+eszO1V2qfHZtSbbIJtxwJxXYT1pSPCKpFIJBKJRCJ5I7l77yGsnCPRbeFeEkpDfDPeVJFAFsKmJKxNJlmiwVhrTFi0GjF2rehDZm387vYxHrqQrLp+THwEd9Ou6DVzK4mtFb6h7bkX9LtJqv2bklTy0F3lp8Lj37+lbRqNNVbk9suRuhi+ci/2u4TiSuGT81F/+/VXuJPMDvvFHo3GGKLhWJ67Wiytu/EliTCL9vC1R+ATmaneS8L5nf6nKcL63FwpuoNJhq6PhbXbZnwxxRRaJ4Jx5/5LrnYtEWGVSCQSiUQikbyZpOQUYo6uM74YbYTG400UiVSEU823JIb1xtig63Qt2GgNRf7xBuohwR8RtXDxWCMYbBmNFhP18AWJ7XckosX7quRU/Xsx6tdYWJXyJ5rh6wmmiix/MUIXPedbYq9TMAqv3VLXUJWrRbdg6xiCDrMs8OlQPdpXtT+X+Q2V0YDqz72sNi6RyuNd3nR48PKvv/2Ou/d/xfVb90h8biP/xm3cuHMf9x/+pswlfVPhkh/SOd66+wAFN+4ox75x975Sn6cP+6aElc+PV9Etun2P6nAbV67fxjVqB54z+xvV403kd/X8XG7j4vPmXtD71BZ/tb2vUDmTDd1KCOsmNJhqhp0krEX/0KJLXPNfqf7cbnyOLxs+54e//Ybb9x6g8KaqPfjnTboX+P74i03ylyLCKpFIJBKJRCJ57blJH8gdvBPQY7E9Ph6yC00UWeWeTzXK77vRcLwVvhm/G0N+Xg8b7UFIPdQEV45/iYT938Nk+3D0n7URX9H7jSbsUYRV2e8pVIL5jNeV3lYLfEPH+3ykAeoOI2ldsAf7XcNw++6TQzLTcvIxa4cDvhypj4bjTFX1ZfElvhxjTNJtjEVG7ojLyn9jH9ZvkiRy+ccDk7HrZCh+sfVWVpmdYOBM4uOMubvPYP1+P1ifiUFw8kVl+9eZ1LxrcKBj7zgWiAUWZzHZwAUT9J0xZ7cHth4JwFH/JKReuq7eWpXXJawsU5mXi3AmKgu7XSOxdr8v5pp7UB2clTrMNHHDSjtvGDiFwTU8Axde0/DsG9SG4WmXsM87DpsP+WO+xZlH5z3L1B2r7X1hfDoc7hF0zPwb6r3+GJbdnPybOJ+Qqzyv9lxsDo5RW/bcdBQafUlY+xA9t+Dj8UaYYeqG06Fp8E24AM+YbJyJzqLzzkQsXXv+d1Ocm3ceID6ngIQsG+5UJm/LnKXtvan82Ox8ReqfFf6CITn3Kk4GpWLXqVCY0jn4xuc8d/vi5BfdUe6tvefisI2u+WIrT0w1dsVEao+pRq5YaHkWO44G4rBvAuKyC5QvUN50RFglEolEIpFIJK89ufThfht92G823QKfDtNXBFARSbWwNp5ginokkfzex8NNUG+0GfrO3ow1a2dh59YJWL56DrpP30ayaI6vJlrQ/k/KqArV619P3K3QhF57lrgW04DE86OBWhi+yh5ng5Pw4MHjR9/cu/8A+1xC8dNCG3w2XB9fTTBT9+haoBEJbN2Rhui+xB57PaIVOXldUcSCRJElddvhAMzQP43OK/bh88mmeGf4LmiQACqPjOm3A+UGaeH9UXr44ec9GKt5EtsP+8MzOlvpAf07ic8phDWd1zySwk7L9+KTCUYoP0hbOSYfu8zAnag1zgAdlu7FfNrmIMnKxauqXmpD53BUHvnXVwnmYbOeJGBGjqFYZH4GAzYcwdezLPAenSefr3LuzABNVKX2aDDNDL3XHMSyPZ5KPXLV9XjVFJEYsvxxm0/UOoWWdN1rjjVA+cHqY/Yh+u/Eu3RujabvRr+1h7CMJN7qTDQSLhQq161krt2+D4eAFEzXPY1+K/dj0Oaj+GntQdSZYqrUXaH/DlQerouv6fr1o/McTu00aNMxDFh3GP3pnDSP+FO7XVWXCOW+0HIIwgiS3n6rDyhlDqTfB2w8giEbj2L6LidonwhWrl/JxJHk7naJxM9GbuhK91I9unbfzzLHlkPnlYWgns7dBw8Rnn4ZNmdjsMbOG2N3nkSLBTb4aJwhKg7VoXpT3blN6GeFwTqKdLdbbIcZeqdh6hyBqMx8pTf2TUWEVSKRSCQSiUTy2pOYXYBZOqcVMa0/ygjfsFCStH5D8DDd7yaZov2cPWhHcvLVeGPUHcXsxpdjSVDHmdHP3Wgwjt6bwFKq2rcYLuOr8abqnk8j1B9tSMcwxBdjjGg/Yzqm2R/2+XYyS60ZSbIRGo7SxzztE0jN5t7Sx+KRmn0FC/Sc8OlQXSrHhPYj0aV9uTyW3cYTTbHO2lsZpvt3w4e9dusuzkZlYtHuM2g82wIVWZZ6blU9BqXrRmXOo2qF2WLob4ZeK0PbVRqoiZ4kOof8Ev5Sne7z83ETczHb2A2fjDdE2T4snVQ+iecTdFfXhyhDx/5mtiV2nQjBpWu3YeIaiWpj9F9ZWHl4bwKJlv7JEEXQ3yGRK8O9kD3o+Mq50zGV8+XjE/y6+tz597K0bUMSSc2jQcjOv/lKvd48vHi/d5zSdhVJirktlbKVYxJ8rOLj8TVQH7csSWydiUaYt9sDQSmXnpDWvOu3SQgD8Ak/k7bZCmh02aDaj0WPxZvh60vyrwwR5mPxo274WrdbB43WqzBo3SFyqzx1iYB/0kUMJkktz9u1XKnah+vVayvKUFuXob9rkFSakDRyTXgYb1jaJcw2cUVtku+yfBxur9arUb3fDsw1c0di7mMh5mHCeVdvKuI/Wusk6kw2Rln+kqIn7aPcg0Rxezy6B7n9CTp+WeKjsYaYZuACf7qP3tRweRFWiUQikUgkEslrj19MDnovP6D0TPIQW5ZFpuE4EzQca4Q+S+yw+3gQDrpHYo7WCTSfaopPRxjjs9GW+HyslcKX4y2UnlOeR1oMl9GIZLXuSH18xmI5Wh/fkkQ0IeGqP1IPnw7bRQJrpEhmyX2Kf3LPac0B2sqjb46cjcINksbicC+rzn4fNBqtp5TB2/J+XNaXVO/PRhhg1i4XZF1+cljsXwn3SPGwzr4bjuAD7kUlCVFEoAsJQieSnc6EIihqQWD472KJVUtWxd7b0G7ZXhwPSH6lhXx4HiIPXR24+RjeG6L9uEy1eD4WOPrJ4tKZpInrxJC0fD3THDsdgrHMzhsfTTZVidkrCGvapevYsM8Xn5FwvfWT+txZjrh8Pn+WNLUoPnqPRZZfY6FSpHIrPptogvX7zyO38OV6Wq/S9ebhrm0X2aAiny+Xw+UVl68WQg1qV6UdisWtuB7EB0N1lOHCaSXOMe/aLWw8eB41WEi/XQKN9mtV58LlFAvrEIJ7WrncjiSp7YkO60lGVymS23f1AZLUx8J6PjEP/TYcVm33/XLah8rjOhbXryPtS9drpY03Cm/eQ+KFAkzSP626ntxOfBw+xzZrULWfJuaSaCfmPRbWW/cewMA5XPmy5J3ievH5c9tz3ZVrwOfObU2UvCe4zfi60b1QfbA2puqdJom/+MQXQK8rIqwSiUQikUgkktca7nly8E1Es5l7UHuoHr6ayMJqSgLIUmqAbyYYYwl9wE3JzsftO/cQlpADs2P+GLBiL74cY4CG402UbXkf7qFV4P1JHlkk6w7fhXb0IXum5nFssz0HsxOBMD4WgLXm7hi9/hC+m2iMOkN3ocFYY+XYvG9xOV9PMsNHQ3ah0VhDrDByVnpVS4YltstckuZRBqg/xkiRXN7vS6rTR0P1MWbzCUSmXvrbH8y5jQJITlou2asIhUZbEhwShHIkPA1nmKP7qgPKkNHxOo6YtOs0xmo5KkNBG5IolmHB5SGrJCHck1eG5GUsbReRcVld+ovD8ycHbnVAeRZNFhP+yb1rJGRl++9Eg+m70fWXfcoxB2w4ii4r9iuvKdtxXWm7r37egx+W2OHD8UYqESM5UoR164uF9fL121hFsqtIUgsSNhY3Oo/aPNyU2mQQifSYnacwSfc0Jug6KW3RerEtqgzXVcka15Xlmvb7bs4e7PdJUBYIelF4GHC3tQdVvarKefP80m34cIw+Oi63xxitU5hh7IbZph6YauCsDFH+YpoZyg7iNqdt+djt1qIhvcZDaHmRJg732h72S8QEzRPosdgOvVYfRPtl9qg1Ud02fM36a+LtYTr4cuZudFu1H33XH0bPtYfQ45f96EHbbtnvh6QSPaDcG7r1kD8GrjmIXsv3oR1t8+lkE5Rn8WUxpnOoQPfAKhsv+CXmYuthf9Ti3u62dD+xZBd/4UH1rULHV4S1RPncy83C+tF4Q9U92Hq1IqPcxj/Ms1LqN4rOZ4KuIybSNRhDv3ej+7IO/ftS2q0XtwdB7fghndcSqgf3ur/uiLBKJBKJRCKRSF5reHiqqWMYGpMc1iJxZGlkGo43Rc3BumhJ0mVIH67zS6zWW3DtJlYYu6D+CD3UIyllaW1EosiwvPL+dUcbKvNeey6yhv4BX4ST6BZev6XI48Nff0Xu5avwDEnBMgMnNJtiovTCfjFOJa3FZTWi3z8fY4zP6b0+S2xxNjhZXQNVgmIzMW3bMTqOPuqM0CfZ5V5ZlbDWJNHtt/IQzoZlKB/2/24Kb97FugPnUYfkucpPW9FgiilGaztC91QoToemIyg5D7HZBUi8UIjorHx4x+UoC+h0J+F6e7C2ShZYIHtuQZ1JRjBxicADaocX5SJJBS+eU55FioWmeI4iydhHYwwwmIRT+2QoToWkKsfknuATQanQPhGCfpuOoAbPWWXhI2EsO0gLFXgYLAsU/f2ywspxDk8nYbfDO3zcobroSvK2Zp8vDpL4+SXkIirjinLuPEczKPki9nknYILeadQeR4LFssr1pvpXHaiFMSRUJWXsWSkiueQFgyqTXKnOe4cyBLYGSd5UAxccDUimY15GZv4N5BTcROqla3Tu2dA6Hoz2JIwV6TiKKJMM1hixC4v2eCKbtuM8ePirsmiUDwmxc2ga3CIyYOMZi84krhp9qa4seNRmH5McTjVygUNgiiLPrrSdc1i6sk9k+uUnFkW6fuee0gZnIjPgHpEJezr/SfrO+HCUnkr0qQ0qDdLGErqWmseD8MNCG2XINn+J8TZdl88nmaDlUjt0/GUfRm8/rixmdUFd3+LEU/vyEGduw2ok5M3nWyu9x5Ye0ThL9QtLu6y0P8/b5bZxDEnD+gN++GGuFSooX3LQNeA26bQBzen456i9uPf+dUaEVSKRSCQSiUTyWpNK4rDW2lsRxE+G6yuS2IjErwFJ34cDtdFx3h7sd4/AjVt31HsAV67exCKD08qQXhbWL0luG9L+xSg9nEN00X6OBWwcQ3Cl8MYzezn5w3JsSi5WmrigyQRDklYDOu5TZU0wU+r1NcmD+fFA3CmxMmvWxUJstfJUnslam2Sb6831V+pOst1poR0OnI19LfNYua5+CRcw19gNwzcdg5lzuLIK7+17D5X5gCUfp8K/ca8sv+dE0tB6qT3KsjAwPKex91ZMM3BGGknWn+UW7W9BMtL05z2q4cUsUiRu3Ev7+WQT/GLjpYhTcR34mAz/zj2YwSl5mL/7DGqMNSDp46GptD8Pd1XPzXwVYc0gwdMi0Rq11QGrrc8hMClPkUqeW8uPYil5dZVH3Tz4FTHZ+Zhp5IpKLOzc48n177EZjWZbkkyl/ulcVpauWYauqrmdPJyV2u3dYdrK/M3A5Dxlxdund+dz56GzRqfDUYcEUBHd9uvx7hBtTKN6pNM5FKf4UTDcVnxt+b3ROk7KcRTBpvZuMMUMOxyClC8ruGzejrcvbuuS9S++5rwNl5t/4y7M3SPxBV0nZYg2XftKw3TRb/Mx9Nl8FBW4Tbptwkdj9TGI2lTnRAjOkXQm5hQgg+6rS9du/eGLFi6fV10etO240pN/MiBF+UKDF2J6+Iz6cD15WLWBUyiazLFUeqeV60D1+XyCEfTo3yavNPw6I8IqkUgkEolEInmt8Y+7gCnaToocfsZzWCeYKL9/Mc4E7/fXQvdF1nDyjccd9eq2LJ7xGZcwcZsDag7WQb0xxoqgMrwv78e9nV+NM8QSktqM3CdXRb1eRB+wS6yU+zt9uOee0xFr9yuPs/lkhMGj8lRlmuHj4XqoQx/2V5m6UnkF6j2hzGm1cgxF08mmqD1kF8ktS64JGowzxgeDdNFyjjXMToUh//rr+VDOEshCEZl2GYU3Xq5Mlh1+zEy9ScYqgeJhqiQqHZfZ4WRwqiJ8zwv3WA7cdgIVi4e3kqzyQkt1JxpjzV4fRepelMiMK1hocRY1+HE2LL0sq39BWLmeFwpuIIoEOfMV5gWfDE5BxxX7VD18fA5dN+IDqoveyVCSqed/kRCSegnjtE6hHAsr9xB33YTP6bxNXcJx6/6fDyd2DE1Dk59J0Hhu6nfLUIHKGE+C92dfEHAv7RhFWKmOamH9YooptE+GKEL4qrlL7WXvFYsvp5qqhJXaujzdw59MM8N7o1W9rl+QVK/b56v0jF66fvuJLz2el6I79xFG1yAup/Cl50Gn0/WabepO11tTJeTdN6MaSfwkvdMvdQ+9SkRYJRKJRCKRSCSvNW4haRiy4ZgiqXVHGSoLFrEo1h9rrAhrn6V2ytDd++oP7Tyc0is8FQNW7scHA7WU7RS55AWaSBa5x7XGIB30WmKLk94xeKgWspu378E3Ih3bbM7C8LAf4tMv4ddfVcMRc0gkNludUST3w0Haqjqo4Xp9QsJae7A2pmw7pgwDLg7v70BS0GqmhSKsPKSY9+H5sB8M1FXm5eodC8Llv/g4ldcR7hXj3sjuaw6oFsDprRKGRiQuu0i2bz3n+awsiKdI9r6ic9PotF49FHg7qg7SItFwRnLuiyWzOMEpF9GJrhevVqsMCSV5elVh/avJJsldY+eDavzIFT5/kvX3huhgla03Mp7x2JbihKZdwnhtR5RjWWdhJYH8dLwhdE4Eo+gFjwbiHthZJm5oN98KLSebogcJ8/ajgcj7k/sg8cJVDN95SiWrLNZU13qTTbDtWCCuv+B5qM/KNdrH0j2KpNdEtfgSXbcyvMASf1lAbfDBiF1YvdfnT9vgdYU12MIjCtXHGKjaku6Dcv22K8OPeeXp1xkRVolEIpFIJBLJa41LcCoGrTuizENlYeXeSabeWCMS1p0YSB9qz0dmPBLPOyRYjj5x6LHYFu8NIGHlx9OMV+3D4voZlfEhvT55mwPi0i4q+3B40aYFu06ieu/NqDN4O3bt9yZZU4kHz4k1PxGI76eQaJJEFdehuEwW1lqDtTBy/QF4hpacx/o7Tp9PQLufLVFriC7qUV14ny+o7h8M1MGPMyyhcyQQl/5FYeXwsMvRuk7quaREjy34dIIRNh/2f7QQ0NO5XHQbOseDUJcX2WHhYXEjmeIFduzOvdpndj7GKnsf1OKhwVwHll8q758QVhZ2K/do1GRZ4oWFSDyrkbAutjyL5BKr4D6dtMvXMc/MA2V4GKvSM70dbw/aqTwvleeQ8tDf54V7K3ku7zG/JBzwisPJwBREqIdOPy+8gNKbFlYFuv4V++9QhgZHZT65iNibjBO1WX3+8oPPj7+4oHZtusBaea7u64wIq0QikUgkEonktcY5OA0D1x5BA5LOT3m13XFGCnXHGuI9EhsW1oCozEe9obdJfo57xaLbQhtUI6H9fIwhvhiv2oepQ2Vwz+uMnSeRkvX4A3lUSh5GrtuPcl3Wo1L3DVhhdBpFN1XDaq9ev4U9p4LQlIS1OknUF+qymC+oXh+RsNYgYR1O+58JSVL2KY5LAAurBWoO0UZdqgvvU4/rPlAb30+3gPbhQFx8yceovK7w0M5ff1PNc+TwcNOxu06r57CqBOwTEtYNB88/V1h5qOZ0I1e8V9wzSaJZhvYdrXlS6TF9lXB93CMz0IMXFWL5Y/l9Q8LKZ8zPDFUBFN2+rywgVJMXX1Iet7IJ7w7WxvzdHn86HPXew19hdDoM7/PwWT5/ajt+9msVus79NhzFId9EFN54/JijkuFh69xDzUNmeR4w/+T5nH824vYfEVYekku/fzvLHOb03s0/Eei/G771fv1VdQ04vBDXV3OtVNeehZXOkVeOdglLU23wmiLCKpFIJBKJRCJ5rTlNH2T7rz2M+iSGLJufjzPG5/T7Z2ONUK2fJvos2wtv+lDLQ4E5d+89IElMRM+ldniXhPWz0SSIvA9Rj8sYbYBqJKzD1x+Cf1SGIm6cvIIbsDwVgnGbDmO6pgMc/eIfDTPOvXwNO2zP4rPh2qjcVxP1J5g+KrP+eBPUImH9kIR1zMZD8AlPVfZRQgZyyjcerWZZ4MMhOkqdlf247iSsTWdYKD2sF99gD2vWlSJ4xWbD3isOhqfDoXUyGFtJcjYe9seGQwHYeMgfi6y98B0JvjIUlx9xQ8LwMUk+C2vRc4SVh7V2W3cI5bk3lHtFibcG7lQeL3Px+qs/juTS9VuqHkseEsxCRmKmCOtLPIf1eSm4cQchqRdx1D8JpiSlOnR9tzsEYfNhPu8AOj9/rLT3Rb+tDqjCc2h50SUSwZcRVg4PCx6x8yQqcC8rD4tWz4OtTPLHj81ZYH4W5m5RCErKw52/KX//iLDyHORum9B34xGld/VP/PmlwzLOKwM7079RqzMx2OUYhh3Hg7HlaCA2KNfBH5voJ/fw1+R51Hw/8fkRDedYKj2vrzMirBKJRCKRSCSS1xqP8AwM2+SgyGHtkfr4jH7WZfEk6XuHhLXrQmuc9k8gIVANwWQBDYjJwqA1BxRh/YSElfdR9htnQsJqiOqDdfDDdDMYHD6PWyU+7Bdcu4XQuGzEpeXhdol5iPlXb8DGKRhtZpnhHRK6D4fp4dOxJlQPE5JnE9QYugsfDNqJOVonEZP8eM7d/fsPsM8tEt9NMcN7g3RoH66DSrarDtDGdzMtoecQjMslHsnzd8O9pumXrsM/IRfWJAjL93hi0Kaj+P7nPagzjs59mK7ymJK3SAx4ZeAyLKgsWty7RtKtCMNLCOuZ6EySXGtVjxhLFAnru6P1FSm+r+7tfpXwdeN5nG+P2KUSlp/Uz2F9RWHl4bahqZdwPCAZm6n+47VOoS3JY71JJsq8zCokoxXoHMuRGJelcy/DbcDnzMLG5/8KwnqbZMyN7s8B6w/hXRZt7mlleGhxj814i8rk5+CO1TwJg1OhOBedrYjglaJXF/o3Lqx8/UnY+QuI2WYeyuq9fzU37z5Q2o7bxsApDHOM3PDTqv1oPGM3atI9UnWIDioO3PnoHlTuQ24/fj4tXwf1lxYirBKJRCKRSCSSUp+wlEuYre+qSN4Hw3aR9LGAGuGTMYZKb2fbuZY4dDYaN0p8aE8kKRi75RgJqyY+GmWg7FNMnTFGqDVCHx+SlAxdvR9BJKjF81+fFx6ymn3xKvQP+aLVzN2oSqJck6SVpZlF+IMhuvh4qDa2WHvicsEN9V4q0dU95If647hXV5vOgcWZ60B176+FH+fsgfnpCBS+pkd38LxJnvO3wuocuq06gFp0rLdYSHn13S4kUV03oQz9/hbJTnmS0goMiWZ5kqCy/AzMVxDWU6GpaDDbQiVPLFHEx5NNsc87Xr3Fq4cf9/Kh8lxU1TzaVxFWHlKbmFsI3RMhGLTFAQ1nmqMiyw8LZBcSMobOvxydf3kqWzl3kmI+/7e4Z5Vlie6JVxFWDj/axT0iA+N0HFFrjAEqscD33KLqdaZjKOdBbfQ+iVqrJXYYq+1I8hqi9PyyaL7MyrucNy6s/KUFlfvRBCNoURu+ZLWeCH9ZklN4A/t94jHL2BU/LrRB9VF6KNuT6kttrxyHKENCr9yDynXYiop8D1K7leEFn5R7UIRVIpFIJBKJRPIfCT+qZMv+84poViXp+3SsocInow1IWHfiBxLI3SdDSPoe91rxc1jn6jnifZKQGiP08DEJIkviI0YbKj2e9cboY5b2cXiGJOPevWeLWXF43uFl+jBu6hCANrN3oxp9qH5/6C58RGW9P0RHmd96wD2S5Pdx72Js2kXMN3DCRyN0UU3pYWVpNsTHXPd+O9F+0V4cP5/43JV4XyW5hTehRyLUcdle1Bq+SyWqLGlt16oen9J7O2qThLZcZIP+G45gzI4TmEiSNU3vNMZonlSePar0brG4kEi8SFgdApNRb4a5WlZJzkgwPp+xG0f8n5zD+yrhYbu1Jxiryuyx+aWFlaXRJSwdY7ROKc/vfJt76Ogc+BmnGm3XKD2e1Ybrogmd408k8iOozAm07RRdJ0zQPoX2y+1Rid5XZP0l57CWzF06flRWPsycI5Ry608zU0ll5w3Q6EjwlwUsryRlVUnK6lEdu689iE0HziM87dJLSeubFVaqH5XJc5CbLbTGft8E9VavFn78zWIrT+WZqu+zeLK0d6Lz52tAbVGezr3+VFN0oHt0yKZjGLvzJCbrOGGmgTN6rjuEGuMNUYaHpfP5EQ3n7BFhlUgkEolEIpGU7rCMWLpFkYiYoEp/rUfSycL6zgBtNKAP/2ssPXDhyuNnb967/xB6h3zReKIRqpF81Byhj09JeIv3/ZSoPdJAEc3PRusqiyWZHg+AV0SasvhSYGwWAmIylbmrT3c1XSwogpmDP5rPMME7JEaVeu9AjaE6GLH+IILjstVbqcJzaXsts8UHdByWW5ZVlmXu9a1Cwtpn9SGcj8t5NI/2r+YSybouSfvXM0kgWT74uZokq2XoQz8Phe27/jCWWnvBxC0SDsEp8KJjBqVcVJ6XGZWZT5/B8zCS5FWZw8pCRDL0ImHl55d+Ubyqq1pY65CoHfBNVG/x6jHhxY/oer6KsLLs8XNNe60/goosqp1JUjutU87hw5F6aLfEDjOMXKFD7XPALxHuUVnwT8pT5p9GZFxR2mDbsSB8wKsds2CR3L6qsBaHv3jgBafMXCMwVe802i60UYZhKyLMw4Q7ct0Ivj49t+Azeo+HLLOU3Xv453Nc37iw0jVkYe259hBcIjLUW718uH5LLM6gJos/96TyudI9WJHO/TsS2NFaJ7H+oD+sz8XCKSwdvgm5CE69hHC6BjHZ+dhNdWkyz0o1NJjlXoRVIpFIJBKJRPJfiVNQCprOtkKVgdqKaH5M0se8P0xPkcXBa/YjLPGCemtVAmMzMW7LUVQl6ak2WFeZy/qJej+Ge2xrkzhWG6yD6gM18fUkIwxaewCzdB0xZvMRRUB37j2HxIzL6hIf5zJJKwvxj9ONodF+NT4ZoQPN/d6KzBaHe2RNjgfiy3H6JMa6JM0GyjBmPnbNkfqoMkALI7YeR0LOq0nR0+GhsCeCktGUV1jtTh/0mb4k0kO00W31AWVeqE9sDq79yZxEXrF21m531dxBlraXEFZe1ZcFg3tuVdK6DdXHGpCsRSpDQ/9KdE6FKvNglfJIWl4krCyrqfQeD7MtrjeLTvn+O9BoljkWWpzFMf8kZOc/Hqb9rBwmkVV6dnn/vyGsJZN26RqVm4D1+/wwePtxfD3bAtX4OadquVd+0rHK0s8+G4/gbEyWch2el2cJa30S1u2vUVjLUrk839kz9skvXl4UnpO78WAA6rGcc4+qcn7bUGOMPobvOKEsPBWbla98+fS8eERl4YeFtijDw7N5tWYqQ4RVIpFIJBKJRPKfSEhSHnqvPYxqQ3fhPaI2SR9TaxTPBd2JxiSb9m7hTwzr5RV+LR1D8AUJI88X/WC4AT6i7Yv35aG8/LMm97QO24XqSi+oLj4cpku/a6Nyv+1oMFYPW2zOIjPvj+LCw4O323miwSgtdJi7Gx7BScqjUorD7y81cUG1AZpP1LkmSfJ7dLxqJLEz9F3+9grBLHOLzM8oCwkpwsXzAUn0Oq3cj9P0YZ8f2/LwBT24WflFGKZ5kiSRJEotiy8S1vMJF9Bh1T6U4/mGLF98XBK99fv9lNV5XzU37j7AL3t9UJaHJauF7kXCeo3Obc+ZaDThocksSlx3qkfjmRbQOh6MC4U3leG6fxae92tyOgw1WJQV4d+Md+n6/11h5dyle/DarXtIVcvrFH1nfDF9N8rSeSlDrxmSxXeo3SYaONN2j0cJPB0W1mE76RpxWyvCuoWE1fT1CSu1G8+1Hbz5KLyeGinwZ+Fb/lx0FlostkMZvv/4GvTZjrfp39NkPWeEp13+02fSFufw+UTUna4eSq0+RxFWiUQikUgkEsl/Iqn0YX22kRtqjzFEpQHaivTVHk2MMUJFllESjKUmzki7kK/eQ5Xo1DxM2n4M7w/RQoV+O2k/klySxlq0fzEskfza+8P18M4gHSpfC28P5O01lYVgGk3QxwYrD6RkP35ma3Ey8wqU1YNtTwfjUone1Ye//oYzwcnos9IeFUhK3humpz4OyfEIPVSh49SfZIptBwNw+28+7sQhIAVtltAHax5GybLQYwvqTTGF8elwZRXbF4WlisW27eK9UBZnUhYN2vpCYY3JysdYXUdF7pRj0z78HFIeChtN771KuEc2IuMyRrA0UzlKHfqoH2vzJ89h5dWQJ5EEVlFW9yXpov3KkbhPM3BB5pXH1+PPEpdTgLmmbiSNVAbPe+3xYmHl54deJ1nmR/Fcvn4bV4ruKMOB/2wqKj/ehdvM/lwsBpAUVuLn1/JCVyxoJIxfzrb806G4ydzDyu3D11gtrJ9PMsHWowH/qrDmF93FrhMh9G9JDxqdNqquQd/t6L76IJxC0tVb/Xnu3H8A7RPBqMzDiXmBJu5lVYRVFl2SSCQSiUQikfwHkk9SwB+KG0zdTR/Yd+CDkfqoQbJZgwT0nSG7SAC10XquBQ6ejcJvJXoTb925p8wj7bPCFhX6bEV5ktb3ad+aJI+8/4dqVGWpymOpVd4nqpHEcm9PvTG7sMrcFQkZl9QlP85DEr6bN+8oQ4CLk08is2K3K+qM1sfbJKfvjeD6cpkGeGeoLiqSdHOPsVtY+hO9sn8l2tQutZV5n+qeN5LHjisPKHL0Mimguq/c64OPxhiohK3fywnrhas3sYne/2SMvkp4WDJJplottsPRgFdbeOkhCaDB6TB8OZ2uL8sv9zyy+LxAWLn3rt0v+1Tn3ov2o/OvRufBj9Z52Rz2T8T3C6zwFj9Llc/hJYT10tXbsPWMxXKLs1ixxxMr7XzgGp6BByUW3Pqz8ErKTedb4y31efIXBR/QvcGrJN+48+zeyDSS8xFap1RCr1znrXiPJHGJjZfSO/2qeZ6wDnpFYU25eB1LLD3x4TAScJ6nyysvD9DESqpXbuHLjR7g6zvT2FXVFiysPFpAhFUikUgkEolE8l8Jz33ziMxExxX7Uaa3Jt4lkXyfh/IS1UcYoPJgXVTpvwPTdU4gOevJnlCWVnu3MHRcYIGKfbeh/EAtkkY9vMf7k0S+T6JaXNYfoPeq0rHK9t6OT0frkoS6IDL5wqNnvj4rvICSe0gyWs+3VASu2nD9R+VxXSsM0kXVYXpYZetN4vP3n7+65XCA8uiQRz1vJB5d1h566eGsvEhQh1/2q/ZnYVAWvdmKT14grDzM85BvAr5iyeTVcHk/2v/d4buwaM9Z5L/Co3pS8q5h0DYH1fEZFhb6ycI68E+ENSApDz8utlVLnErkPqR6m7lFqrf487CsL6a6luPHqXDb8U/1kOAFfyKs0Zn56E9iV7brZpTtsVUZ4ruCruedl+wtD02/jNEkn5V5aDALOh2z+lAdbNx/XhnG/Kxwb+4kA2dVPYvbidq8/+ZjyuN8XjWvS1gT6drNNz+DD4bpKufB905F+je22s4bF6+9+Hmz/GWFvU88Wi9SX8fi6091aUTCejpMhFUikUgkEolEUsrDfZBXrt/GYktPpSeqwiAdRSTfG6VPGOAdEkCNPjvw5WQj6Bz2I0l9UrKu37qLQ2ci0GOZNcqTtGr02o7KJK3VSCCrj9R/AQaoOFhH+SBdc7gW5uieQHBc1hM9uSUTl34J07VP4P3huijTb6dSxntqKg/RxVsDdNBwuiX2e8W/9DM4/yw7jwejpvLsUrXIkDQ0nWelDPP9s0V8OJn5N7CeJOkDFl7uHRtIosCyQNJRZ4IRNh0+j5vP6b3jHmV+JEunVSS7LCo8vFXZdwu+mWWuDEnm+ZsvSi5J+46jgfiUe4m7bYTGACpDLZBvkdAN2nZc6V18VkJTL6PNin2PJa73dmUe7Wp7X9x4jmgXhxerOkDC3WKBjerceRgq7cvnwosj8bzgJJKxZyWChLPb2oPQaLcOGh3WK8I3zdBFGR78Mgmn/cdqk7Cq24t7davT/bL1UADyniN5/KXNKjqvyjyUmM+X25v2+3yyCXadDCGhfbljF6eI2mePx7OF1Ts+R73Vi5N88Zry75LnfitDyqmc8n01MVHXSTnPFyVSGQp+Am9zbzOfF19//vKDfv/q5z1wjXi5YcUvGxFWiUQikUgkEskby/HAFLRbZq+ISUWSi+okrNVG6uHdEXqoSDLIc+faLbTCCZ843H5KWG7cuoNTfvEYt+0o6o4lQeMPxyRmPPz0rUHaqDR0F6rwPFY1lUmCK1CZZQfwIkAkM/xM067r0G+FDTyCEp/5KJrcK9exZe85fDJ6lzKXsgovrkT1Y1hcy5JkVKIyx2g5IvIlPsy/TGzOxeE7+mCviA+fU88teG+ELmabuCmL/TwvLIqaDsEkz+Yq4SThLTeMhE0tUZ+MN8TWIwHqrZ+dwpt3sfaAHz4Za6AqgxdgInF8i2i20AamLhHIvPxs2fyd/heTmU/HCERjfgYs1VtZHZYXXVIvvFSW6jJk+4nnimDihasYqnkSlbinUumdo+P32oruqw7AIypTvdUfwwsxOYakKs/+rMiiS+dbZtBOlB3Cw1o3K6sEL7I4g6yCZ68uzCs799t8TCW6ynDkbWi+yAaWHtEvXHCK5wxbnYnBjwus8ZZazLjtalJ723jG/um844N+ibQfCTbft1xvojzdU83o2PqOoUjOu6re8uXCPeQNp5qqHrNDZbKwjtxx/KVEszh8H2055I9aI3ap/o3QOZWl69Bgmhl0Twb/6RcHkRlXsMDyLN4fzvtuon9v2nQN6B7kdqHr+eUsC5yJzlJv/XoiwiqRSCQSiUQieWPJKbipzJerwELTfycqs1ySrCqQEJah194m8ei7eh9cg5KVlYJLhhfLCUvMUR5B89MKO9Qdp4/qJGkVSVjL0r7KB2Xu6WFIBLiHj1c7rUEC+PU0E0V2LR2DlWHHJeescgpIqgwcAvDdDDOVtFGZValOxfV7e6guyckONJxlCXuSzJfpfXyZsFyML36sCwufWhrrTjHBlsP+iMsuwBWSqCISB4YFg/fZejgAjadSXbtuojbQxafTzfD+eBJP9aq/1UfuwkR9F3jHXVB6UpMuFOIqCWrJXmGefhtG740maSyj7ilUnuXKMkVt2ZREeqW1F06HpivPe2WhSsy9ipDUS9jvk4BZxm6oP8mEhG0TyvXZhndHUXuNpuvI11ddBvegOgQmI4z2icvKx8Vrt5TeUU7BjbvQPBaET7mHmZ/7qZ4T+gFdrwm6jvCKzUFO4U1cV597AdWfewTtvePQa80BlKM2e4skrcZEI1QdY4ByLKwkbrzoVr9NR7GPhI7PL4rEKo/arfi43Ns/3dhVNe+Vz5l7dqnOrRbbYqdDkLKCMj9uJ4/qernoDnGb7t0bylBiXtW497rDyn2l9JKqRb3ZEjv4JeYq5T8v/AUE3/8sqUqvKH+5wL9Tm3/7syUWk2Tb0b3lFp6BwMQ8ZF258cQcaV6ciReZCqFz8qU6biLR/Gyi+nE+1A7KYklrDsKKxJnvkQjaLo3O48+kk4eGHw9Ixjf8DGC1sBYP6W231E45X6731Vt3lWtwle77bGoLt8hMzDRyRc1RJKs9tijzsBvPtUIV+reiXHvan5/Ju/VooDJsna9B5uWiv71ImQirRCKRSCQSieSNhV3pRGAKWi+zR9mB2soH9bdZBtVU5J6afjtRafBOjN56FJ7haXjw1LBY/gB/kz64n4/OxI79PpiifRI9V+7D93MsUG+yET4Zr4dPx+ujEQlq20U2GLzxMBaZuMDWJUxZKZjnr/6qFpfiXL56E7sdQ9CMpKEsfdguN1gXlUimuU6VR1K9hlG9+moqPcFTjdyQSSLxusLDfne7ReIjHlLL4sEf9kncyhCfTTZRVvLVdwrF3nOxsCMR4R5Nni9aazSJQdu1qDFcF+N1nTCCtvuce9t4fxKxMiRtdaaYocvqg+i9+gAW7XbHuZgspYewZHiFX1uSpG9JTsuwNHPvH8s/HZ/n/lYlUf9mnjUG7ziBWSZumEaS0nPDUdSbbo5KPPS303pFGln2uq8/gvr0elkeFsr1IPGpNkafpNUePVcdwEStU9jrFYd8dS8my3NgUh56kmQpvYQ8LJpliYSbe5l/Wn9ImYfLCyTtpToaO4djlqk7msy2QBkWzW6b0H75XozZ5YTPpu1W7ctDg+m+em+sAVos3Yuf1h7E0C3HYHs25onjsoh9S+UoqxOzrNN+ZandPhyrrwyTnmd+RnkG7q5ToUQI1u33w4idp1B3mplKOLk3mAWbJK823SNLrM8pIvdn4ePyIkTfL7BBGW5nPq5SZ7redO5VhmijNsl3Y5LHPusPw/JMDO6W6LENICGeauSiSGlPev+7BdaqlXkVyaQyqKzaJLBtV+xDb3q/L223Ya+PIq/PG77Or2Zcuo4phi54h3tH+dFAXB5dv7eovG/m7sGiPZ6wcI+CPV07c7dorLH3Rftf9qECb9d5Pb6k+26M3mmMpPapMUpfEViuT7nBWmhIbdzpl/0YttUB2+ne5cf7/J2IsEokEolEIpFI3mh4GKq+UzhqTiS56snDWHehAolgeRLEiiP0UXYIfwDXRHWS1v5r9uOIVwyuFf1xSOnvv/2GiyQICVlXEJKQA/eQFBz0jIG1axhs3cJx3C8ePlGZiEy9iLS8QhTdfPZQz2SS2C32Xvh21m7Vqq/9tZS6cJ0q0E/+vcwgnne4Ax1WHlR6G399zof/v5r4C4WKiFXj+Y28ABIPYVaL5zvDtPEFievXMy3w9QxzfDbeEBW5Z7DtGpQlaRurdRI+8Rew7VgQPhrP80h5mCuLH50LSyf3QnZYh5Yk9CyLz5rTyo912e0aie9JTpQeR0WcaX+uh3r46tuDtJR5vTxXk3uuFbFptxYaVDb3xFqTEOqdDsNXs0gClcfLlJAxEtq3Oq7HZyN2YTUJVMmhutzjZkT3Q2Ne/ImPy/vR9kyFQZqoQ+fbmM77a5K4BlNM8B63ER2T557+QPXd7xOvrGr85SxLVa8l76sIpaoNy5FQvkt1WGXtiaz8x8dludx80B91+YuCrjxcnGB5pfMvSyL2IdW1LrUn9yDXn2SsDJuuzI/OUXrCqY5cV9qn6qCdmEyyxkPEXzTnmMM9leZuUWix0EY5lnK9isvkv7vQ39RWtUbrYz3J+m31AmF8xznQeX5Bcli20wZl2HZZlnO+ztzO/JPPmyhHvEXllad7qQ/Jt2tEBh7+yWrW/Bins9FZ6LvhiKoePJeV25HvM2q7miShjaab4etZ5mg4bTc+Vp55S9u0WY33h+hgrb0PHMPSsMjiLGqw9HJvufraK+XwNRigiSEkrf5Jeeqj/rWIsEokEolEIpFI3nj4URrj9F1Qdegu+kBLUkU/y5EYvjVMT/mpwa+TdJWnD+QdFu3BzoM+iEzJw++/vkAISCR/ffgQvxEvyvUbd+AemoJ5Bk6oP8FAJXn9dtLx9ZU6KPUhgdboTx/Ae21HvekW0HN8uYWIXjX36by4p3GGkSs+5+GxLIksX53pgz+JqUbLVdBoQTT/BRrNVkCj/TrUJHEco30K52KzFRnh+cHNeX4kiwRLDw9V5d9ZKr9dii9JzHiO5vMeocJfJFifiUGvNQfxPkthcR2UepBEt6dyWq+GRiuC60QSUpHEru1iW5iR7LKI8VDVgZuPgZ9/q0FSpZTBAtSJzqPpMlQmeVlkeRYZTz1jNeNyEXRPhuDH+daoyJLDEtelxDFbrqTz53MnqC3epmvVcfk+WHhEKcNUef/B20+gcl+SJBZPRf4IHuL6I7UXye18U3ek03Ylk5R7DVoOQei0bC8+4HPm+ay8P7dZK3WbF7c9/+S6cFtQ2RW593HGbiwwP4PzLxgK/HQKb9zFfu94pdfxcxJyZS4sPw6G24tlnM7z7YGa+IVEkJ8Py+ExAQd941F9JP37+F51Dyjnx+dZ3DPOKNefXm9Jdf1hBdqRGJ8KSftTYeXwolCOQSkYuOmo6vpzOXwdWD5bF9+DdB34HuTrQe3w5RRTLLPyUr5wuXr7HgydwpTzUerG91/xPcT70fXknmH+cuXvRIRVIpFIJBKJRPLGc+/hb3CPykKfTcfwFksGUYYXSOLezGG7FDTUw4NZIj4arYspWidw0jcOGXmFuEEfjv9KeGXgguu3EJN2ESangtFthR0qcc8UCakGryRMxy9L0szHL8t14J7Vntvx/ih9rLT1QepzVrt9HWGdiMy8ojzmptuaA6g/fTdqjdyFdwdpocqAnXhn4E5FJD4bb4ROy+1JFM4pcwOLw0MttUm+eq87hBYkkS2W2KEFiVizxXZoMtsSE0hu+Vmjd+4/X/p5eDA/fogfc9JhxT7Um2yCGnQdlDrQ8d8ZqIX3h2jjE5LqHxZYYzSVyRLFiyBxeMgtD90dvv04WtJxlTos3YvmRJM5luiz7qAit89aEZd7eXnoLz8u5hvalns03xuio5x75QGaqDZYCx+N0VeGA0/edRrHApJJvlVzM4tu38chv0SM13FEKz6m+rh8/k3m7kH7pXYwJpm6+Izj8hzOU8Epinh2WX0AjeZYKOfHbV1Vfd5ch2qDtVGTrsfnJGk/LrLFGKonr6ScXaLX9lXD83p5njKvstvhl334doEN6k81xed0nvxFgIlLxKPrxffHudgsDKC25dV3i8+xJZ1jy2X2j+BzbkE/edjxj3TuC8w8EJh88Ym5sM8LX//zCbmYt/sMWlLZdSeZKKsHVx2gpTzCpyq1BbfBlyTqPCRZ53iwMs+Ww6Xz/cj3Tlu6P1tQmzdfaq9ce35mbYcV9vjF1hux2QXK9n81IqwSiUQikUgkkn8kLDm2XvEkV/Shso9KWpWeVX68BsPCygsd8Sq/fXcoQy+/mmaMCZrHYOcWjtSc/Cfm9/1pfv9dGRLMQ4e1Dvii9+p9+Hi8ASrwXEs+LotpsSQXH58X1em5DdXp9Ql6zghLe/48wNcVHmrMCxHFZF3B4fOJ2LzfD9MMXBSJm6DrhOUkqdYe0QhJzsOla7cUwSgOLyjEwhifU4Bget8/4QICEulnUi786PfozMsoICl8kbjwsFZeoCiYJGcvCeQaO29lyOsoqsN4HScsMj8Lo9NhOBuVhbRL1xThKw63T9Gd+8qCRSxjPOdSISlPqUNo6kVlKO7zhs7ycGV+BI47ifWuE8GYT7I1VstROf+fTd3ptRC4R2QoPap3Slx7viy8bzrVhxdZCqBz5nMvPm4Q/Z195TruPee4PK+XF4OKzrwCp5BUGJ4KxdI9npii70xS7oix2k7KAlMb6HrwPGKWukwqjxdB+jvh9uJViTMuX0dk+iXly4LDfgnU7jE4FZSsPJ+15DUupHuY56P68LWlc3sMt3Exqte415fvgQS6H16lnjw8+CJd/0Aqi+81XnSLvyAYtfMUplJ7bDropwxNjs3OV3rVS4Z7aXMLbyqrB3Nd/NXXntsriO7JZDqf5z1m6WUjwiqRSCQSiUQi+cfCvWo8TLX5Qvpg2XO7Iogsi0ovK8lqGRJIpbeVhbLXDvAcvyqDNPHD7N0Ytf0YVticxc6j52HhHA4H+qB/JjwNvlEZ8IlKh2toCg56xcDYMRhbDvpinpkb+q49gAYTDVGGn+XKwxVZVofwMUr07DIDSZJ7bMU7g7QVYeF5d8UrzP5TYalTVqbNyifRu6Q8O5RF8Ka6V/GfCM8vzSAx455fXhmYZYl7cnn48JsO3xsJFwoVAeXzj88pVF570+HVo1kiU6ito+i8Q+n4/GUF9wxyb+rfXeX2ReHrzo/G4Z9v+guSF4XvtfRLdP1JQPn6s9DzPclS+29FhFUikUgkEolE8o/m6s172O0WhTaL7FCOh+aytA7QUglrsbgqPa96JJe6Sm+rMr+u11ZUGqqFWmN34evpZui02BYD1u7H8A0HMWzDAfRebY9WC/bgiylGeG+UDsoOJDnleXUMLwjzqHw1LKpcPvf2kqx+QLI8VscJZ2Ny1DWVSCT/dkRYJRKJRCKRSCT/eK7dvgdrz1jl8ReVuXeTV6flR6sM0lYL62OUobqDaBteqZZXReWVUml7Xom2bO+tJL1bFMr22YoyvMop04/Lo2257MHaVMaT5Spl8nt9NVGWpLnWWEPMMHZDYMrFf72XSyKRPI4Iq0QikUgkEonkXwlLq0t4OibpOaMmCaPy2BReuZfllB+VoUBiySuYMvy3Iq6E+rmhyqNMWHaLHwvDq68qoqqS38f7lyiPYfHl1VZpv6ZzrbDpoD9isgpeuLKqRCL5ZyPCKpFIJBKJRCL518J6GJZ+WVkpt+Mye1RmmfyJRJJlkoVULZ1lSDrL8E8FXRUlekwf8Wib4u3Uwso/WXR78/BiKrvnNnxCksyPGeGe3pzCm6oKSSSSUhURVolEIpFIJBLJvx5+1unxgGRMMXTB1z/vQTUWTO415TmuTB8STX7kDUsnS+yLGEj0p215kaUS5ZSlcmqPNkCHXw5grb2fsqLt/Yf/3oIyEonkzyPCKpFIJBKJRCIpFeFHZGTlF+GQX4LyeJEmP1vhvVH6ynNby/CKwtw7qgz5JXH9U0hSecgvSy7Jatme21BhwE58NMEYbZbZk6j64nzCBVy9efeJR4hIJJLSFxFWiUQikUgkEkmpyu17DxCTlY/TIWkwOBWK6fouaL/UHnUnm+LdkepH0LCQMiynJVG/9tYQbXwwxgBfzTRHn7WHsGyPJ2zOxMAzJhuZV4rUR5JIJKU9IqwSiUQikUgkklIb7nWNyc7HMf8k6DuGYsOB81hq7YUFFmdVWD4FvbbI0hO/2Hlj25EAmLtFwj0iA1n5N9QlSiSS/1JEWCUSiUQikUgk/6nwU2deiHpbiUTy344Iq0QikUgkEolEIpFISmVEWCUSiUQikUgkEolEUiojwiqRSCQSiUQikUgkklIZEVaJRCKRSCQSiUQikZTKiLBKJBKJRCKRSCQSiaRURoRVIpFIJBKJRCKRSCSlMiKsEolEIpFIJBKJRCIplRFhlUgkEolEIpFIJBJJqYwIq0QikUgkEolEIpFISmVEWCUSiUQikUgkEolEUiojwiqRSCQSiUQikUgkklIZEVaJRCKRSCQSiUQikZTKiLBKJBKJRCKRSCQSiaRURoRVIpFIJBKJRCKRSCSlMiKsEolEIpFIJBKJRCIplRFhlUgkEolEIpFIJBJJqYwIq0QikUgkEolEIpFISmVEWCUSiUQikUgkEolEUirzxoXVTYRVIpFIJBKJRCKRSCR/IZl5b1hYzwQlKAeSSCQSiUQikUgkEonkVZJ3uRDbrd1g/LqF1UEtrMfORaHg5j3k3xAEQRAEQRAEQRCEl6Pg5n1EJOdis6UrzE6EvV5hPXk+HRvMXbHO+hyM3ZJg7JoII5cEQRAEQRAEQRAEQXghJu7J0DwSghVGTrByini9wuocmEkm7IYuyw+iwZyj+GLOMXwxl34KgiAIgiAIgiAIwgtoMPsYmi44jNk7HXDAPfr1CqtLUBa27HFDo2lW0Oi1Gxq9zaHRTxAEQRAEQRAEQRBegp924+3hFpiy7QiOnI15M8L61XRrklUS1j7PqIAgCIIgCIIgCIIgPAsW1hFvWFibzrFDuaHWKDfMBuVGCIIgCIIgCIIgCMJLMNgaNcbbYNr2ozh85jUL6yn/DGw0d8VSUw9sPRKNLYejselwlCAIgiAIgiAIgiC8kO3HYrDaNgDLDE7B5vRrXnTJwS8d63e7YL9rOHLy7yLr8h2kX7wlCIIgCIIgCIIgCC8k79p9+EVnY6O5C3a/7sfaHFcLq41TKBIv3EB8VhFiMq4JgiAIgiAIgiAIwgtJIWn1CM0gr3SG+ck3JKxWjiGIJVmNzriOiLSrgiAIgiAIgiAIgvBCEi7chGswe6UIqyAIgiAIgiAIglCKEGEVBEEQBEEQBEEQSiUirIIgCIIgCIIgCEKpRIRVEARBEARBEARBKJWIsAqCIAiCIAiCIAilEhFWQRAEQRAEQRAEoVQiwioIgiAIgiAIgiCUSkRYBUEQBEEQBEEQhFKJCKsgCIIgCIIgCIJQKhFhFQRBEARBEARBEEolIqyCIAiCIAiCIAhCqUSEVRAEQRAEQRAEQSiVlCphjcy4gdicu0i8+BDJl0tw6QESc28jLus6Innb9BuIyb2HxJLbPGPbKKpbcdnhadcQmXkTsbn3kXTpyX2SLt5FfHaRavvUx/s8zcvUr+Qx/12ovamuCSXr+Qe4LW4jNpPaJrXwGWX8S9D1jc65h4Qn2vkBtTO1fS5d+wyq77P2EwRBEARBEAThf4pSIqzXSFJI9khEIlLzEZJ0EYHxuQiIY/IQmHAJoSkkVLRNJG+TVoiw5CsITbyM4MSLCOLtYtXbxl9CSHIhwpVt1YJLRKaT5FBdw1OuICRBvY96++CkAoSx0Kq3+dP6peUjlOoXVLJ+JY/JZfxh/38Dqk8K1ZXaKCTxEtWX6qm0UUm47vQ+tW34C0Q7ks8/i0RSuY5v6hy5/a+ryy9uZ6qjUlf6PYFeSyl5LZ5VxpujZBvw8VVtQD8zqE349Ux6v9R8YSEIgiAIgiAI/31KgbCSiGbdJRG4jYjQYFiar8fEGf3RtcdP6NC5O9p36Y2u/cdhysa9MPLIg/+FGwiL9YLlL4sxZfAI9Ok/AF270badVNt26Tsak9ZaQd81G16p9xGTQSKRfgOJWQUI8feA0ZZZGDuE9ulK+9D2nXoOxYDp2thgn4yzaUWIyStC5BO9rFS/zNtUvzuIioiEndVWTJ0zAN16FtevFzr3GYWJayyxyzkDnkl3SWzoXNP/rR5LOnZOIQlUOA7pb8V8aqP+gwahR49e6NipB9p3Lslw/DRIH1quyfC9Quf3HNkOTyURy76LxEIgvfBXJOfdRDS/9ye90a8OSXPGXcTRDZme6g+nvWuwYArV+6dedJ2orbsOR/fB2zFz23nsCylA9OVbKml8rXV4Pqo2uIckpQ0eIjmX7ivl2DcQe/FXpBb+jrT8u4gnaS1VvdWCIAiCIAiC8B/mXxbWawhPv4mkzCsI93eD1uoZ6PjjR3i7Sk18+m0XtOneH53af4+Gn7+NinW+xdd9dbDyWCicAyzwS6vP8IGGBjQ06qBuyy5o27sfOrX7AY2/eAfv1G+FH0doYoVpDM6QrMYW3EK4nxssVwxF5y80UPm9Gvi0eVe0pbKb1tZAxTLvo2b7ZZhpHwvX5JskHY/FjeuXkJmPqOBzMNw8Dz1afUr1ex8fN+6I1ly/Ds3QuH5lVPq4Ib7ssQ6zTKLgFl+IGBLrf6en9SYJVAFiclyxa1wbNFTaqDo+bNwGLXr2UcnfSwsr92Zeo3PJhZ//OdjussQ27UMwOxmLcySL4dyj+MT2fxU+zk0kpl+i++A0TDWnYGT7d/FRpYqoVb85WnTqhDbNv0Dt9+vj7QZj0HO1I3aHFtA9dZ2uDdXjmWW+Lh63ga+fJ2x0LagNjmC3YyJ8cnmoeQyOW5lj05qdWL3dGfuCchCYe1Npl3/n+guCIAiCIAjC/w7/rrDyENqce0iOOIdT2wej6WfvoHzlRviqrRZ2Hs2AT+othIV4YPfOsfj+uwb4uO4YDNx2DAf8LLC621eoqfEuPmy4HL+4JuLclduICPOFle4ENG1QBRXK1cHnrTZjs18Ogm5egbPZYoz9rBze0aiE+iPWYNv5HPhFeMJh+08Y/F0dfPRNd3Rc5wm7oBtIyuH5rCpRicy5j6ToALjvGoO2Daui/Nv18PkPm7BpbxK8uH7hPrA1mEpCRfX7tC86zDuOg9GFiL/6KxJz7yLhCe4gPod7fPn86dyzbiH2wl3El3ifL0gMSZiq9/I6orNuI+6JMmj7C/Ra8Zzbku2pQMKax8LqDoOpHfC1xlvUFiMw1sQXjnlFCErIUw+HJmJ5SHABIqgecXlPHkPFfTrWHaTdSoGT3TIMf+c9VCnfGh1+dsChy3cQeZG2yaZ9/7BfMVxPHpZN55Nxg+pE50evFc8XfiSa6UXUzneRHOqOIxv64utPKqJcpQ9Qv9kCrNh9Hmdik+DrZYK1s37EZzXLo8Lnw9Bt83l4Jd1Eav5DJOSVaFfu3aTyuMdeadccak/uieVe7+e0JYuvqi3V1+SJbe4j8eJtpN9Kxqk9izCkUnVqg/bovNAFJ27dpLY7C5MZQ9DpqxZo1mErNpL8+xTcp2t4A3F0vo+vLaO6btHKvcU94eo6/oE7tO9NZWi0IsyZdA50HZ7Y9gLVs3hOtyAIgiAIgiD8j/IvCit92M4oQuzla/A5oYtVnaqhusbb+LjTSiw/nAvf9N+QVgCk5l1FaFQEDp90g9WBAJwIj4FnsBVt3wi1ND7AR99uwdagfET8CuRc/Q2hQR7QnFwf31TSgEaNruiy0x8nMmJJTEeik4YGymq0Rre1p3GyCEgpvImEmFA4n3aHrYMn9ntnwDv+miIKLFk8ZzH2chHOu1lgc+9aqFmmHD5sOR/z7DLgmaqu38XrCI+NxlFHN1gfOId9Z5Lhm3wV0SQUMdkkGo8gwcghucsmsVIEis6fRYRei6X3Yx+9T6/xsFLl+CxZ/L5qm5LlqNqT6/nkBX0srB4wnN4Z35CgV644BTMOJOD8bzyc9TekX/kVqUTKlYdIuXyPBIhFio6t1EV1LNVPHqLLwpqIk5Zz0FfprW2MHyYfwF6SuPCLJKBZtC2JVxyh2k9VT9VrXE+WQaonC6tyDHqPz++RbNP7mXQfXCqA15GdWNL6bVSl41RpMQ1TzDJxJp6OX3CPxPQavFwtsXrIe6hTsSo+7r4Dmt6FCL70O5LzuN3UAs+iz3NNM+nYXIfi9lbmmT4+v6fbUqmjMkeVXlfaQd0GJNLx1D7ptxJw3HQ6eilt8C2azziGA/m3EJ57AT4e3th/yA17j0fCLfoSQvmYJKyPyn/qWCysylxd5TV1O/Hvj47JvxffJwTfJyXKUm1DP0vVIl+CIAiCIAiC8Pr5F4WVJIFEJfFaOk5YLMTwqmXwtkZDtJx1GHYXf0dUHn2Q53mNvCLwhYckWkDmNeDCnSsICbPGynYNSFjfR+1v1mLduXT4Xb2P+DwgIfUCgiwnYuS3laBRpSHen3gIFiFRcN41AT3LsWx8hgZDjaF15jLCMu8g9w5A3ol8+pl5kcSADhSu7t1kyUm8lg3nA2sxoXYFVNH4FN+OsYFF9kNEXrqLBKV+RSQ4D0G/ghwF2ReuINL1FHYtXoIxI8Zj8IhxxHgMGTcdY2ZsxmwdXzhEXkdmbgoCT+3BziWLMGnSVIyg90dO+QUT1xyHmXsu4otIBq8kwOGwDpbPm4GRYyZSOROpnNkYv1AXm/fGwy2Bjn3x6aHHJDKPhLUTCevbqFJpGmYdTkUQnSd5ELKpHbkt8+7cQ1JqIPZu24JFsxZiyox5mDCR6jJ6AoaOnYFxczbiFxNn2B3egc2zm+DLCm+R8H+Amo1GYeiqQ7AO88c+K+75pH1nLsD4CVMxfORYDB41BSMmL8TEWYbYbB0Fr+yLiAl1hdH2VZj88xZMNfLFydBLSMrhunNv6HUkXE3BUaM5GFhZg+6Dz/DDTHuYpwPR3PNLghtzGYiLj4PTpnZo96EGKjXuhz7aB7F5jSZWzFmLRZudcTCa7o3LdxETHoyTVnROCxdi8mYHmAfkIzwnBicO7cTSn2dgxJgJ6racgwmL9bH1QCrOpNxBelYcfI+aYcuC+dQOUzB83AyMoms2mco2ttqGTTO/xhfluQ1qoFbjMRi++gisw0Nw6IANtqzWxOrtLtgXfBHRl4sQfN4dplorMGf6NLp2kzBk7GyMnqGNVdahcMrIR0SsH/ZRuy9+RruPmbkKyw0dcSQ8H0l5eYj2PordG1ZixhS6R8bRdpPmY/xia2w7koSgHLoHLhS95vnEgiAIgiAIglA6+PeElUQ0ikQk+WIQ9mmORUeNKihX8Sf8tNIFJy/eQuSFG6qFfRRUPVKR6beRWJCLwFAS1vZf/kFYY7LvIzE1G4mntmB6lxrQqFAfZYdaQt87A2Fu5lg/rCl++Px9vP9lR7QesgpL1utBz5KE9sR5nAzORihZXEx2cR2LFGFNvhyBYyYz0PPtqnjrrfZoP/c4DpMkROSR3D5dv+zbiE/KQsgxe2wcOxqd23ZGq07d0aZjN/zYqB5qVvwA5b6ejokW/nA7YwOz8d/g+wqV8G7Nr/Hll5/hU+4Vfrs1fpx7GDZhUXA6tQHTe9fFZx/UQb3v2qFV+7Zo/lV1fPT+x/ii+xrMt4+BW9otaterJXraSgprNzTVKI9K5TuiyxxNrLM9BB1TW+gY20Lb2B4GR/dhh9V6TPyiFuooPYdEtY9Qq34T1PvsA1SvXh61fuyHnqO7oX+3D1GzfDm8RdfpnZrd0HGiAfT99mLt6Lb4Sr1v2ffr4LMmrfDNV/XxMYmnhsbnaDxiL8wjs+BrNw2DvqTXyjfAh1NPYY9fITIu3qR2u0nCeo3EzA+2G4eilUZllKvUHwM2e8I5/zbdeDeU4bWxJKwJJKweOsPQvT6V07gpvpk+G70//gi1Nd7FB9+sx8bAPATeBuK99sNoUh3UKE/bfT8X48x9cfAACV8vauMPP8MX37entmyNZg2rotb7ddGw/3YsPxYLd2dj6A39Eo3Lvo1qH32Dhl98TOdRBhrVu6Bx53bo2fkDfPgWt8E7qFqrBzpPNYTBeRusGtoUn2iUReUaczHvZCw8431huWwIOnxBbVK5Nj78vCEafUL7aFDbtl2IBcc8cdxrNxb/UJfqrmq7ku3+blUN1GjaB6MN3HDEywWHV3RDrw8qoWrV+qj3ZSN88Z4GypT5Eh/33YkdnjkIyLiFOB5G/uh+FARBEARBEIT/Df49Yc0gUcm4hpRUD+xZ3RfflqsKjfdHYdAOX3jyKrQ8j7RERZW5fCRnCS8Q1oQnhLUeygw2h657HrIv58Lv/CkYb/sZwwd9i4ZNPkbtWrVQq8YH+PS77hiyxg57w/MQlkuSxMcjoeZhrKkZvti/YwRaVqb6VemPn9aegSvPQ8wl4X6ifqo6RqUVIjIhB74BJJwe/jjuFoTDzn4wWTkP/eqRjFWtjTqTdmLWknkkihqorvEJmvTbgRWrV2Jet4qo++EHqD14BcZv0sGi7nXRqEJlfPT1BMzRcoDdySOwWN0RvT4lwXn7A9QYaY6NroXK0NDHwlIsrGdIWHuiuUYZvFWmKqrWqIOP6tVHnc/qPeKzzp3RYPxo/FS7Jr5kaXr/c3w1Wwfr9vnCfNcCjOqogXffqYD3ew1G5zHD0aV8VVTTaIofR1vBPCkTfumO2DGoJb7gfctXxw9z9aBzLhuux6yxZUgV1CmngWodlmGqqQ9053yPNtVI4D7rjv5GqTgZ9xDJOST6JFvRmVeRnOQMsyXd0ZDkU6PmJJK1YPhepveorSNTSMgv/IboqAic3tkfXT6n4zX+AU1m/Iy+n9Yh2X4ftb7biM2PhPUAjKfUw0dVaLsOM9B36VbM7VAbDSpURZ3vpmKB3knsPXkApstboNtHtE31T/HZVD3MmkvHraNBYtkAzYfpYtXKBZjZsSI+qlkDdYaNQ58Jw9GpbBW8q/EDmk+whWUqiXjKMWzp24SEtSLe/WQ+Fjp5w9JyIUbUqYgq5Svg3d5bsdTWCYe1J2PiR9XwbvmaJPGLsXivPqb+0AifPq/dq5TH+wNWYNSqbZjfujo+o/I/br4Yc1bpYOXwOvi+NpXVdBSGGEbjdMwNJF/gYeRP34+CIAiCIAiC8N/m3+9hzQuA/Y7RaM89rJV6oecqV5z6Qw8rw/u+WFiVHlbHrZjeVSWsGoN2Q9s1DxeuP0DCxasIiYjECWcHmFnqY8P8sRjSqDw+1CiHd5v0xgBdfxyJuo1EXigoXd3DeikMR42n4adKVVGufEd0mHcCR//Qw6qG52lmXEVMXDRcj1tAe/F0TO8zED/91Betv/sGn1YtR+dYBR+M0MWEeZsw7Zu3UUnjLbzzyU9o0WMehk+fi7lbdaDvcRKmhqsxpkYFEkQNVKjWAI2bd0XH7l3Q7luSs7IkOSw6P67AJJt0Zf5m/KOe4T/2sFZ8qy3aT1mPpSaW2Kxtgs07TbBppxm22+2h67MOkxt/RtJXDR98OxvzXFLgdRWI890H3cmfKNJX/icStSkz0Y+k9H2NNmg/1wWnHtxGdJ4LdAY3J2GthHc+HIwpByLh9RC4nBYNb63eaFW3AjQ+boq6PUejW/3qqF2mFuq0XY2N5/Phm/cQcdwrXNzDmusLmw2D0ZLvg8qDMGirF9yu3kMkibi/VzRc3GNw/MRB6C9pjB9JMst+0xzfzpqPAfXro55GbdRpxnOZSVhvkbB6H4LpjK/w2XsaqETH7jppFga8U4aucxlUqv4lvmnZHZ26d0Kbb96l19Rt2XEt+o2ehYl0P5TTqIzqdfuhTa95GDlzPuZr7oKJnyNMdy3CoHJVUVmjLTotcofTr3eo7qeg2a8pPteojppfzMdS58PYvrofmlGZ5ct1RS/t83C89htSwt1wYE4bfF+dXm/SAe1XrsKwxo1QX+O9Z7T7R6jNst1uMfot2o2FHeuiThkNvFW9BZq0+xkDx8/G9DVbsNHmFPb70b+H5CJlYakn7kVBEARBEARB+B+gFMxhTcNx8wUYWqUs3tb4Cq3mHIX9pd8RdfHJOazKHNEXzGGNU+aw5iLEeipGN30bGpXroero/dD3KkIez90sAnLoJ/kmckgOMmJD4KU1CkPqV4TGWx+h0jBraLldRjptHK0W1sTrWXDevxrja1YgUamL78bawjLnISIv30X8ozmsD5T65dwBUpIicEJrFiZ3/QpN6tXG9816oGu/kRjYowWafl4eb1V5HzWG78EvVlE4br0LK5bPxMBuffFdw2748adRGLFkIzYdNsW6jVMwgCS5OslYrYZd0WnEKPQeOgr9RszGqJkrMGPBWkzTPAEjj0xE8xzPP/SwlpzDOhWzDqeo5rDSufMcVvIbXP7tBmKjrLCixed4T6MWPm2hBe3IAoTdB5L8jsJiVhPUJel7u+cQdJ44Cb3KV6PtWqD1dAcculqIsJzT0B7yI0nXO6heaxEWn0qCz20qOysFYc5bMLrZp6iiUQ4a71ZWFlLSqNwe344/giPJVL8rJLzF94EyhzUJRwxmoX8lnsNaD83mHIDNRdC5XYO78S4sHTsJPfv1RacWb6NGZQ288z3VY/EaDG74FclibXzafBu2h1xEEB0/wecIds9qjLrvc90HoOO4ifipbFWS09r46Ovu6DyS2nLIaPQbOQejZ1FbLt6MqTqeMNp3DkcsNbFwwTT069gb3zbqhuZ9xmH0is3YfNQC61aNRZ+yVeicWqPdnJM4cv0qQjNOYkf/76kO75Gw/kzCaoWNi3sp7V61IonooVicp3ZPSsuErzkdl4dFN/gaX06ajX6fs2x/jM9aaD/V7o0V2dZosxITDGNxzN4GmpvnY+TAgWjWsDu+bT8AfWeswNJd9tB1jIc3/VuLozZ8/G9LEARBEARBEP43+BeFVbWoUdzlq/By0MbydixnVVCn+zqsOnkZ5zN+RWr+b0jOvYqw2Dic8PDFgVMRcImJhxevEtyxIQkrrxK8GVsCLyP8AYlY4e8IC/HCrukN0ZTnUNbogHYbvXEoIAOBAQHY7+iPQyS3nvEkwwUkVnmXkXB0Faa2qkrCWgvlh1hip9sllbBSXXleatyV6/BzMcOGHjVQU6M8arZZisWHsuGVVlw/Oqf4JDhRexzz9oGF2TpM+aYi3tcog/fajsP807kIyr6NxBObsaxbFbz9zjuoNmgbFlpHw9XdF45nTsLc5hC2LZmLiW1JZnkea5OWqNG1B7pX4N7fhvhquBEMEq4hlBd6SkiGt895HHXxxRGfVJyLvUr1VKFq15LCWrxK8GRM369aJTit4DekXfkNKVdI/h/QOUbbYGXL+nScGvik2RZsC1ZJH/dSms34WhGnt3sORqcJE/BTOV7JuRXJmhOO37mBqFxn6AxmYa2CajV/xgKHOJy79juS8wsQHueIbQO+xzfKQlfMW6jUbBYGGsciIOU6UnihIPV9oFolOB+eh7ZjYfOKitxWbTMHc/ZdxrkYuj9stTC3R33Urqouq+x7aDhwDGYY7cL4b76i+6A6Pm62CdvCSNr5HAOOYvc0qnt1rvtwdJk4Bb3LV8S7Go3QZIIFTFNvIIwfyROfCC9vaks3Xxz1i4GjZzROu3lT2x6H2Z792Dp/KkY1r47qFemYP7bGx506oAud6wcaHdFxgQtO3uPH2nAPa7GwziNhPYCtK/rie7r+Fd8agKHGQXC7BSRHn8eJlV3RupYGyn7dCi0WLSXZbqDIdp1mW59q90b4lIdPt5mJUYahcHAKgJu3K6wPHYPW2g2Y2/sLfPlOGWhU/R7vTT4MG79LyLp0q8Q9IAiCIAiCIAj/G/yLwkrwQkU595AU5gGHjb3x9UeV8NY7TfBtF2PoO9EH+JyHiI32hY3BNLRu0QSfNxiPoTuO4aCfJVZ3a0yiUg01G6/GGs8MnC/6DXGxIdhnPAMtGlVGRY1a+KTFRmw4k4LQ4EPQnt0V9er/gM87rsM0gxi4pt5DaIw/7BZ1QZt3yuGtmt+i7Tp/7A19gKSca6pFjPiRIjn3kRjpC+edQ9Gi3tsoV7khvmytBc0jWQjg+sUF46D5AnTt0BT1m7XBV+1b4LvyGqig8TY++Wk9Np6/jrC4WJzZMgwjPtVA+cqV8MHoeRgyaSHGfvMdmjf5Gt2WGULT8hB0J3ZEXRbtuh3x8YDJGP91FTQsWwlvtxiFUXahOB6SAb99q7B6SFN827wt2iw8DP1z15TH4MQ+GhJaLKzuMJjWEV/zoktvjcEECxKnq/dVcpt6FeEkbQkF2fDzN8GiHz7Feyz/P2zClkfDag/CZHoj1CFxqthjEDpOmIie5Ui2NZqh5dSjOFhYgLAcJ2gNojYlKa764SzMOxpLwvoQ8ZceIiolFUfW9UQ/XiBJEdb6+HGKBbSCbyM84wbiM0veB/wc1jtICnbGgVXd0KBGOZR5uxYatl+F9TahOBsaghOGYzD+B6oLl1WhM9ovM4WZmykWteXHG5XB+41nYt6pDHheKUKIozE29P0SNUn+K3Sfjt7zVmNK47fxGV2Tyu0mYcLBKJwKToW3zWIsH9gUTTuQiK7ehhlTf8bIb77FD981Ra/V5tCzsMP2Ea1Qg4W18Q+o1ZGFtRK1VRu0mXUch68VIjTjBLb3/Y7Kfgfv112IxafPwFh/CvpQu1Uo9wE+GbcHO89Gwdt+FZY1qYUPy72NT3+agqnmWpj4QyN8TO3+8R/avSHqvEv3Stdh6D5nLSZ91wztv22C1lNWYqWFI8yXjUH7WiSs5b7COxMOkbBeRtZlEVZBEARBEAThf49/V1jTriE8/RaSMi8h3NcRW5dNQJsmNVGx8sckf33Rpf9I9OreCt/UfRvlyzZEgxZbseRQEJwCLfBLK5YsFqF6+KJDH3QdOgI9u7VG00bvonLdH9FkwEYsMoiGBx0jKSUE9ltmoHf9mnhHowaqftYZrXsNQ1favlH16nj/nS7oOMkIxh6XEZRxn+pJUqeuI9cvMYMaINANOmumo+MPH6NipZqo27QnOnP9erRD0y/eQcVy9VG39SKMXbEFa4e3Qtvq5VG52tdo3GUgunZug2a1y6GKUl8NVBmyBjOWrMbyH95BDX7tgy/wVetuaFn/E7z1Xn18Png7lu11g73pLPzctgE+rFAdb9UjEW5N9W5QAe/TPhW+GIw+289hXxSvokvS+khWSFgvsrC6Qndca9ViSiRFtZp2QfvBw9Cjz0D06M0MRq9BfdClcxPUVXpBq6Jaw9XYGJCLgDtAwjl7GI6vjepl6L3WI9Bh8s8YWkODhLUcKtbujz7LrWEeZIe1Q5qoVrqtMAkzDkXD8/pDxGQ/UD0eyFOb2qIRPiTJ03h3AIZpnoNbHsks3wvq9i2+D3gua1JaHsJ8HaC3cSwGtayMmhXexsdfdUCnQcPQr2tL/Fi9ivqa10HtPkswe88RaK8Yif5f8iOHPsRHzXuhQ39q75ZfoZ6ySjHRYg6G6TvBWn8qZrf8Au9VfA8VG7TG9606olW9MqhO21T+dgyGGByHsc5yzG9cnu4R2q92YzRp0wXN634MjRqN8c20tZi+dA6Gf8BDlsuj0seD0H+lLbWBDVb2+0q5jm9VnYU5JyLhkngSOgs64Dte0OmdRvi8WXu0/+YD2uZdVP1qNCaYO8D+jCHmfl2DBPwtVG1IYv5Uu/PcZY3mEzBguQ42dvkc3/Lfb72HOi26oe03DfDeuzVQreUMjDeNgltsEZIuyJBgQRAEQRAE4X+Pf1lYmUJEZt1FVOZNhAaeh4nBMgwf1xWt27dH81Zt0ax1R7TpMBijJ1lA90AOfC8UITTmDEwXzsLoHr3RqWs3tGlD27ZUbdu6ywCMXGaCnY7pOJt8D9GZtxBz4QGiI2LgYrgFSwaS3HbogBat2qE5bd+q00QMm3sYRk5XqC5FSMwhSf1D/XhxnduICAmBpelqqgsds8Pj+rVq34/qbIQddrnwjb+M2DOW0Pt5DPp0pvPgutE2LTv+hPbd+6Bz35EYsskFe91D4Ge/CcuHD0LXTrRdu05Ulz7oOGE9VthEwDfrFmIvhMPJVBvzB4xA+/b0fhuqd/se6DhoPmbrBOBY5FVEXeJHw5SsL7VzTiGis0KxX4vEuAedb48eaNeuI1q0pHPm81bTrCXVjaSsbdde6NxjKkbM3geriMsILnyA2OBzOKQ1HcMH90GPJcZYbrQfWvOGYmzfnujQaSwGTDKBsZ8LTHYux7geQ9BvmCG0z6TC79Idau/fkHzlAbLiDkN7UmMStXdQ5vu1mL8vBZFU35is689Y0ZYEN+Mu4nKKkJbsheOWizBzVHe053q3onq2HYNu3WZiXPc2aPvtZ6jdagJ6bA7DfpcTsN06CyO7dkfbtu1V59i2C9p06YVOdO59Fu5RHv0SlhYEZ2Mt/NxvGLUlXY82VC61ZachSzDXIAIn4+4gPSMYZ81XYW7//ujcsYvqmnQegE7TtmMLiaiT62nozR+MYT2pDTqOx6ApZjD2d4HRtiUY02Mo+o80g+65LEQ8uAq/IHtsXkzt0pXKaUvHatcDbbvNw0TNMziQnIeQyNMwmTMZ/XuMxtBZ9rB8ot2nYfggulfm2kD7ZAyCThlDe+Yo9OpM50jt0bJDN7QfOh/TdrnhZHgRtZvq0UZPtqcgCIIgCIIg/PcpBcJK8NDb9CJlGG4YfZgPiM2ET0Q6vMPTiAz4RGYjIO4KQlNJdJShr/kIictFQEwOzkdnwpe3DSuxbQJtq8yRJahsHnocxcdIvoTgmCz4RXLZDG0fdQH+8QUIS+Xjcz2eUT+lB1BVv/Dki1QX9TFL1i/2MkJTaJsMOs90On48lRtF51F8nEg6bjTVN+YC1S+fjkcinEL1iaXXeLsI9TZx9FoyiWgmlcULKSWTyNB5+kXS+3xM3iYmD0FJVC+u73NFpQChCXkI5Daic/al8lX1LT73YuhcorNpG2rPODqHVNqX2yw1n/an16h+/vGXEJR4BSHxOdTm2fCLYvIQnEKvJdL1omP4x15CSEohIpTFnwoREBgGR/3pGNG0HDSqNUTDWUdh5MtfCFz/kxVt+ZoVIYaHC6dQ3WOL6031pBsxID4VgdEnYGa1Az9v2I91ey/BI6oIsWm0bTRvqz6nCDonquN5rhedU0gqtROXSW0Z9Ie2vEhtqbq+MZl8TehvbrNI9TXhcuiahHC7pBY8bgO65n7R6jagdn7cBlcRyUKeTvdoguoeUM4hgupH2wcmsZhTfdLoHomj9/l+eFa7cx247vxIH95WuZ9U7eFDdVPdAwWqe4D3e2Z7CoIgCIIgCMJ/m9IhrGoiM28g7sJ9JF/6FSlXSvIQSZfuIC6bxJO3Tb+B2LwHSHpim8ck5d1BPEmDMg9VKZtEikXywj0kXH56+wdI5hWJs1ginu5dfRJ+LmsslZH0h/r9SnWmY5KMsfRGZFFdLz5E8lPbqKDXc2+SHN1AVM4z6nOJXnv0DNobVOe7SLz88MltLt9H4gXVI3QiWHSeqqfqNRIwqmtiyf3+FG6HW6qhxSTT/Iie6Av0GteP2jMh5xadE7WtetskarPYjJvUHveV15J51WS6xvEXC+HreRQ7J7RDpzrvomq52qjSZgVWOCTCN+cuYqn8Pz6/tiQsj9Q+PHf4qXZOLbhDxyKBT0iFR3AWPCOvkehRu1+kepbY7gny6NqSREfSPfNnbRnNX0bwo5bomvyhzS6pzi0666bSBqpjlWiD3OI2UB0rIoUF+TbVq3jbYmg7vvaKZPLQba433Q/Pa3flvixSevj5fnqiTlTvJPrHKz2rgiAIgiAIwv8ypUpYhf8yqp6+mNyrOO/nBvO1szB9/GyMnbkLS81C4JFYiPhLN5+x36vAPYkkfNkknrm3EJ9N8sui+cxtBUEQBEEQBEH4ryPCKrx+eAg2z8HNuY24C0T2Dbr2r3PYKsvx44WxBEEQBEEQBEH430SEVXi9pJJIptO1zrmDuNy7iM9lYVXN/33m8GVBEARBEARBEITnIMIqCIIgCIIgCIIglEpEWAVBEARBEARBEIRSiQirIAiCIAiCIAiCUCoRYRUEQRAEQRAEQRBKJSKsgiAIgiAIgiAIQqlEhFUQBEEQBEEQBEEolYiwCoIgCIIgCIIgCKUSEVZBEARBEARBEAShVCLCKgiCIAiCIAiCIJRKRFgFQRAEQRAEQRCEUokIqyAIgiAIgiAIglAqEWEVBEEQBEEQBEEQSiUirIIgCIIgCIIgCEKpRIRVEARBEARBEARBKJWIsAqCIAjC6yb9miAIgiC8eZ7136D/MURYBUEQBOE1Ep11A/G59xCfR/BPQRAEQXgDJNB/Z2JzbiOSxTW18Jn/TfpfQIRVEARBEF4H9IGBPzQExOTA3S8KTudCBUEQBOGN4ewdBq/QZISl5CPyf9izRFhfiOoDSFQG/3zW+28aOi612793fEEQBOFliMosQkzWTRx18sSmLVuxZes2bNfUEgRBEITXz46dWL9hA4x3WyEgNkfpaX3Wf5v+FxBhfQHhaVTv7JtIzL2J2Ezubn/2dm+K8PQiugFv0fFvIIak9Z8+viAIgvBysLDGZt+C1T4HbN60AWfcXRESHCQIgiAIbwQzE0Ns26EF38h0xOXefeZ/m/4XKGXCeg1R2beReOk+Ui/eQnzWXxE02if9BuIuqCQvmnsl/5LkcTnXEJuSgbN+kbA+HgunkDyEZV1HpHobltmYnDtIvnwfaer6hiuv0/uphYjMvIm4vPtIuXQbCdm036vUI52PU4jopBScPhsB61MJ8Ii5jPASxxcEQRBKD0oPKwmrpf0xGBsZ4eaNG/yfS4lEIpFI3kg83F2hqa0HnwgSVpK1Z/236X+B0iOsPPcn4ypCY7PgFZgE55AL8E0ooNdIHJ+1/TOhMkjyIpMvwCs0A27BuQhMLkTEK5WhJr1IGYqbkhgI2z22GDbrCHYeT0bwpVuI4rrSNlFplxEUlQ53/yQ4huTCJ/EqYqg9lInPGTcQkZSHgPBkamA6p9h8hPPrTx/nedD+0en5SIz2hLaWFYbNd4KlTzbC+Pj0vkirIAhC6aJYWPfsc4ChgQEK8vOVDxQSiUQikbyJuDg7ibD+c8J6nf5Dfx3R2blwPmiHJTPWovfi49jplomwvBuq+ZssoyyKT1Pyde7RzLiEmAhvaOkdwdwdvnCIuoLIvJskf0/J4qP9VX8Xl8HHUkHHpTqlJvrDercl+k8+gG3HkhB8mYSRPpRE0zaJyVE4YmWC0ePXoc2Sk9jqmoP4rOuI43PNuYcATw8YbFyLAQv2YvXRFATkFKnOs+RxlOOWqFdxXbJuITazAMkxZ6G5fTf6zzyB3d5ZCLt8W9lHQV1GyfMQBEEQ/h2eFtYrly8rHygkEolEInkTcT7t+NeENZ2cjL2MIY945jaliNIhrDxPk+QsPiUcpjra6NZuOpr13YaF+yLhknUHkRkkehk3EX/hFpIu3kHCxftIuXIXSbm3SA5vIinvFr12D0mXf0X65SIkJiXgyKlAmDkkwjOpCAkF95BM0hrDx0q9ivBUlmPa59Jt2p9kOf0GYnPvI/XKA6Tnq0ij3xNzbiAtMQC2ljYYOvMwNIt7WDNvKMKaknAee/S3o1XnuWjQYzNmmZ6Hc8ptKvsGUrMzcdTeDMMGT0ajnrqYtycGPlTPqJw7dA73kZb/UHWsK3Q+2XR+6qWow3k4c+490J/IKriLixkBMNazwfB5jrD0zkbopbuIpTJSlLqqyki9dAfxmSSvaf+7y1kLgiCUdkRYJRKJRPJP5pWFVZmeWITwvIcIvQqEMOQ2YZlPbVfKKB3Cmnkbsal5iPI7inXaFug6Wg/Txy/BzybuMAq/i+j0QsQlpcPlfDqOucfCydUTlgfPw94jFq5RaTh6Lh2n3QNw+MRZmB0Jx8mQFLiEZsLFPxV+4fE45hyLI56ZOE+SGUFiF51zBf6hKXB2jIMr1ds/IQ0eHt4w2+8OHVs36Np6wvR4NJxjCpCQEga7ZwkrnXdy/HlYWtmi31g9TBy+GLN2HsTGoPsITruBlIBj0NNZi/bjtqHtMBtstItH4OWbiE3PgLOLH8xsnZXjGB6KhlPEZYSTfEfTh52EzAs45xMCq30eMNzrAhNLc0yevwu9553GnvN5iL9aiKCwSOzd7wEDG1fo2Hhi98louMZfRRjJe/Sz2lcQBEF444iwSiQSieSfzMsL6zWEZ9xAOIlfeNYlRHt7Icn2MNJsTyDFPRmx8TcQlk3v0X/HlHV8nlnGv0epENao7LuIjM/Aub16WKy9D6O2n8aOFYswboM9FjteJTnMQ0KEBzZsO4TR0w2waMky9B6ljdkkiLtOHcf4xfsxd/4GTJ21Er2n7MGOow5YYXwC8zadwr5TDlgyzwRTVztjb0oRQnNvIu1SAg7bHcXc8fbYeTIFZyL9Ya29EX3GLMIPAxaiZe+F6DLBEAuPJOFMXCT2Wdlg+KxnCasfdpsfwNApVtiwdj1+1rbB9P15OBudB1crHXptMUZutEX3KYexwS4WQdkZ8HE9iEWzVqF195lo2mMRmvfTw1w7kmx+8G/mRUQHOENz3WZ0/mkeWvT9GS36TUP9n1aj7QJnWAVdQFxaFA6Ym2LUqCVo238+mvVejJ9mmWO1YwZcU24hNkPmtwqCIPwbiLBKJBKJ5J/MSwsreQtPwYzIvYGI1BikrB2Ba5+8h19rf4F70w8gy+M6wrNJaktpT2spENZriM0rQnBEFGzWbcWi7cewwyUGJyx0MGy+GYYYJeB8Rh7iIpzwy5xlaN1rNcZpumDL3gg4eXrBdq8B+vVbgO7TTLDIMhgWx4Lg5nUMi9ZZYsRSV9ieDYL+hg2YudQI631uwjvtDvLizsJAzxRtZxyH1ukMqlc2PL1IWo/7wvRYAOz27MP2LXroueMsdBy9cMjWFiNnH3mmsJqa2GPEzwdh4HAIm3faY/b847By98DyzRZYssYQO+0PYvi8I9hwwB8nPI9h0+zlGDpnD2aa+MLA9CA2LFmPXmsOYrFHOvzDvGG5ZjVGT9qJMTu8oWXnDgtr7mHVR78lJ7DnfBDszI5hzQJrKs8LRqcCsHf/IWzVNsfYNa7Qc84kIS+SOa2CIAj/AiKsEolEIvkn82JhvUayWkgimoXYsEgknw1H8mlXZE5thxvlSOk03sLv3XfhknEEkrxCkBSeiOikSwjnOa5/KOvf498X1vQiJF64AL/zZ7GKBHWFfhC8r1xHfKQ7lszRw/BlbjgcfxFhEW5Yt3ANek4yx2bPmwjOBwry4uG41xjDh6/BGM3zOJgOZOZfQ3qUK9aus8CoVX44FHoBgccNsHyTDgbb5OJ01C2kOh/ATi09DLGOw77wm7hy9RqiYqNhZ+OIrQYO2K5liJ8XrEOjqXZYZnWSpHgvRv589NnCamyDESSpJj4xsLc4gMWDZmL08tXossoZG63Ow+HUIUxaeAAbbU7BbK8ZRgzegrmm0ThNn2Nyc3MQ7rQbI2caYtjmk7Bz2Y+ZEzZg7HJn2CYDKYUPUZDlD2N9e4xdfBSWrsexbvEO9OqyHhN0DmOVpSO0jYwxfc5qfNtFF3MsI3D2ym1lZWVeSfgPbS0IgiC8MURYJRKJRPJP5oXCms7DfPMRlnQG6VoLcb1bf9zoNgg3vvscd6to4Pe3KuG3up1xp/Ug3BwwEUWbjyHN/wIieOhwKVqM6V8WVp5TegtJyfHwOG6NEZN3YfgvJ2HlEwg7x4OYPWIZBkywwTavTPgEu2PtWiuMWXUWDrGFiL58F+kp4Th2YC9GzDyAdfZxCLxyHwlZlxAX6oI16y0xcoUnjoRdQDLJ7iZNK/Ta7IsDIZlwsrbHto3m2OV/CZ5Uh6hgH1gZ6mP46F/QdsASdBoxDy0HL0Hj4eZYbXEUxnvtMZyE9dFjbZ4QVisMm3sKRmcuwNfnJDZOH4HGrSej40Y/7A3PgMupw5g0dx82Gu2Hnu1eDJl7ErtOpyOCZDQ55wIiA5yweKI+xk01xOYjdhiy5BCWmUTg/MW7dONdRUqcN3R3kbDOP/x/7P0FeFzXmqCNnn96pvuf6Zk71IN35v534HZPd09Pn6YDyYHQCTtmptiOmRkkS2ZbJskWWczMzMxUqiqVmJltgdlJ3rt2STJFOcfJMSjJ9z3P+1TV3ot3qfZ+tTbgER7I4aMn+emvt/Lawr38aukBfrVoDz+frQR5mSdHI9U49t4UYRUEQXgFiLBKSEhISDxrfPnllzx48GDy028PLZ2W/un4ncLaehNdqxLWqkRajqxl7M/+nDv//d/z4I//MfxIm2H9R/BH6vN//TNu/3wWt3ZF0Jbdg75nTOUTYZ2gZQRD5x2qyksItTvKW7M28P95cxs/W7ibn83dyv95fSl/ueQKa3yMpOQkcfyYD8stMolWjTT03aa5QRNWfxZtCsE6QAlr/12q23oxTQnr/jRC9b3UDrQTcC2aw/s8cMhJ4+iVCA5ZphJX04uxoRiHkxdYuPwS2z1K8MhpJSMnE3d3d+at9+GoQwj2SlgX/BZhnbclhqspHVR3VOB39RIfvneeDa4GMnuaSVbCumqLJqxBXPFRQro1istxzVQMf06jJqyFsez+VAnregdOh/sxf0pY++5S03WDxqpMLlz0ZemOINyUsO457sL87WE4JhuILqojJqdaUU9iYRs51QOUTX655JRgQRCEl4sIq4SEhITEs8bo6CjV1dUM/o5ndvf09FBTU8OtW7cmlzyKZzolWHuKSGMHhvIGamKjaD61hBt//q/4wiysfwT/aQ439vnQmFVJbUknxlqVfgbJqsYrFVa9+lzVO0ZuUhSXdm5m1nZ7Fp+O45h9JMevhGBz8hTzt9nyhlUyvgmRWJ1Swno4nYiqIfS9U8KqzbAGctTPRKGSvCeFNZVg/QDGkTvkRyfjbWXJEQd7PjiRyGaHRtXuHpqr4jm8+zzvrI7E03SPdtW3m121pPle5aP17uxxCMXhd8ywztscxZXkVoyDAxQWm/AL0hNZ3EtVZzWJ0cGsUMJ6zCceF/9rLJlzXNWtJ7YXujo7KI91ZuEmBxacjcM/OZQtqy+z8VgWMWp90+AdmnJDOHzgAu/sCcM5NQarw2dZ+KkPV8u/oPYOjN2DIfU6cPMBzd1jGBrl0TaCIAivAhFWCQkJCYlnDU1Wz549S2Bg4NdKa3d3t3kS7eLFi7S0tEwufRS/W1g1L1D+1XKbslt3qDQk0Lbil4z/h6kZVsU/+0tuL75MZ1IPFV23KDPfmOnpcl4tr1BYRzAoe69rryfQ/RprlluZn1Ua3QqtQ1/QPnCL3rosLp1QwrrgMtZuHqyz8GThnhTCNGHtu0NLQzlhfp7MWuXDQS8jBf33lLD2YCqL48AhJz7ZnkhART/6wQdUl+cQcdWSZUut+bVFGsfyb1DZOkxTXSWOdu6s2nCZPVfCOe2bymX7a+zaY8lfL3Bmt30QV7y8+HhdEKfD6yntfySs2um69nbX+GBNCBfjm9U67RmpN6nvu0WNGrDmxkriw3yYt8aL/T4FxObEcHbnQeZvvManF1M4e8mHA9us+MAqjAM5bRRVFOJz8Ayr119imV0KJ1yjuXz+NB8vt+ZnWyNxLigjzMeebastmL0/gr1Xk7joHs1p12RsgiqJKlNftPYR9Kptj29kQRAE4cUjwiohISEh8azR2NjIlStX2Lt3r1lah4aGJtdMhCarnp6e7NmzBxcXFzo6OibXPIrfLawayr9axynvr6PG35Lr//7f8OWP/h2f/4f/wZ0//zd88S+U2v27D7i9K50a4xAVvTenKePV8uqEtWUUg8pbX1uCh0cgn+6LxTmtXQ2mkr72m1R3jirxqyXIzZ/dK89j5eTPZ6cj2XI6lxjVSH3PLZoaDMREhLFuXyRnQmop6lV52/qo0mVw2iaAz45lE6YfoFItb2ypJiksgPUrXdjpWEJM9030Si6r28fIio/izN4tvDlvC3/1wXbe+uwosw+5MWdbBHbeMbiGhLPmYBxX4pso6x1/KKz1tcWq7UGs3p/AtbQ2te6muY9G1VdD2zj1TdWkxEewYX84xwJqKevsoCAjXEmqJa+/u5Efv7eXn8x2YHeAgYT++1Q3K9lODsfyoCV/+f5W/m7OTj7ee56Pd/rwqWUGwWXd1LTpCXZzZMG83fzk/W38wydb+PFsC17TZoCTWijrGTP/I0BOCRYEQXi5iLBKSEhISDxrfPHFFwwMDGBvb8/u3bsJCwszz7R+/vnnZln18/Nj165dyjU8GBkZMad/Op5JWLU7/raOUa4E2RTkSN/s+dz8m+0Mbj5Hh916ri99n7tv7WPoVAH1VYNUdo+jm66cV8grnGGdkCpjQwfZZY1E5XaSVzOEoV07Z1qhytV3DFBY0UhKqoHk4gZiCppJKOykqFHl18SwqYcifRNxOc2qoX1UtGmzi0pm69tJK2okrqCDwnrtPOwRqlr7KTG2EJtSR4oSv/JObeOp9K3jVFa3kJldgE9ULtdCcvBKLCMop4HIrBayK1rIqWwmNreFLGM/ujatbZNtb+wit7xRrWsl2zQwse6x/hmbe1WdzcTlNpNa0Y+hQ7WjqZ2UjDJ8QrNwCSvEPaaWFIPKqwTaqESzpqGV1Nxy3MKycY3Iwy/dSGh2I/F5qi9116npGqLUUEtEbD4eYTm4hufgElGEe2ItyWrctTbIDKsgCMLLR4RVQkJCQuKbRldXF9euXTPPpIaHh6PT6R7Kqq+vL319fZMpvxrPNsOqUO6ia+xHr6ulJq2EutgqqguaMBr11GQXUp+oXpVjGRtm3vWrGq/2pksKXcsops5b1PeOY9KE77FzpnVNSvDUurr+O6qhKo2SurruidnNyqZhZf+qzPabKu9NapQM6tWyCdkdp6Zbpe95PO2IEka1rP82dV0qn1aPOf0welVGTe8Dmgce0DqoXvvv0dhzm0ZVbnXnTUzqAKS+Z5zqdtX+x9v3W9puXq/V+Vj7KpuUTLbdpLbvHs1DD2gZvE/LgGpPxygGcxu1B/aq9T33zO3Q1jdps8O9Wl/GlXSr9WpMjJ23aRhQec1pNFR5faqOp9onCIIgvDxEWCUkJCQkvk20trbi6urK/v372bJlCwcPHjTLam9v72SK6eOZhdWM8oSO21QMfE758H3KlWNUdKnX/i8oUy5RrhxLZ/amp/O9el65sE7x22YF9ZPPAdLSTJfu6/J+XdppT5fVZk2f4Mn8X1eHxm9bp/H0+ifrUTy2zszT659qi3l2epo0T5QhCIIgvFREWCUkJCQkvm30q32Gg4MDGzZsMF+7qt1F+HfFNxNWDW1i7zGe+Dxd+pnBjBFWQRAEQfguI8IqISEhIfFtQ3vOqjaj2tDQYL629VnimwvrdxMRVkEQBEF4DoiwSkhISEi8zBBhFWEVBEEQhGdGhFVCQkJC4mWGCKsIqyAIgiA8MyKsEhISEhIvM0RYRVgFQRAE4ZkRYZWQkJCQeJkhwirCKgiCIAjPjAirhISEhMTLDBFWEVZBEARBeGZEWCUkJCQkXmaIsIqwCoIgCMIz87iwOtjbMzw0ZD6gkJCQkJCQeBGRnJQgwirCKgiCIAjPxpSwuvtHmIV15MYN8wGFhISEhITEi4iU5ERsLtiKsIqwCoIgCMLvRhNWkxJWr8AorK0siQwPJS01RRAEQRBeAMnYXT7PmXMXyNO3Ut19Z9p90/cBEVZBEARBeA4Y1D6uqn2c6JR8zl24rA4iznPu/GVBEARBeAFc4tTps7h5B1Fc3YWp8+a0+6bvAyKsgiAIgvCc0LfcoLS2l1xdM1ll9WSWCoIgCMKLIbu8gcKqDnRNw+b9z3T7pe8DIqyCIAiC8Bwxto1R031HEARBEF4wdzF13pqQVSWt0+2Tvg+IsAqCIAiCIAiCIAgzEhFWQRAEQRAEQRAEYUYiwioIgiAIgiAIgiDMSERYBUEQBEEQBEEQhBmJCKsgCIIgCIIgCIIwIxFhFQRBEITniHa3Ru2ZrIbW0clXQRAEQXgRjKJXr9Pti75PiLAKgiAIwnPE2DZKdedtTGZuCYIgCMILoVoJWlXHzclnsMpjbURYBUEQBOG3MDWzml1WT0hMGr6hcfiExguCIAjC8yckDv/wBBIySymv78fQNjrtvun7gAjrN6FlBGP7GKaOUQyq39OmEQRBEH6QaAcLpo6bBEYmYWlpgc25s9ja2gqCIAjC8+fyZY5aHuGSnQMFxnbzbOt0+6bvAzNPWFtumM/FNmiv06zX/oNt5onlk8sUj6d9Ebysen4vVPu+co67ud3TpJ2WR+M53TYQBEEQvoomrNqpWR4BEZy3OYfRoKerq1MQBEEQXgiBAb6ctblEbmWLCOvLE9YbGDtuUdd/j6a+m9S0KzFserRe1zxxMFDfM67KU2U1DatlKk3rOLXdKl/3GAYt7WN5ngstmvANYaoxEBiezTmPCuIq+9B1jpqFbuZInRqPllEMHbdpUGPYMnif5oH7tAyo9703qdXGU6XTfSXfk+haxsznxWvjXNX65DYQBEEQpmdKWN39I3B0cGB8bEzbXUpISEhISLyQSEtNxuainQjryxJW82xe2zDFpQYio3NxTagjUa8qVpI1NdNnbOwgu6SGkJQGUlUdFe1jGFsG0FU3EpNRTXh2G4WNw0pgn/PMYOtEPbX6FE6dvMbHG6Nxy+9E1zduFuSZIaxKLNtv09gxiEGnwzs0lXNuCVz0jOeCTwoX42qIrBikSo2l8WtnWrVxG8bY0EZaQTUhqY1kmtT4to3MICkXBEGYmTyaYY3E/upVBvr7zQcUEhISEhISLyISE+JEWBUvSVi1a0NHqGpvI9LDiTXztvPT1T5YxzZR0qOksE0Txhs0NpTi5x3Isl2xXE1qo3L4cxrbO6gsTmC/hT8bzhSSosoy9Y6b0+tb1cGD+ZrTSbQ2qOVmMVNtqVJ1GrWyH0tT1XbjsetTRyauSeq6Q23ndZqrMzl/zp15W2PxyO9SwnpLpR+jeqp8cx3abKyWd+K03Kk6Hm+HNmv5qA713nyQ89h6JYjm9drMrso7tXwq71flUfVJpdVO+TWVFhPmaMvHK/bwZx9s4yeztvC3s/fwFxv92BNUR4VqU3Xn+JPjopVrrlMb5yHqa/Owd/Bn+b4kvAt6MA7eNouuXruG94n2aNv08fZMjNfjfdHSaGVPnI48uU0eW6+Nz9eN10SbJsZHu+vmI9Ge2H5G83dquvEQBEF4+YiwSkhISEi8zPh2wqq8oW0cXectxU106thb9/AYe2YyM4RVOwW1bZDqmkLs1KC/+cZO3vjkOLt8y4hsvqPkRDs1dYTmxkI8XT34eF04F+PbMIxCS2c7+qIotuxyY9nRXJJVWbX9tzCp9JrsVXfdNJ8urFGjOmtSQqo3i5Va16nqVRuqWm2wh2k0CWuZvC10y8TBR03vPRp6Rmmty+HSBS8W7ojHs0AJa/9tJas3qet6LL8q0yyVk3JnrkOleViHak+NJmVTdWiy3jFOzWT+h23QytDkTrVvanlttyrHnPexsVPo226apa8iJxFbi9PMWnqRVXaxnI7Owy08B3ufVPbvd8fKOZkINS7lamPWPtZnc7nmOlXblbA21mapfroxa1MMbnk9mK7fpVq1R3vW0xPtUX3R2vNQvqfG6+F67TRt9VmVrYmnWWjbVV8nx8u8rlMb74l1D8dL2yZa2eZtoZarPCY1RqbWidlsXZMmsSqdeXuqMh8bC0EQhFeFCKuEhISExMuMbyesSlA7blPRe19xjwp17K1Tx9jTp50ZzAhh1bfdpqqhG126H4cvevLOOld2rN3JJrt4LhTdUpIzpiSvm6y4YCy2H+CnH1vy0bar7PHNxi66AA/bCyxdso+fLDjJ6tOBWIbVkWzqoqQ4F9uLPuw66sLGoz4ccsgioGKAirYO0nMMOAXo8AsM54qzC1usXdl2NoiLcfUk1j5QIjZKU1sjMVHxWJ9wZ9dxF3ZanuK9Ved4d08y3iU9VBgrCPTxY88pdzYfc2eTlR9H3QqIMAxS2dRCQqYRR/8yAgKCuWiv2mDlys4LYVxJbiWt/r6StlFqezpICE/gnLUL2xVbjrth6VNOmH4EfV2VKj+MA5bXVPs82H4qkqtJDWS23zbPRhrN46fkrXMcfVMXSS62bFt9hI+P5uChbL7hFnTc+JJmJYdFicXEplWSUNdJRnoydvaeqs1ubDnmwbaT4VyOqjGXW9ncTnqoJ9vX7eXvZ1kxb58Tu73L8C3upbK6En+vUPZZOrPZ2pMdZ6JxSG0mq/2+eZa5sa2JuJgEjp1Q20+VvfWkF9svxHE6pJrk6us09qvvRW4OFy94ssvqGhusIjjuZSSlcVgJabMaL4N5vPzVeJ27FIi1Vymh+gbCoxPwDMolpGKMkmb1XehTX8rsYnwdk/FU9ac0jU/MxD4l8oIgCC8TEVYJCQkJiZcZzy6sSlJbbypBvaVktRNTlB+tFtZ0W5yj06+cWsM45V1qvfIf7eat05fx6pgRwmrUBtjURNK18+y+EMRnjlnYHzvAkiPebArpVuY/Sl1XB3HeSugWreUvfrWev/xwB+9a+bNNlX9m/2E++eBT/vuvNvLTVSeYfyUH56gCAh1dWLvBmt8sP8Lbiw7x0QYHtvkYiS8rxsfdk1mLbVm12ZKVO/bxi9mbee2jDbxxMAbr9FHKGlqU5PlzYLsFP3t/P6/P28OvF2zizz604tf7UvEu66G8KB37syf5cI0lbyy35Ddz9vLhJme2RdSTWpGP21V3Plx4iXXbjrB06z5e+3gjr8/eyjtWqdjkaCLeTlFhFCf2nuCD3+zh9bm7eX3BXhbaJGCb0kxMUBiW+07zwbIjvLPsMO8uPcays0o28wYpVl887fTlyuZRTJ2DlFeVY7f/Ilt3e3G57Dp5Hbeo1WaT1ZdOw9Cm0nfdwVjdTHqIB3v2HeVXKyzN5b439yBzrGI4U3ydwvomYp1tWTl7NX+qxvmvZ+/hvRNRWIdVEOkXyGHVnve19ixV7Vl2guXnM3AsGaG8sZXCxAAO77LkNfN47VXjtZE/fc+Cn2+Px72klfLKdBxOneLdT/bx00/28A9v7+etNV4cTm8kr64QD3ttvC6yZuth5q0+w7ITabiVVOB50Zr1O+1YFz5ERv04Pf1GfK65sGjORfZ66olrUf3SZoBFWAVBeIWIsEpISEhIvMx4ZmFtGULfpGhT+6oaHU173mXsj5TS/cG/4PNFXnTGDas0A+hbB1T6IcXMktYZIKwjVPdep7iiAqdD59h7Lhbn/EbSgl1Yss2ROedLSNGkrPsG1RUZ2F+8yoerPTjoXkCUqY9cQx2Z8QFs3HqFeXti8Mg3kVJTxtXjXuz41IMTkWX4FtaTnJKMk7MHC3eEcs47Gkenc7z7wW4+sUjgYnon6Rm5RF67zEebXFnklEdYfgKntx1g4Wcu7ApqJSKnmsy0MPZZODNnZyJeRd1UdvRRUFpNdFYVYRlGkoIDOXnWgV+dzMA5PgVPm2O89f4+FpzJxD6rk6y0NPyvXuDtDR586mkgrlAtP3qYz474cyikmcicOhLza8msNRIcGseBFU4cuJyMc1EDMRnFRIT4smGfB6tP5ROrNpS+awxD600lpu2U5sWye/UlluyMwbvxBmW9NzE9Ns567RrQ9nGM6staYWomNd9IWGYN0SlFRLs5ssLSnY+cqkmr6qaxIplTx+z4YJ0fp0LLSGkx4ecbwb5lThxySONacSOxGQWEBfmwdrcPm+2z1XglcnrHARavdWZHQAthOTWqv2q8jjjxyc4oXHOzcb54hpWLjrPG0YBbVhtJgT5YWJ7ljZMpXEtMw+fiCd5+fy/zTqYpYVfbpLKf0voOKmI92WHlwBsXjMToBunXJ3NBfQ9+vi+Rqykd1HSPm6+RlWtZBUF4lYiwSkhISEi8zPjdwqrcq3UIXWs9NdnptPrH0+oRSOfynzP2T5XS/ej/5otfnWDgRCKtIfG0ZOkw1fSq9KPTlPXqeMXCquy9ZYy6jlZycxLZtd2d/fYVFN0Yo7Y2G8vNF5W0huNmGKVENaCzRbvpUgCLtsXhkNZNzU3o6OnCWJbA7kN+fHZGR17vKG1dBVzed4xf/nQHb29RZVg4sXH/cT5Zto8/fe0smy/4cMrTmU9W2XPAv4EMdUzR199LXV4E63a4s+JECO6xfqxec5HPTuYQ3QHNw3cZaMnnymVvFu1Mwqu4j+aRXnLSkjlmac+a3ZdZt/Uwby89zJ+uDeRcSAwOV66oOpyxiu4kfwiG+trQpQazdLMHGy5E4xkVxGfrL7HLqZS4Lmga+pL24c/pGawlxseRub/azmvzrZlr6czagxdYvWU/f/XaAX6xNgI3tVFKlZRWacLa3EJJZigbNruy1CKb2OZhKnsmH/HzGLqWcWo6R2hoNhHkFcj23XZ8uvs8q9fv5n/PO8nPLfOIMvbT1VmMg70fi3crwS4fpvt2I9Hu9nzy+nZeV8I5T7Vn3UEbVm7ex1+8dpQPd3hyMT5QlXOJ9ccyiWxTfRm+x0BroRoDf5bvDsUtLowDRy4xf0MwLhW3MY7AQHMRgdeu8s4SVyxcgrFxsmfWKieORrSRp7ZJS99d6tuHaGrM5cJZT+Z9loh7fgd5ia4cP3GG+e7NhFeO0dqlXZf8ZF8FQRBeNiKsEhISEhIvM36nsLbcRNc2QEWNElWL5dz607/i7p/9DXf+659wX5th/Uf/hC//7Z9x7//719z923e5syuQtpwu5RHjyhtmzizrqxfWttvU1VaRHOzIJ0tP8NZ6N6x8Ijjm6MDCD7bw9hJHDqQMktNyi67GQrzcvJm3JZJLsU2UDdynrrWN8vxodhzwZPXJYlLrezAZUjhleYbXPzzMR+tPMn/bGeZsOsXsjVdYtisU+9BIznoFMH97HI7JLVQOTZRTmh/L9v3+bLcKxD3UjyV7IzjsUUVp/y2qO4doMGVxQcnukt1xeGfqSEyOxPrQGWatPsWH606zcPMR3lpxnJ+v8uFCQChnrwWycJeS2/xO9EP3aGhpJDc9kvW7Ajhw1g/nQB/mbI3hVHAD+kElmO1j5hstNdWXE+LhyMfzLHhziZVq5xnmbjqt+mDD3A1u7LUvJKxuiLIu7a6+kzOsJbHs3ObA6gMpRDSqcrq1GdZhdNozVNUXzqjd6KjrOhUlxfhfc2bDlpO8u0qNy8YTzN94iH+Yf5YPD2QQou+hvjkfu8uezN+pBDG3k4b2CgJc7Hl/zhHeXmY92R41npvPq23hx3G7EBz93flgZwg73IyU9t1W4zVMnTGTCxd9Wbo9ELcQf3acDGbV8SJSVJtMakxbOqqI8fVj2fsX2XvJld0eQSxQ4+WZ04F+4KYSbu0mTTcw9bUTfNWLQ2svYZ2o48x5Jw7vuIB1xgCpTbepmbwZ05PfLUEQhJeLCKuEhISExLPG559/zu3btyc/fX188cUX5nTa69Pxu4VViWfrIDrlMI3nLRn6zbuM/vx/cO9f/yH8SJth/QP4Z/9dyerb3FiymesnUmjO71MeMSrC+pAWJSRdd6gsysPv7H7emrOJ//buLn42bzc/m7Odn7yzir9aep65Lg3Em0boaS3C09md2evCuBDfim7kS5ra26jIi2TrTjdWWCthbe2nriGDE5YOZrF1LeihtOum+c66eu0uuEpuGmsLcHX2Mq+3TWiiXBPfllZKc6PZus+PbSdC8Ij0Z/kWH/Y66Mgb+IKG3lGaK5M5fcaDhbtDcI8IYO/uM3y8xofzeUPkddylpaYAX3cPJZX+nPcO5qyzPwt2xOGmBEw3oIS1uYHc1HDW7fRn34Uw3EL9WbbZGwtvI7l996npuUt9z23a23QEe7szf7U7R3yNZHXeUm3XrtGc4rExbB7D1K3956SQS7tPs3KFI0fiOkhtua3aPHGn3urOm+hr+zGZSgn1d2HBvJOsOJ1FQMMDtU36qCqK5pCFE3P3pRNc0aWENZfLNq7M2Ryvxq+XpgEDAe7uzF3thXVQDTmqTHM71PY0tN+iubqCBB8n3l51jZX26kvU9zkNfeO01eVia6uEdGcwbpFB7LF2Y+m+JEJMajsMfUFXawXhHm7MnmPPwatqHNwnxss1sw1dnyas2gGgknLV/5yYMOxP72btFSX5K3zYuSsW35pBirvHqXo4FoIgCK8OEVYJCQkJiWeNgYEBcnJyaGxsnFZGtdCktrq6mry8PG7cuDG59FH87lOCpxhCp/ZRhvICGi6u5vr//ld8YRbWfwL/aT7XLWOoN/ZiaLqObtr8r5ZXKKzaY1u0Z6ZeJz0mmFObt7LQIpg9fgb84ssIiCkg3NOJ9bvP89N9GbgW9tLaVYa3nTOfzHXHIqyObCWsje3t6JSwbl9jp2QnheDWQQx95dhbHmfBwkscjhkkpwe6h+/TMvQ5rQO36Wgqwt3Jk7mbwrkUPzlTOymsW/b4sPlCHL6pEexYZcNGyxT8W8DYPowhwZMdu87x1s4gnMP92LrfmQV7U4lsvk/jTejUpXPt3Fl+udabEz6h2Dj7Mn9bLK7ZHVQ8FNYw1m73YZdDDsGpMVhuPcz6M0k4VjzA0KEks/smzQMNRAe7snbOYdacLyaoCXPb24dUHwbuqDTa42fUGGqzp1N3CW7uJN3bga1L9/OLz8I5m9tF6bAS4N47GBuHlVCmEBbowXl/d95b6cF+dxMlqs3tfdcxJXmwedsZ3lDjHFDZTUNLPnbW9sxaGIBNZjuVd9qI8nPm09kWfGarI0yNR9vQA9WeB7QMPqBzsJ2ctFA2LjrFysOJ+Ggi3D1Ke10Oly/6sHRvJO4ZCZw+eoz5i2w5HD9MZofqU0kiDhfO8dr2EGwCo3G65sOCrTE4ZbRRMSms+pZRKttuUWMqJ8r7LAuX7eSvF3uxw7OJPNX36s4RmV0VBGFGIMIqISEhIfGsYTAYOHr0KA4ODrS0qIPraaK2tpYLFy5w8uRJs9g+Hc8mrMq/Wm5RdlO5TL4vXW/9JXf++T+anGFV/OF/5P4b+xnwrjNP7pX1jE06xszh1QmrNrvaeoP6FgNezk4sXnaeg4H1pPcqibqu5E/JVn9HEQ4nL/DWx3YcDGsgr3eA5JAwdi7exgdrj7LgagZ2mV0UlBtwtVIyM3srH1m5sS2kgGsevpzebcEHq+2Yu8OJDYevsPqIJ+vPp+GXGM8VZzc+WBOMTUwjZUq66tUXpTQ7lHVbXFh+Movo8jLCLl5m7VprfrXTmdWHr7LziBVvLjnFG5ujcEsrxsHJjTVrLVh+8CqfWjiz48gJ5q0/zt8u9uCMdyAnr3jw4WcROCnpqxhUUttcR05SAMs+c2XdpTJSTAZiPW1Yv/E4b69zYvX+q3x22J6D/tlci8/j2qlTLP/0FO9ucGbtIXu1zoEVR8OxDjKRXj+MvmNS1lrGzGJXZdQTaO/Ap8v38+42G+ZbXmPDEXtVrgMffHaNQ26pBGVkcOTAGVZsOsEKbb3FFbYesOT1had4c0cyAfp+avu6iHDxZMO8rby/5QyrfLK4GJSAo/Uxlq45y3sbnVl36CrrDjuywjqaM3G1ZBgriVLj9dlaK361w5lVqr2bDxzj7WVneXdXHO7FJpLjfbHcZsG7n15lwW41pp9aMfszO1YF6ogry8Tlkgsfrg3jSmorFf2TwqqdNq7+0BrUgV+2EvwDi7cze38wJ4tuomsepXaGPzdKEIQfDiKsEhISEhLPGl1dXQQHB7Nnzx7s7OyekNYvv/ySmpoabGxs2L9/P9HR0eYZ2afjmYRVOVdl6zjl3bXUeB/hxn/6D3z5oz/l3v96nbG3/xv3//Mfwp98yO3tqdQZBqno1Y6xpynnFfJqhVXlra2twD8wll1nc/DL66KyV3umpkrbdoPqvmaiAiM4vssLm+hGkru+oFJnIOjKCVat3cEbewI4FNdHbv0oJUlhnNy3nXfXnmbu5VKCSxrJSgxj12ZrfrNgP28s3c8vl5/ind3h2EZl4BOdyL5zmXgpmSzvvUNNSydlJVmcvhyLpVsVuQ191Jamcf60Db9YsI83V1iw+Jgrnx6P5pBdGTGVSqDSojl3ZB/vLTvALxYdYu4BO1afjWL7iVQC49JwCUlk7/kcgou60fXepra5lYK8NKzPx3PSt5aijgGMpgKunrVlzkLVxsX7+PWSgyw+p/IWDVNSnoudEvZP5qv6lx7kjWWHeW2NCxudy0msG8LQOfroxkraeHbeo9poVBJ8hVWbjvDawkO8tWQfb6yw4peWcZxJH1b1tZDoZcvWrXt4fcEB3lHSuPSEB6uPx2BxpYh4kyp34HPKCvJxP3eEhZ/u5W2LBM4riSwqSufS8fN8bG7PAdUeVcc6d7a5m8huHKDJkI+DnaOSzhN8rER/7vIt/PlHFvz1zhS8Svpp628hITyAjWuP8M6Cvfxs3gWWHs3Az9SHscOIv18se89lE1DQha5bSbjq10Nh7eomPSmJ/RvPs/tqBkGNt9Gp75N5pnlqDARBEF4hIqwSEhISEt8k7t69S1BQkFlanZ2daWpq4tatW+bTgG1tbdm3bx8xMTFfe8rwswmrOpZuHaWioYWqqAC6tu5meO55uk/50Rx0gr79mxlZdZFeh3LqlAhWdo2JsD7dAH1TPyU1veSpSsoah9E/PmPWOkx5bS9F+i4Ka4coUyKrbx6ivLqNnPIm0io6ya0dpkIJjb6hR6VrJr2slQzVgdImVXZjL/m6FtJLmkgt1WhVebooqOmjtK6PgiqVrkFtGLUh9dqddRv7KTT1UlA9qDbUDYzN/RRVtZNmzt+sBqaLHGOvSjNAeZPa+A2qbQZVp1qXWtJMRmWHGixVZ1UfZar8ktrJOlS/JuoYQqdEuFClKawZNC8ztAxSUtVBpta+yXoy9L0UN6o+aeuM7RPrtDoUKWVaHf2UaVP1T8ua+jIaW4bR1XaQU9FibpO532UtpBlUnWo7GbQbMan1uTqtzWoM1bqJfql2mfpVvybK0Tep7WFqJau8WW3bHgrrNXkcoFi1J2OynVPtyTENUtGktl1dO1nqSxKZXUt0uo5EXzc2WDryq3PFhJUP0tqr/gDqe8jVylRlpJSo9GpblZuvhx2kVH0P8s3bZGK8zH3S/ivUNk6DLp8gxyu8tcGHHX4mCrvH1cGhNqaP9V8QBOEVIsIqISEhIfFNQxPUiIgIs7S6uLiQmJjIVbUP0WQ1OTmZO3fuTKb8ajz7NawK7TmstT0YDO0Ydd0YqvuVP3VhqGqjqrITY/WAOv5X6WbgZNArF1bttE5tB1+nXZepBOSJc6abRjCqdTW9t6huV7KlpEiTqaquu9T33aOp5ya17RPSom/X0t2nse8ODV0qjarLoJbV9d6lsf+emSa1rrH3pipL1dU+/lidSuK0mbzWMWq6VJmdmhhrn8ep6b5Dk5a/7y4N3bep1+pU5Rs1yWpTdfZMlt2v1vfcob5b68u4uXxTx2QdrY/q0JvLVJhP51XLW8aoVnU0mMuYKKdebRSTdudb1R5t3UT7tX7cVX24Rd3UzOrjY2VmYnyMnaqdqt9aWRP9Vu97VJ1tKo0SQGPnHTUuE3Vp/arvvjXZr7GJGzpp8qnqNnWrPqlxblR5q9tUe1XbH7VnIr/WHu19ZU0HsX7uHDl8jPnbbViw5RwLl51l2bFojuV3kau2Za12A6UOVZeqcyK/6rcqu8osp499D8zjNdEnvcpjUP0pjA3g0pE9zDqbx4XsUfVHqUnuVL8FQRBePSKsEhISEhLfJoaGhswzqXv37mXp0qUcPnyY1NRURkdHJ1NMH99IWDXvaL9FRd99ygfuUtFzG12neu19QLk6Jq9QfqMze8DT+V49r1xYhe8+moTqajpJDPbFyuo0i3acZ9H2SyzYFsjxABOZ2um9mmR/iz8A7cZcBiX/uZlZ+PsG4JzRQVLt3Qmhnya9IAjCq0KEVUJCQkLi28b4+DghISEcO3aM2NhY7t+/P7nm6+ObCet3FxFW4QVyA735tOfp1n0LVFlaefrnVZ4gCMJzRIRVQkJCQuL3Ce3037GxMfO1rc8SIqwirMI3Qompdhp05y1qu6cYnziVe9r03wy9dqqzVn6bJsDD06YRBEF4lYiwSkhISEi8zBBhFWEVBEEQhGdGhFVCQkJC4mWGCKsIqyAIgiA8MyKsEhISEhIvM0RYRVgFQRAE4ZkRYZWQkJCQeJkhwirCKgiCIAjPjAirhISEhMTLDBFWEVZBEARBeGZEWCUkJCQkXmaIsIqwCoIgCMIzMyWs7v4RONjbM3LjhvmAQkJCQkJC4kVEakqSCKsIqyAIgiA8Gw9nWJWwXrGzpaery/zgd0EQBEF4EcTFRHHugq0IqwirIAiCIPxuNGE1KWH1CYnB4sghXK854efrIwiCIAgvAG9OnbDm3PlL5BvaqO6+M+2+6fuACKsgCIIgPAf0ah9nbBsjKVeHk7sPtg4u2Dm6CYIgCMLzx0F7dSUoMonS2l6q2sen3Td9HxBhFQRBEITnSdMwFY1DlNcPUCYIgiAIL4jyhkF0ap8z7b7oe4QIqyAIgiA8RwytE6cGa2jXtAqCIAjCi8DUeQujNrPacmPa/dH3BRFWQRAEQRAEQRAEYUYiwioIgiAIgiAIgiDMSERYBUEQBEEQBEEQhBmJCKsgCIIgCIIgCIIwIxFhFQRBEARBEARBEGYkIqyCIAiC8BzR7hL86C6O44IgCILwApjYzxjbx9S+R+4SLMIqCIIgCN8Q7dl4giAIgvAimW7/831DhFUQBEEQngN6tY8zto2RkleJi1cAV5w9uOrsKQiCIAgvBPtrnoREp1Ba20uV9jzWafZN3wd+kMKqa544XauuexxT2w0qm6ZPJwiCIAjPiqFtFJPat/iGxGJx5BDOjvZ4e3kKgiAIwvPH04OTx604d/4S+YY2qrvuTLtv+j4wA4T1Bnrz9T7jVGt0jqm0IxhUuV9N+4y0aP/lVmW2jaCfZr2+aYDSmh7yjH2U1A+p9M/hvO/H65y27TcwqP5Xmfv2Ks4zV/U+0T6tPerzK2uPIAjC9wvzb6wSVo+ACOxsL9PZ0cHdO3cEQRAE4YUQEx3JuQuXya1sUcJ6e9p90/eBGSGshjYlqZ03qenS0MR19PkIq5KxJ+RRLdfKra2rJDg4ll2nM/DMbKO8e9y8fDq5fWa0OlUfv162J4TRpPpmbH0FgjjVvo6p9mnjPtVeEVZBEITflylhdfePwNHBgdGREW13KSEhISEh8UIiNSUJm4t2IqwvTFiVQGkyWd1YT3xcIsdPe7P3lDtbrYKwcCwkrKqf0q4xDCrtM4tki6qjpR9DVSXeQVmc99WTbBqkUkmiuQy1XpO1xtpcnK9c4/3VwdjENFLWf/PbC6smwc2DGKpNBEcX4hBiIq1aq3NqdndCBk2NDSSlF3HVX0dkcTcVU2160Wjj3DxEVW0N4XGF2AebSDb2U91SR3R8NufcSggvUu3pVO35tmMgCIIgPDbDGon91asM9PebDygkJCQkJCReRCQmxImwvmhhNbTeoK7BSISvM8sXbORPf/op/88vjjLvcBIexkF0Q3ep77pJdedt6nru0NB7h7pu9blNEyvtzlja6cRjmLrVerWuoe8BzT03qK9WYuYczT7bImKMA+hUGdp1RbW992nsu0N3Wxm+7j7M3xzB5bhGSvtumy9UrlXl1Gvl9KryzPWo8s0zo2PUKHmu7rqlXu+Y09T33KZWSV5V2zjVrX3UGlKxPu7Bwr3phJuuU3f9DjWtWj81EbxBQ10B7tfcmfVZKDZRDapOTZK18ifGQ6fEVutL9WNtqO+ZuMZWr90BzHyd7QhGcz8m26Co006hVmkM7TepUXm1Mao351VtNc/mjlHVMkhDdSY2Np7M35lKQMUgbQN1hIfGsudMJt7ZHZSp/hq1MVD9ejQGKq95Nvi3jIGqo6rlh3GHMkEQhN+GCKuEhISExMuMbyyskz6h67xDRf8DyvvvU6GO73Was0yXfobwik8JVqKlZMdgKCPMz5V5q+xZYZ1OWGUPhUpIK9SgVjQMUl7XS3FNL4XV6rVukArzrKV2DaaSOZW/vK6P4mqVR1tf00NpTSeZ5W2klnVT3KgdRKj0jYOU1g5QosoxVGbjaO/BHE1Y45upGFCypqSurKaPInM5qjyVtly1UZt11G4ZXd6g2lPfT1ntRD2FNf2UqmWVbUqGW3owFMdxxMKJ2dti8Mxvo6hjhApV99PC+sm0wqr14+m+qLbUan1VbTD3U6FedQ0DlKr6i7Q2TI5HWaNqW0M/JbUTy6baV2Zu37h51rm6IomTJ5yZtSkSp8xmitvUNtKpMSrpJL92CL12+nTzkOrf1Bj0q7KHJkRatUun6tDK08ag9PExUMt1qm1PbldBEIQfHiKsEhISEhIvM76RsGrH69pElHKbSuUNeuUNenXcr28YUuu15ZNMl/cV88qFVdd6m+b2ZgqzIvlsZxD7XGvQDQ4qiS3hils+Jy6EY3fpJKt2WPP2SiuWHw/hUuYwOY33aL0+SHFFAVeOXGbVyqO896kV83dcYJ9bEpZuRVzyNZFRO0xjdwPRwYFs3XSSOWuOMXvtPn4+34KffKaENb2Lhus95GUp4dxrw9xVR3l31RkWHwzhclYXxS0tJKXkY305i8u2Tlgdt+KjtdZ8tNGGHe7lhNXdp6K6mrAr51g8Zz1//s5O3lh7iqW2WTjkDKovxhjVSgYb6grxdPVi3qZwLsRos7pTwqrGoGWc+s5eykuyOHv8MgtXHeG91ReYvysGh6x2igbuUt09Qk13I+Fe/uxaY8UnivdVO9ZczsQ+tZX4kAAOW5ziPdW/D9ecYtYGJw756EjsuKNktpEoZ1tWLdjAX7yzi1+tOs6K095sv5LKCZdyYsoGqO/vJjcjgSP7zjJvtQW/WXWFVVYZ+FX2UdXTQFxSHlaqLls1BpbHrFQd2hicZ6dXOcGGu0pqR6ia4f+dEQRBeJGIsEpISEhIvMx4dmEdUc51k4q+W+iUd9W6nqRn3lxuzFvF0PkMGkvGKe9W65WvzURpfeXCWtmqZK2plozEYFZv9WW7vZHiznZK88LYvP40b8w5xtoj51i2+xwLlm7mnZXWfHChEq+KGxiq8/B1vsjqlaf5ePlZ5mw+zYp9Fzji6MHC7d4s3J9MUIWJtDgfDm214I1F5/h4/TmWbjnILxdZ8fONSoaza8kuKMDlrCtbDl5l5UF71uw8x6o99qy7WkhglqrDw4n3Zx9nzmcnWWd5gUXrLZi7eBOvb/VjW2QPmcZqIlU7ls3bxF++u4d3Nqj89rk45/4uYZ244ZGxa5CSwnTczpxk7vLjvLFS9WWFFR/MP84C+yyca8cxNTWRneDF4T2qr4vU+vWnmLv5FOuvZuOY1k5iZASnzl1l6X4H1uy+yNp1R5lrHcXhrAEKaxpJ9LjKp4s28b/f3c/b606x8cxlFux05L114ThkVJNdGM/lI9a8v+QUv1ljw+zFFry/XI1tgI5YYwkhLo68P+sYc9drY3CehZ9NjsF2f7aEdJHbNGK+oZNcAysIwg8VEVYJCQkJiZcZzySs2qV7rf0Y6nuoqu+jqrKU5m2/YvxHSul+9Ad8OcuV7rBejHWdGJu60TcNms+wnLasV8QMFFYDRV1dSljD2bl6O79e4cihhGEy6sdoK0nE7pwdP98cxumkCgJ9r7FzgxVbPU0EVWqn9Sr5a+xEX5rAESsvVlrG4pMTz7HdR1iw0onDCdfJrBuluTaXa04+SmpDsU9J5cpFD9bMtedIUCFeRQ0kpabg7OTMRyvdOXglDAePi3w8ey/zTmThortPdW0D5dEeLNtiz7vHC4mr7cJUlcpxa1cW7k7Er6SLsq7RifPEH54SPJ2wamNyg9qeGoLcrrL6kwOsvlSKV9V9qirKiLpmw7s7PFjnqyc1J5ULew6x9mgY53LGKawfxtA0QFnjxKnCVc3d5BTXEJVhIjoxjwjXK8zZ68K7tgYyq3tprcnk3Bk35u9MxCOvjeqWIpzsfViwLRSH1FSuXrZhydwTbPVpIqJW9bEgFddLZ/jlnlCOBaYS6HKBWbPUGJzKxU3/gJqaOkqj3Fm02YH3j+cSWzesxHviJllPbmNBEIQfBiKsEhISEhIvM363sCofadUu8aukPtKX7hNX6LE6T9+sv2P8nyul+4M/5vN/2M51dTzfc95ZiWsutYYedNpM61fKenXMTGHtaKckP4pt2+xYZpFKcO1dTIMPGGgpxsfVm1kb/LkUFMnpK+4s2RKEY24f5YNf0NT/gJaeYer1KVgd9+HTg6F4xgaxabcTqy3SiWy6R60qp0+76ZJnEEu2huAQFqFE7gy/+OlGfrLgIG+stebDVXt4/ZMd/M+fn2HjeR9O+Xkyd70HVoF15A5Ae08fdUXR7FBCuMAyl/jabmobsjh92pulBzOIqFIDO3yH6iduujSNsLaOKclW7a0vwOmKM3NWeXMuvo2S69DZ3UZpagCrV1xh9SE/bCODWLHFlX1OZaR1P6C27y5NPbfNN0Bq7OjDoMvm8mlb5i4+zLvL9vPO/I38t49O8pZ1AbHVfbS05HP5og+L92YQVDFAe18Fni5+LN4ajFN4KEfPXWP+pjDciofRq/p72qtICnJn7gIHdtr4ctbbgzmfeWId3EDeIHT09FBTGMWW3S4ssswkpm4IvQirIAg/YERYJSQkJCReZvxOYW29ia5tgApTNG175nLnP/4XHvzH/8r9f6VE9R8rpfu//oAv//g/8Pmf/Fce/Onr3NvoR0dmN/recXTa9a5Pl/eKmKHCqqQtP5qte/3YcK6YdO0goGeMpvoivDwDWbo5AHsfHw5f9mfu3hzCdH1UD44pMRynuqWHqvIkLI/78uneQDzC/VhnEcrmy+Xkdmp34dXKKcbTPYilmuz6BXL8ogPvLL7IZ1bu7FVSt+uMN7vOhnLENoPAxASu+AQwf1sMdnFNVA4p6W3tQFcUx96Dnqy2zidBm2GtTufECQ8W71eCXd5r3tBmeXsWYTVmcvWqN3N2puKZ14Hp+j3qO9spy4tn1yJb1m26hEWQD+/vjOW4Xx2Vg6MY1Hhq143WtHSQk5aIjeV5Vmy3Y7mlP3vOurH/hA3vrbRlvkW2EugeJdQ5XLDxZMGeVHwLO2loL8HFWQnr5kCcAgI4dFEJvEWuktsBqgfu0NxRR3pUKGs+vMg2a2f2+wczd2c8DgnN6IbuU9faRnlhLLv2e/KpdTZxIqyCIPzAEWGVkJCQkHjWuH//PtevX+fBgweTS6aPu3fvfm263ymsLWPoWobQ1ZRR5+NF1/Yd9C/9Gbf+8z/jS/Mpwf8E/tVPuDlrE73H7ehxL6a+tB9958iMuqnqDLnpUhMFmRGs2xnEXtda9APdVBTEsG2XJ+tO5ZPYpARNiWazJn3ufizaEsyV0FjOXXVl2WZfrmT3UTYIrYNf0N53nUZDCtbaDOuhUDzjg9m0y4V1llnEd3xOw/XP6TRl4WTrzMdbArGLiOC4jRPzPwvGpXiUmlvQNwqqOrpHH9DbVo6fmzfzN07e3XdgUlhV+3Yf8GDllLCakrE+5MzcbckEmm5QM3KX2jbVx8eE1cNVlbM1hqspXVSPf0nzwAOa+2/S1qrk0c6ROctcORndRtENVbc2w5rsw/KVV1hpGYxDdAifbnFkj0MJSV1fUq/62jr4gJ5OPRHuV/jgo3NscDaSOa7aPzJOe1k0Bw45MPdwDhGGbuoaMjl3zJnZm5LwMj/WphJvFz+WbA3GMTIM6zMOzFsXgFPBMDpVf1+7kcQAF2YtcmTnBV9s/PyVtEdySZPtgUlhzY9mxz4PVomwCoIgiLBKSEhISDxzdHR0EBYWRklJCffu3Ztc+mTcvn2b3NxcIiMj6Z9mn/JM17BqE4Qt45QPf46uvpSG08u48b/++aSw/iP4dx8xcjCKBtMIFd03KW9XvmZ+/M3M4ZULq3b9pam6kthQLxatc2HtuWLSaurJy4lk004P1pzII+GhsBbgcc2LeZvDuJSgIzjIjf2bjvCZQxmueQMUVHVTaGigqCCOAxZeLLeMwTc3hdN7L7BmvSenMrpJVPKWH+3N/l1W/GRjEDbpObg5XWL1fGvWOxnxK7tOaU0XBaY+8msHqakuxNvNkzlKaM9G1j8S1vwodu51Y5l2SnBdD9W1OZzda8vspR6cTqslUY1LWb32WBzV9qkZ1mtufLLGD2t/HakqT7aui1x9DxXtNYR4O7J+3j6Wnc7FvvAGhdm5+Nue5p29PmwKrSUrPxP7AweVhPtjGd9Hqq6bAmMnFYZi/Hx8WbDGnYPupaS0jlGsqyHZ5zIL15zkzUPZhFX1UNdciJ3lFeYscud4ghLb2jyu2Hoxf0sYDmmZXLO/wMp5VqxzrsKn7AZFybHYnTnFLw9GciY0CT9PTdrDsIl+TFjzItm2243lR7OIFWEVBOEHjgirhISEhMSzhsFgwNLSklOnTlFeXs7nn38+uWYiNInNz8/n6NGjnDhxgsbGxsk1j+LZhFX5V4sS0ZFOTIm29P/Ff+H+P/onfPkHf8iXf/QH8E/+KV/+5SpGbMow1t2gvHd8mjJeLa9OWLU75Go3HGo0ERXgyuolm/mzn67lv715lk+tg3GODWDVPi/1PvehsLbU5Su5dOPjdaGci2uivCYfP7tT5jvavjbPkndWHGHO5hPstnNj/g5fFh9MJbS8jtwIPw5uPsiPF1ryyxVHWbLDkrc/Pcsv1oRhm15PUWUG106f4uP5lry+wJL3Vx9W68/w7p4IroTF4uTpxax1wZwJV8I6eF8Ja7sS1gi27brGokOZxNQPU9XVS9Q1FzYuWMlrKw7znk0mV7Km7hI8SmN9CX5KjN9+ext///E+3lmn2rD0JB+u9eNEQjWppmIC7M+zaKkFP593hLfmHuSNT06x7Fo+Xs23qW5ooiDShV1bLfjZLJV32RF+s/IIn16I45hvPlb7VL9W7+TXq6z4SJW9aNdRfrb4Mp/sTyfcNIipb5A4bx+2L1nHr5bvY7bFeWZvd+T9zyJwzKijsCIdp5OqPfMt+MUiS96cdZC3ll5hY5iR5Jpi/LVnyK7VpL1BjcED6ltblbCGs2nHNZYcyZBrWAVB+MEjwiohISEh8ayhneabk5PD4cOHOXbsGJWVlQ+lVZPVwsJCjhw5grW1tXkWdnR01Lzu8XgmYVXOpflIeXstNV7WXP/TP+XzP/oFt36xkKHV/8Cd//3v4b/O5+budOoNg+h6b6KbrpxXyCsVVu1U2ZqGWmIiozh0xImNh66yco8v+y8l45tbwJXgQhzDas2PTNG3j1DbUEd8ci427qWEFPRS299HUUE25087s27HBZbsvMhaSyesfdM46VWMbWA1mTVDNDVUERoYwNq9l1i6+zJbbUM45JrFObcKYkr7qR/op6gwC5uTTqxV5Szfc5Fl+5xYcTKJawnFRGYUcMGzhJC8Tsq7blLV0otOX46bXw62QVVkNar2dd+lvLgIX6fLbD5kx9qrebjmK2FV/TS1jVDd2ERqchInTzrz2Z7LrFBtWbbDgdX7o7iY2ErJoBoTQzEOl91Yv/0si3eoPlmn4lnQpQTxLtUd16mpryLQO4gduy+yYtdFlip2uBbjktlJXKi/KvsCi7dfZPURR3Zfi+WIUy4OgUYytJne3vtUlFcQ7GbPjiOX2GATyH7nDM64VxBbPmAeg8L8TM6ecFBjYMPCHR5su1BAmNr4pp4WEtS4n3dTY5CvjcEtTC09VFSW4eKbg12IiayGYfM2ksfaCILwQ0WEVUJCQkLim0ZmZqZZTLWZ1rKyMgYGBsjLy8PKysosspq4fl08m7BqpwSPUNHQgTE1mVYbe3r2B9PqmU5dmg/t9pfosw6kPaiamtohKjtGRVina4T51GDzjOvErKsmstrgau+102mfTDexXK/qnTil+FGexzHn1ZY/lkcr69H6yXxqvVbX15Xz1Tofa4tWpmJq2UQ6VY457+NpJ9M/sf4xtPXa62QbHq6fSvsw/1PrH+Ory7W0E+mnJHIi3WSZk5jXT32eSv9w3WTa3zIGU/U+WiYIgvDDRIRVQkJCQuLbRHZ2NhYWFtjY2ODm5maWV21mVRPY3xbPdkrwYyg/qFT7Kt1XGJlRdwV+mhkgrEp42sbUIN+kRqE1qLpjTKUdNeepemzWTtesBEoNqkmZv/b80glpHMPUOZVXvar3pna1TKUxaXk1wVIbx9g+/jBNdcdEHVqaCdl6spxHZY1RpeozaG2ZqnPqIuQWrW2TdUy2T6/SVXXcmijDnH4yrZnJfj5dR5eqQxNBVa45v3n9rUf1m9cNT9b5qB9T+bXTjbU0BrXc1DmVT+ujqmtqDLS8WhmqfKM6mJpo39QYaFI60b6vjqVKPzk+T4y7eQzU6zRjIAiC8ENFhFVCQkJC4tvEnTt3zKf9aqcHz5s3z3zNqtFo/NqbMU3FNxNWdeyujvV1yhe0myvplAvo2tRr520q1HG/Th3PT5/v1TNDZlgFQRAE4buNCKuEhISExLcNTU61mVZvb2+Kiooml/72+MYzrN9RRFgFQRAE4TkgwiohISEh8TJDhFWEVRAEQRCeGRFWCQkJCYmXGSKsIqyCIAiC8MyIsEpISEhIvMwQYRVhFQRBEIRnRoRVQkJCQuJlhgirCKsgCIIgPDMirBISEhISLzNEWEVYBUEQBOGZEWGVkJCQkHiZIcIqwioIgiAIz4wIq4SEhITEywwRVhFWQRAEQXhmpoTV3T8CRwcHxsfGzAcUEhISEhISLyLSUpNFWEVYBUEQBOHZeDTDGsGF8zbUmKro6+0VBEEQhBdCcJA/Z89fEmEVYRUEQRCE340mrCYlrAERiVhaHOGCzTmuXLETBEEQhOePnR1WR49w0daeAmO7CKsIqyAIgiD8dvQtNzC0jpJVWktgZBJegVGKaEEQBEF4AUThExxDXHoRZfX9GNvGpt03fR8QYRUEQRCE54h5prXz1gQdNwVBEAThxaD2M1Xt4+Z/mE63P/q+IMIqCIIgCM8R80yrklZBEARBeOH8APxKhFUQBEEQBEEQBEGYkYiwCoIgCIIgCIIgCDMSEVZBEARBEARBEARhRiLCKgiCIAiCIAiCIMxIRFgFQRAEQRAEQRCEGYkIqyAIgiA8R7Q7Npo6xiZoF4TvCZPf6W9yR1J9ywj61rFJRoXnysSYTjfugvB9Q4RVEARBEJ4j5Q1DFFb3kV/VQ54gvGTyTb0U1fSp72Cv+Tv43DD1mMvVvt/Tfe+nQ9c4SEV9n/CC0DUMqHEe/sq4C8L3DRHWb80N87P2HjFdmhfPq6xbEARBeISh9YZ5P5dU1MS1sEIcQvJxCi0QhJeKc1gBrhFFuIQXmt8/LxzV91krM6WkGWPbiPn7Pt3fgYY2s1qpjk9KDI3kFhSTm68oKBGeJ/mFFJQaqGjol5lW4XuPCOs3ZhidktXK9lvU9d6jdegBLQP3aOgaparlJf+Xq2WM6q5b1PeMU6XtOJqmSSMIgiC8FLQD+Kq2UYLTqrD1yyAxr4qc8gZBeKnEZBm47JuOR0wp8QUNxObVEZP7+5GgyglOMXDRJ4PwDBNV6pjuWYS1sKyKrIxU8nKzKcjPJT9PeB5oY5mdmUpOXgHldb3m04On2w6C8H3hFQvrDQwdN6npuUN97x0apqG++zZ1XTep7dauoRhB/0T+l4+ueUJMTXVNxGcU4xSYzrXwAoLyO8muGzXPeBrUD0d15zjVHerzNGU8C5oUaz9A1WoDVXc83W+1TomzvqGd9CK1c8ptI79uiMrfsvN4NlT+59B2QRCEHyLmGda2EQJSjPjGFTM6flvbXUpIvNTo6r+BW0QB6RVtDKqvYM/oF3SNfE73yBdmtPdd5tcnl0+te/R+6vPnDKlytOMCbeY2LL3K/I+ZZxLW8mpyc7IpLS1BV1FBeXm58BzQxlKTVm32WoRV+CHwioV1WP2h9VFc1UV+Vbf52ovC6gkK1Od8YxcFJvXZfC1GP6X1Q+he9emv7beoqWulLMaPHTsP8/978zN+ssiC1df0+Ffew9R2HWPzACU1/RTXDlIxXRnPgCakusYBirVy6gaVwD62vnVcSXM/Jn0WNhf9WWORTlBZL7qecQyPp/vGDFPZNEiZqs881tOmEQRBEKZjSlgDJ4V1RIRV4hVEV98N3JWwppW3MaC+gppwdt54QNcNJaoK7X2n9npd49HyqXWP3k99fmAWX23SwDWi8FsLa4UI63NDG0sRVuGHxCsSVrVTb9dmCVuJ9vPn4LYjfLz2GO+uPcWczWeYv+UUs9Yd48PVR1l0wJa154LZYJ2MY3Q9hZ3andFGfk8x+zZoP8wjVPf1k5+fjt32k6zY6sjqKwnY+KTjndVGWt0dals6KSvO5OSlOKzdKklvUj/cHd+wvUpIa5rbKSnM5MTFOI556MlUy/VqZ2Eup/UmppY+anRJHD3qxMeb4/Au7kbX93sIa8sYpuZOSkvyOO+QzBkfI5la22fArLYgCMJ3gceF1Se2mOGRm2aBkJB4mdHeM2yeYU0pbaVn7Avah+/TOnSPtsfQPrcO3qdN44nlT36eonfsSwzqeM9FhHVGIMIq/NB4xcLaRlxwKNYHz7J8x1kWbtjPTz/Ywp+9s593N55l0c7zrDnmyg6HeA7b5eKd2kZZz20a+u/Q0HdPvT6gqe8OdR2j5ms56wbU5/67NHSOmE/bNV9rquSvtvcuTepHuVlj4C71XWNfe72p+ZTfTlXHwET6lkFVnnaNqPbj23RTLWshLSGYtR/asM1WR8Y96LsNnb2qTNW/quYuSsuLueqeyeXgWnJV/fUD2nWmSmZ7tPq1Mu/T2HOTmjb1o67NpDaNYOzQ2n/P3M6WoS/p6BvCWFmMvUcmtiHV5Ki+6CdPn24aVjukwXG6GnO5YOPF4l1J+BX3UKEaUv1E2+/R2HuT6jaVt2UUU6dqS+8t1Q41dn3a+gc0q/Gq71Tbpu0m9a1qfAuiWL/dkzWnSsk2j9stalq1cfnqWAmCIAiPEGGVmAnxhLCOfvlQWKfQBPSRsE58bplEW/Z0OhHWmYcIq/CtMd/vZgRd9wPKr0OZoly5QoVykmnTzxBe/U2XlH1pkmhs6sZYlshRa1cW7E7Ev1QJWPcYhsY+Sqs7SCvtINfQSWFNp3rfSlq+ibjMSqIKGsmoGaRA16zaVEFkTi2pxkFKm2+aT8/VBDKrqIbIFB2hqXrCMtR61b7StjH1g6pJ81RbNKkbUe1UeauaSczUE55aSXBaHQklPSq9+nHuGkavy8fzgi0f/uYUi62jsS9qJLqkiyLtGlLtrnnNg+jqOsksaydL10FRTRcZFT1klTaQUVhJeHolIWlG4lV/8hvUD4wmkl3XqahtJz3LQKSqM0QRlVNNUnkbSSWdZFX2o1M7hqq2fgrK64nNqCIyvYyo6EC27ndkzp4U/Mv6MA3eoMzYRHy66qe5nCpiC9vJb9TEuJ9CYzfpqt6cEhOJOTqC1XiEZ9eSpsarrP0OptoaUiO8WLX+MvP2hOOcbiJWfQEK6tSBmNrOMtMqCILw9YiwSsyEeFxYu0e+VMKp/SP87gSDd5WUKiZl1Pxeof2DW6P1CabS3zOLr3YMIMI6MxBhFb456u9VOYdO+ZiubRCDrprqtGJqlU/UlHZibNCWK6ZztRnAq7/pUvs41T0PaO65TrMpnVOnvFh6IJ1wk2qc+qHt6GwmJyOFA6cSuBqQhG9cLBsOebJ5sxWLl2/kN1susy2wgstXfNm+dB1vrjrOGo9qQqq+oLGji8qiZE4cPs1vPt7Bz2bv5fWFZ9l0rYjgultqo4xS1TrZlhbtYdg3qK/XEeR+jcULd/OayvPj90+zyCIN37oBKm80E+Pjyrr3PuMvfvIpf/ruJv7P4jO8fygJ94IudH13qW3poLQwg+MX4jnlnEhIShK7VdsPHLHl0OFdvLFwB3/38XY+sQzHJusmhS231E6kmYSoYHYu3s9bqs6//WQHH245zVaHGNafSOGUl4n81j6MxhzsTp3ng1m7eH3uTn4+ZyP/8/1jvKXGK7Cyj4bOKkI8XFi6aB+/mL2Lv//4MLMPhGOb10VxdQWe3gls2B/MMWtLVm9R9Xy4hV+sOM5n7lWEN9yjpDCbK/v38ubbq/hvv/qMf1h+nHl2xXgVXaemfURtv6/fOQmCIPzQEWGVmAnRMSms2sGddtMkTThbBu/QPKAxIaFPoJY/+Xlq2eRy9Vm7CZN2nwuzsGY8R2FVy7TlTzK1/unPT/GVfL+F6fJ/h9H6JMIqfDM0YR1D13tT+U8t9TabGPrxX3Dnr19jfF8ULTmjVHSq9ep4f/r8r5ZXP8Oq0TqOqaUXU0Uy1sfdWbQ3mcCKPiqVADY36YkP92XeGi8srgRi73aVdz46yuytzhw4eZ71G/by2rqrLDwahPWx82zecpDXdkVxKEmb0SzA9bg3h075c8gtntOOwZw658A66zAO+NaRUX8do/kOvErGOtWGbKomwvkyW9da8MF2PzadDGLPtpMs3HyZxQEGIus6qEiP4cQuK375iTUfbnNgm20MR30qiNb1oeu+S31LM0WZoazd4sGGo4G4h7gwf9Eh3lpmw6bLoRy08eTIngN8+NklPrarIszQQU6KH6csTrJ4mw+bjwWw/7y/kl0/Lnn6MnudFxsuZhNTnofHuZOsWH2GWXtD2HvOG4tT5/hg9SVmHUnEr6ySMO9oTh5yZ79jNNauMdhcdmH3CS/WX8ohJDmeC6fP8It3D7HwoBu7roZhaX2eLVsO8NqOCPbFdFForCDY8QLzFh7k9aXn2XQpnJMxdcTpr6ud0w0Maucz7fYTBEEQRFglZkR09E4Ka0kznSMPzNJpltX+SR7K6+R7tWxCTh99nko3Jbqa+OqahyaF1fR8hFWnp9Kg5NdkwjRFlRGjXoeuQqE3UlVVhcmoR697Mm+FyqvX8hpVeo0q1abHy3kcowFD5fdLWkVYhWdHE9VhKtu61d9IIzXlTdTk5tK68XXGfqSU7kf/iC/fc6THu4nqijqqa1owNParv/eZJa4zXlibmowkRgezfEsAx53DcHR1ZPaiK+zyraeoqY5Y50u8OesEC6/qyGxsISvMi48/c2eTexyeIX6sfv8EKw8FcjKxDM+IZFxdrjJr4Rne3RKHn+pYRe84xpZxarp6KNMnc2TDYeasdONM3l3K+qCzPJ5LZ07z082RnE7opqO/jsQYrT2hHAusp3LkPvWqDJP2w91yk9rmFoqyo9iy148dp8LxCnVl+fIDzD6ciLMR6nvG6C+Pw8LCgbd2R3EtI5vLp86ydqsTJ7NGKez6kvahL+jo7qA8N4pNu3zZYRePT4I/G5YcZtmhJNyqoaF/nJ6GbM6d81P9i8QrI4YjW5RszrFlb1AOV2MLCQjyZfd+G16b7cRxz0COXzzNewvOsC2gg6ROGGqvpSDcnQ/XubLMTk9xVwe6knh27PNlo00ZWdozXvu1GzxNs80EQRCEJxBhlZgJMa2wKgFt0sR04C7t1x/QPfYlverr2TOuGJt8nUS7O7A2K/tQahWdz1NYlYxWVBrQl+SQmxxJeGgIQcEhhAQFERoZS2xGIYXFiswE4qJjiEjKJquwXEnrhKhpoltWkE1OSjSxCYnExqrXiGBCQ0IIDgknPCKCyIhwwlS5IcGqzKh44jKKKCrVHgfzVfl7VXxF4L+G6dKJsArPTIv6brQNomvMp8ntDEOrtjK8cgvDv/wLbv2LH/HlP/5jPv/zhYzN2sHwpoMMOSbSWNZNZafKN4OO/79bwuoYzFUfXxZsCedCXBu1vbXEBPuw8DM/jvjXY+hrJispjJVb/Th8NRwPfyc++WgbP35rCz9dtI/XF+zitTnb+ItfWTFrXwKe1YOU9tykqlUTzVZKciPZssuNVVY5xGvXwGo/7M2l+F1V5XzszN6AGooG6oiLDGTZpiAsfaspGbiNqVP9cGsb1VzOY8J6MhiPCH+Wb/dl37VKsnseUNd1nWZjOqfP+rB0VyDukUFsP+rN6qOZxNbfoKrvNjWdqt9tqj3ZkWza7ceuM8G4h/uxeKs/B90M5Pc/oL57mCZTBmfO+rNqbxje0YHs2WXJ3/18Pf8wbw8/X7iXX8zfxl+/e5CfzXHkhH8gBx28WbA9Bve8XnSDX9DWXk9uUjArt3iz5aqeos52ygpj2bbXm/Vni0htHcXUPaaE/qntJQiCIHwFEVaJmRBTwpqkhLXjMWHVxLOh95b5eEzfMoReCaihZdi8j5+4T8Uw+qYh8+U/dd03zYKroeXVJLbiOQlrhU4Ja1kxBbHe+Nge5ciRwxw4dJgjB/dy6Ng5TrvFkZQaQ6LfeawPWLD7tKf6e8pFV1lJpYa+krxYH7wuHsLixHlOnznL5VOHsbQ4zOFDBzlw4AD79x/k0KFD6vMBLM45cDUkh5yiCvNM69Py911EhFV4ZpSb6NoGqKiKoXXvQm795//C/f/4J3z+x3/Il//XxAwrf/Rv+PxP/gv3/uLX3N0USEdmN/recfP9c6Yt8xXw3RNWP38W7IjFLqGVul4TkaEBLN0SyvGgBiV7DaQnh7NmWwBWtsE4+3syZ60zm85E4RCdg2NwpiIH55BSgjOV3DYOU6EOLvSaaDa1KEGMYOM+P9aeKSZD/Rib+m7S2qoj0MGVBe/Zs8uviux+Jclh/izdGMARbyMFPePotbvwmvsxnbAGsnx3GBaeVRT13VHjMECdIZ0zNn6s2hWAR5gfG48Gsvp4EWlqZ2Hq0a6lvUV9SxOFWZFs1IT1ZCBuof4s2hWJlZLkssE71HRMlHNKCevq3cF4hfuz9bATc7b4ci4oA6fwbByDsnAMKcE3rpKM/ASOX/Jh0e5k8x2FDQP3aGipIzMpRI2XLzvsDRR1tFGSH83WPV58drqA5KYbGDQZf3p7CYIgCF9BhFViJsSUsCYWN5tnUzVRbeq/TdvwfSqVkAbEl2B1IZA9Vq4cPOXFodPeZvYcc1efvdWxUzr5hg4lutosqzoO67tNhyqnvGkQl/DfT1grKvXoSvKUrLrjcsmGUxec8QoNIywqiuioQPz8fHCw9yUm0psQf1uO7D3Kof0ncfCLIrnEqGS3AlNZCjH+lzmuZHTfgcs4uAcSHR9NVGQIUQH2XDx9Ggtre9wDggmPjiAiNpHErGKKZ8gMqzYOpaWlFBYWUlLyNdf2TqbT1mvptPSPp9Pei7AKz4T5b3EYXX09ptRcmpwc6dg/i9H/+f/iS/MpwX8I//49RjdcpDUokeakOqoNg1S2a2eOTlPeK+K7J6y+fizYFsWluBZqupWwBvuxeFMQVgH1GHqUsCaGsXqrPxYu0VwL8mDxksvs926kQB03qN9bRu6r13vQc11Jn7YhmobVBhmntqOT0rI4dm84wbyNwVwzfI7pBgzUZuJ84Ty/WOHP0UhVZ0+1WViXPLOwBrB8ZxCH3PTk9UwKqz6N02e9Wb4vEs/kJKytLynpDMC54jb6IegaUe3r66YyL4rNu33ZeVGliw5k5QoHdtmWkaHa1TY4RmNuiPqxvsKsg+G4K1Hfs+sCS3fEENAE7aqv4wqtz9dv3aWrLovzZ9yV7MfjWdCNrv8ejc21ZCYGq/HyZbsmrJ2tFOeEsWGNEyuOqp1d710ahm9TK4+1EQRB+J2IsErMhHg4w1qkhHXoAY19d2jsv2UW0NqOEZJzqzh+wZe5Kyx585NdvDNvr3rdzfsLD7DzsD3BsXkYmgYezrA2KmFte07CWmmsojgrjYhLJzh16ip24XkUGU3U1NVQW2ugorSQtOg4cpL8CFbHcKeO2eFw4gh2Hl54ZJpUOUo6E53wu2bFkRO2WFp5EBidTVl9I7U1eupKI/F3ceHClUjSSioxNaqD7yoDxhl0DatZNgvU9klKIj09/aGMTgnp1HttubZeS6eln1r/sAwRVuGZ0B7jqcnnLcpufq7EVUnrro8Y/X/+SMmqJqyKf/ka4xu9aS2+Tnnvbcq6RicffzNzmFnCWp6AheU15mxPwL9cCauSquYmAwmR/iz8zIejV/yx9fLikw3hnI9pVsJaRXiAF3PX+nHEt04Jaz1pcYEsXe/NHvds9aMajtWG/Szc7sduJZf+CaUEJZbik2QiqqiLYrUx9OYfXO3U1yEq6ktxOWbNymUnWGFbwpWoSvztHdi89wzvXC7Eo+Q6/e0GooK8mbvGhwMeBvK/IqzaTZfCWb/di81W/riG+bBwsx97r+nInRLWymSOH3dh3q4EJY9Gwr1t2bPtGCsu5nMpXKfaWE5kahYhEUEs2+TNZts0QnNSOLvlNJ/u9GJ/pEkdDOXga3+OT1ac4Ff7Y/EoysP1/GlWLzvJyktF5raHJhWrvhoJyaqjsCiRU2dc+WRzDO75SlgH7tPUXENGvL8aL0822eoo6O6lrDgNi8/OMu9TByziyvEr6yG/RjtdSHvsz1PbTRAEQXiICKvETIgnhfW+WTgb+m6Zn8PeMXyPvht3qahqxtY5XO3/T/HhksPMXnkUi9MepOZU0jU4Rs/oA/PpwxqNCm12trxxkGu/p7AaTEayUzJwOGrLFecQ4kqN5mtSDXoD+qmbJxmVaJZEEebjzrnTLvi7n8fB1R37gFyy87KJ9ziPx9VjXHb14PgZb3zDUimqqkJfWYIhPwRvJydsLoeQmFes+qlHpwngpOjNBMyyqQQ0Pj6e6OhoMjIyHs60TqF91pZr67V0IqzC74f29zhO+VAT1WEnGP5//1u++NE/54t/8Sfc/4//jC//b6V2/2U2Nw/nUG0aVtI6Pk0Zr5YZNsOawrGTHizZn0LQ4zOsMSGs3BbICacQ7P38WbQjmsvxEzOsUSFKuLYEYx04NcMawqfb/NnrYqCgtZGseD92bDjMT97Zzk9ma+zi/yy+yuorJSTUDamOTZzyqm8dVfRTWZKK/Zkz/ObDnfzd+9v5q18f4j1V/rniHnK779CuBDpGOw15cyAWPl83wxrNtv3+7DodgmdkICt3B3PY3fDYDGs6Z856sHhfKn6lXVTV5eF+6SzvfbSLv/9gO3/z8TY+2GjNxot+zN4awq6rZWTVNlIY7sWWTfv5n++pfizYzcc7T/LmWmcWH04nVNdOpTELR3PbVTkfbuens7fy4/kneXt3BK6x0Zy192PxnkR8Hp9h1U4J3u7LTvty8npvo2/sJMLhEmsXLOLHS47ywcUiPOWxNoIgCL8TEVaJmRAdvdfNwppQ1Ejr0F2zdGqyWt+jBFSJa/vwXfpH76GrauGiYxjLN57mwDEX0nIr6Ry8SffIffMpxPU9N1U+hXrVyilrGFDCWvB7CavRqCc9LYfzZ31x9VciZjRQoVMSptZrklZSpqRMfTYURxHq6YrNRW/CkwLxc3HH6YwzwdHe2F11w+2aK2HhHtic98IzOJVCJbuVumL0eY+ENSG3iHIlvzPx7sBlZWUPpTUqKuqhtGrX6E7JqrZ8Sla19I/nF2EVvhHa36P6jpQ311Pte57B13/J3f+ymJGFe+ixmM3YOz/m87/+jJEj2dQbB6lUbjPTzqycGcKqBtLQPIihtoGYtEp8ExvIrh2isn0MU3OX+sEz4R9bRWyuieQidSAQV0uiElpjWxd5JUZ8Y0zEKKHUt/VSrDMREGskLLcbfdeIyt9IVGQKNnZKaq+GYnU1HAvnTBwSGslpGEavRMwsm83qtWWM+k4lpvlFODmHcdwuhMN2aThE1ZOt2m7oVmLd1EleqVZnFVGFXZSpg5OH53irfhib+9QPZC0hiaoNaSbSy6rwj1dind+p0qofeO0GB3WNxGVU4hPfQGbNELXdveTlF+N8LcJcp4XirJfaIEl63GKqCcvuVOM8TG1tNaGRSRy1VX1xjORieD6OUQYCEpvIq7tOXY9Wjmr7tXCOXwlRfQ3B0iGB0/7lxKqNF5+r2p1QT6ZJOzd9jKrmbkq08YozEJrTTmn7TTWGo5SpHUdQQBAnr8VhE1NPguE6VWrHJDOsgiAIX48Iq8RMiClhjVfCqt1wSRPVOiWd2o2UahWagHZcv0fvjTuUGprwCkwiJaucjoExum5oM7J3zAeHdeqYp04duGpo5ZTWa8L6+82wasKalp7HuYsheAQnU15TSVlJBon+zlw7f5KzFxyxdQsjISmIYB8lrJcDicrMJDHQFefDWzlxxgJL+wglromkxrhz0cZDlfPdE1ZtLDTy8/NJSEh4ONOqXa86NbOqLdfWT6V9Or8Iq/DsqL9V9feoa+jBUFhKfWAsLS451CdUYirNoDEikjbPTBpTmjHVa4/A+Rpfe4XMDGE1ow3mGNVd2o/q5J1pm4bNzwEytI2rH9lxqjvGqWqf+BE1tamBb1LrJj9Xaw+6bVJSNZm2pmPiszZ7W9OjXb9xj6Yp+m5TN3UzoafO0da1jFLVqT3OZSKtdrOCevVjXaXao59qz2N16p/Or/qh1+rU2tCp8j1su5ZWO49cq0OJeOdUP1U/VJnGDlWnNqM8WW9D7x3VRrVjMZejSbXqiypL60uzuQ93aei5rVA7oK6pcqba/qgc8/UnWvtVXpMaP3Od2k5msi8T43VTjdfow/YZVFtqe++rOu7Q0KXKlGtYBUEQficirBIzIaYVVnUsoQmrWVrVgV+Nom34Ll3Dt2ls66Ojf0TJ6j2z2GrHLxNp1evzFtYqAxmp2Vw84Yazd6w6VqxSwppJkr8TrucOcdTSit2WTviGeBPo74bNxWAi04oozvbH5+w2dm0+wAmPRFJKcsmIUsJ6zv07KaxT6HQ68wyqJqcxMTHExsaaX7XP2nJt/XT5RFiFb4f6u2y/RUXffcrV33SF8ghd5z0qeh9QrtyhQh3z68z+9XS+V88MElYNTfZumH8EJ2Y9J1E/euZl6lVj4v3Euqc/T6U1P2bGnF/7rIRQ/bg+Qknn03U8RCvr8fQTp8I+Squtf6rOp5lqgznN5Hv1+iiNWj61fuqzNsv8eBu1Gd3JNA/zmst6rG3a+2nKebjezGT7Vd6H7X7YjqkyH6vDvGyqLU/3XRAEQfg6tN9SEVaJVx0PhbWw0fxPd01CtYM97Z/nZqbeq9fGvltmaW0ZuPVo/VcYM5dTUtf/e58SrF3Dmpuajvuxc1y09SEot5IyvQGDvpKq0gSSwtw5d8aVgEAPAvxdOXchkIjUfPSGVBL9r3Hp+DU8ozIpNGSQHunOhbPfbWHV0MZFm1nVJDU0NNT8qn3Wlk+XXkOEVfjWaH+b6u9Xp/ZVOs3LWrT3U5+//m/6VTPDhFUQBEEQvpuIsErMhNCE1VUJa2x+g/mGS5p0VneOmanpmmTys7ZOk9bannFM2nptuVo/hfZZS69d01pc18e1sN9PWHUGI2V5GSS5nuHMiQuc9Uwis1yPsbaWBkM6mTFeXDjnZhZWfyWsZ8/7E5GSR3lVOSVK0DLTcskrKkOvSyEtws389IPvg7Bqr9qManZ2tvn18eXTIcIq/NAQYRUEQRCE54AIq8RMiN8mrGYJ7RqdENHJZZqomqYkdXLZ0zQqYS1Swur8e86wlusq0ZUVU5oRQYjLZS6cOcP5K1exc3DEyfYUNjbnsLoUSESUP8Fejpw45UNoUi4lVUpI9QaM6lWvXk2liaSGOnPq+DVcAlIeCWtuIO5Xr3LSJpC4nO+GsE6hjc8U061/HBFW4YeGCKsgCIIgPAdEWCVmQnxTYZ1a/lKEVZMtnR5dpSIjnCj3c5w6cYyjVsc4ZmXJcZurXA1OJSMrieSIAFzcIolXx5ul+inxVGVU6DCUZZCVEIybSzAhMVkU67XH15RQWRBLmL8/rp6xpGkyp9d9Z4T1myDCKvzQEGEVBEEQhOeACKvETIgpYY0raDA/0kYTTlPnKKaOCaq195NUTy57yGPpHkcrp6imF+ewAsJ/T2Gdkk5deQmlhXlqfQ7ZihxFbl4BBcVllJWVUlpcTGFhCSWlZSr9U8JWXkpZiba+mOIS9X6q7LISiouKKCxSZZepz0/l+74gwir80BBhFQRBEITngAirxEyIh8KaX29+hM2EdI5QpY7DNMzv1TIN7QkGVe2P1lWpz9r6KczpFdqdhgure56TsE6iq6RSb8RYVUXVFEYDhkqdSquEtlKPwVCJ7ul8ZiqoUPm19ZW6x9arfJV6lU+v8n9PZVVDhFX4oSHCKgiCIAjPARFWiZkQU8Iao4RVu0OwWU7NUjqC8bHXx99PrZ/gxkOm1mnlFDxvYRW+NSKswg8NEVZBEARBeA48Lqy+cSWM3bxjFggJiZcZPQMjuEVq17DWU993a/La1CdPBX6aqfUTaUYeY2JZgyqnsKbX/FgbEdZXjwir8ENDhFUQBEEQngOPC6t3TJHMsEq8ktBmWF3C84nKrTU/ksbQPqKE5gb6NiWSGuq9oW0Cfav2eXK5wvDUZ+299r2uUQeLeaZunELzRVhnACKswg8NEVZBEARBeA5oB/DagXxIWhWXfNKJSNORmGcShJdKaEoFF9X3zzEkj4CkSvwSdfgmVOCbOIGfeu+nvWqfteVPr3tqvfZZK8ctqpjzXmlEZFajXdv6TYRVu4mSTqddm/ro0S3Ct0cby8KCPBFW4QeDCKsgCIIgPAf06gBd28+llrbiEV3KtYgiXAThJaOJpVdsGZ4xpbir988L10it3FLSylvNZxJo3/fp/g40HgprmYnszHTzbGBxUQFFhcLzQBvL3Ox0cvIKRViFHwQirIIgCILwHNE1DVNWP0hJ3YAgvHRKFWUNg+bvoPb+eaKVq32/p/veP86UsBbr6iYfWZNHTm6+8BzJzs4mr6icivo+EVbhe48IqyAIgiA8R8ynBqt9niB8H/ltpwI/YiKNJlOl1e2UmibR3gu/P5PjWV7bTaX2D4TfMtstCN8HRFgFQRAEQRCE544206pvG5ugVXiumMd0dNpxF4TvGyKsgiAIgiAIgiAIwoxEhFUQBEEQBEEQBEGYkYiwCoIgCIIgCIIgCDMSEVZBEARBEARBEARhRiLCKgiCIAiCIAiCIMxIRFgFQRAE4Tmib7nx3DBMop+mHkEQBEH4ISDCKgiCIAjPCV3TMNWdt2ga/JKmIcXgF98CLd+XtPTdp637Dm1dd6huGzWXPV2dgiAIgvB9RoRVEARBEJ4D5hnR1lEySuvxjUjBxS8aF/9vjpt/DH7hyXinFeOSr8el0Ei6qYsqtQ/VN9+Ytm5BEARB+L4iwioIgiAIz4GqjnFquu9wycGLX/36Dd555zd89PGsb8zHH3zIO2+8yf9au45/ffo0//biJS5lldHceQtji+xHBUEQhB8WIqyCIAiC8BzQhLWu5y4Hrc7y5hu/xtPdleSkxG9MeFAgc95/jz94+y1+dGAfP7K24kRqAa1dd0RYBUEQhB8cr1hYRzB23qa+/wHNA/dpUWivDxm8T1PfXRp7btPQe5PqjhH0TY/nf37otNOsWsep7blJXdcYBm35C6prpqBT469vU/1Vfa7tHH3uN/XQtYxh6rpFfc84Va1qfL/n4ykIwg8bTVhru+9w4OhZli9fzuDggLa7/Mbxxb177Ni0iX/67rv8yNKCPzh9mrPpxbSoHbEIqyAIgvBD45UJq17lq2weoLC8joS0MoKTKwhM0ROWYSAiQ09ISgVBSeWEZhqIzKsnKqeFTFVuuSY+5rzPkxtKUAfR1baRUtBEYnEXJZpcaXVNm/77gNbnfspMLSTmNZNS3kNZy/MaW+2OlsMYGnvI06kxLemisG7oez6egiD80JkS1oNW51iyZAmtrS1mAf2mMTI0xNb16/ln770nwioIgiD84HlFwjqCUZstbW4m3M2VrSu38vq8XfzD3D28Nn+Cn8/bzc9m7+A3m0+w4Kg3S/fGcDmslkJt9nOyLIOZxx4BMLVMtenRbOFjyx+u14Tq0SBoM6s1zR2UFqVieTqMvXYlpDQOo1d1PapHQ6vnsXyP83j9UzysR8un3Yzj6TSPypta/0R+jakytNcpnsqrrXsy32SeqXyPl2NmYma1vqWJnIx49lhFctTTQG7HKAbFE31+ok7t82Nj+5V6tfVaWlVGyxC11YU4XQtjo3UmgcU9VPbdVMu1/I+VZ0ar4/FtJgiC8N3jaWFtbm4yC+g3jesDA2z57DMRVkEQBEFQvCJhVaLTps22dZGWlImTYyBWl305cvIsHy4+wN/MPsuak74cvhrMcbdYLoQW4hBiILqwB133ber77tDQd5eG/gc0qfd1SrKqu25Rp33uv0t95whVLcMPT/Ot6b1L0+DUqcZqvRJRbf3DgVAHAMbmPiqM1QTF6vBNaiK/SbWxS5Xde28yn3rtv03dV06d1cpRwtV+i9qHabXTme/R0DOOySxjY+b2NWht7btHY/99WsynO2tt1yRPE3glkL1a31Q+td5cRr963zVqPp3W0KZdG6WdvjvRpqa+W9RoY9ik8qu661Va7RTqlkHVVyWG1dq6RpVPa5caE60t1W2PTn2uUWW09A6i0xvxi9IRmNlBWacqp+/2Y2OrjaU2tqpe89hOtkcbO9VmQ8dEex+dyj05tm3a+A7RXJvFeRsPPtmciG/ZEA3j96lrV31VsvzkNlF9UvUYzWP5+NgKgiB8dxBhFQRBEITnzyu+hvWGWdRq+r+gtW+EtppMTp/2ZumBTKJqRpTgfElr9zD6mmbishtJK20gs6KOwKRKAsPTueYTw5WIYsIqekjNqsDfJ4rLgTkEFPUp4byrZHCY6qYGomMzsbsWw1nXBGw8c/DPaydfiZx5VlNrhyZfzQNU1LSQkFtPbHEfZdoprUYD4dEp2LiovO6J2ATrCCroNp86q1cSqfVB3zqGvnGA0uJSgsITOecWx1m3eJU+A4/kBnIaVfn1rSTmVeMfU0JgSCL23rGcconDNqyYCN0wFY295JXWEJigxDE8FVe/WM64xnHeNxNfVV9h0xCl+kbCUxuJTMwnKCwRO/8yQsv60fddV6JtIig4mUsuUarcDOzDakirG8Y0OEh+iSozMBOPlEaSatTBVPt1appbiI0rxDusiPU6568AAHTFSURBVIiiBsJzWkgvaSC7so7gFINqQwZuvjHYhhYQXNZNaq5a5huFrX8mPnld5LXcoaq+m6K8AryCEsxt1cb2nBpbv6xWCjrU2DZ3khcXwL7t1vxy0WU2XYzgYkIdsXrV5ro6oqIzuOwczRmXBC545xNc1EWhyvfkTLAgCMJ3BxFWQRAEQXj+vGJh1YRvYqaurn2AOn0qx096sHhfKiH6QaqGHtDaWkNqfATrdocqMYrENTSQhZ/ZsnTlQeYsWM0vVlqzxD4Ty9NubJi3nNfm7eWTy2W4V9ylVolZQXIkh3Yf481ZO/nZJ7t5fa41Ky9l4loxqsRzBFOrakerkubmNkry49h9xJ8tF0tJ1NWR4HeNzZt28uPZ2/mbj3fzl3OvssGplBTVZn3nqFl2De23MSh5y4v04dDeA/xk3h5+MmcPP/tgH58cieJCXgcFpRmcPefCrKWnWbV2N79ZvJ2/fvtTfrbkOCucTUQVVeDr68281RdZvno/c1bu4G/fX88/fLydD09m45JTR3ycGoPt3qzdfIx1G/bzzqd+HE9pprDNSISnI0sW7OHv393EX721n18t88AyuYncUbVNYv3Yu3QPb28O42jydao7utDlRHFo2zlWbL2ChWcoy/ZHcdoxEs/IQJZuvsKSlYeZv2gNry89xEK7NCxsfNiyaBW/mLOd98/k4VR2D2N1E5mBzmzaso+/1fqrxva1j4+w8HQqzlVjlNTXE2Fnw5IPl/M/Xl/DX3y4g19bRHMiporkqFAO77Lm1x/v4KezdvOLBSdZ66C+T/oxKtQ2qVLfqae/J4IgCDMdEVZBEARBeP68cmE10zqOqaUXU0Uy1sfdWbQ3mcCKPir77tLcpCchwp8F63ywtA/G3uUK731kzSKLCGy9/bHed4ifLz7L7ONxXPEI4qzVCX65JYhdURXEpqdzboc7hy/GcjlFh19MJt5enmxUUrr5SgVJtcOqY2NKmm+a5bYkO5z12z1YaxWFb0wkezdeZvUhP06mlOIYpKR4pzMWV+MJbLlBSccYVart+pZRKpsGKaswEZtahEdsKd6ReQQ5ObLpuBeznYqIToni1K5j/GrWObZey8AuuoQAdzcslEj/fJk3B70jOGt/ibfft2bFiUhsYsvx9Q/j6vHjvLnYgRU2UTiEODF3/i7e+tSB3R5KyOOrSa+rItDLnh3LDzL/SDyW/mq5oyf79xznnTPJnMvrodZYTIijLZ/MucKay8WEV5bjcfYSuyz8OR2Ri294EEs2+nLgQjDXvB34aNZR5u4P4aJ3CKePWPDLxSf5wDKaS55hXDx+gjc3+bDGs4685gHKdFVEJhfirravb3g6vlfsWGrly2KfJrJNnRiyIzi89wxvLXdmn0sKPmXluPjEYb3RDUuHRGxTKwmITsPDXY35oSB2OulJb7yO4QXcsVgQBOFFI8IqCIIgCM+fGS+sTU1GEqODWb4lgOPOoTi4XWPuChcOh7ai72oi0dOed+fasOqaiaKuTvJj/Zm73kOJYRTugaqstw/y4Vo7NjpFctTWi8PWx/n520rE1kXioTpW1ntTtUsT1lZKcqPZus+PbTaReEd7svyDA7z2rgOH4zvJvQGmynpy8gykqjaXqoMGbYZVe3RLlZLX5u4O0lMzuXApCIvzvhy1sOadT8/yd/ui8IoN5/ghW+ZuCuVa5S2MozA62EBKgAfz3jvGZ8ed2HHZhU+Wu3Eyrp1CtX7wej+1BdFsWnSS+esvc9jTlTkrT7LqdA5B6hio9fpNOtryOW95mtkLHTiRPEixauNgq54478u8veIa6xyqKB8ap7qmkmtWdubZ2QXHHVm6149zkU2UqvHKS9Nmbv04ZKva5uvG/BWO7PZuoKy7newQFz6ef4ZFlyvI6uilLCWIpRuvsdimlBw1bk29bcRHJXH6QiAWNh4cPnCEn6w4x+vHiomv6qe7o4grdn4s2ZNJsP4GPfeaiHB1ZM7r+/lwiz2bnaOwtnVnv4UVf/+GFe9siyegYZiKnnGMj38/BEEQvgOIsAqCIAjC8+e7JayOwVz19WPB9mhs41up660mKsSfJZuDsQ5soKqvkYykcD7dFsBRuzDc/J2ZNXcfP/1wN2+uPMSbSw/wxpJDvD73Ip+eysS/dojSbiVHjwvrXm82XMwgoiyXq8cvseAja+bs8ud4aAFe6fUklPVSYj6NWLvW8gYG9V5fXU9abAgWB07w9pyD/HrRft5aup2/mn2St7YG4RodyoEzfqw4kkFU1RDG3ts03uggJTWaA3Mt2XngMqvPBzF3eyyumW3o+u9RN9hPeV0+Z9efYevqE2y19+ejLeEc86misP8uNR391KnxOnbCkwX7Mgip7Kdq6B4t7fWkRwaw+mPVx5OZhA58gbHjBjXJ3uxdPZ9/9bPN/M3JUjx19+jvqiMnOYzV2/w5fDkY5yB/Fm6P4ExYE9V99STHBrFCjftBzxp0Pa3kZUWwfrsP2y4VkmYyER/px65tVvxqthrXxft4c/F2/vzjU3xwJJswYw/1zXlcuqDatysZr4JuGjt1+DvZ8e4Hu/jZrD0Pt8mvFx/mF3Pt1LjnEtp4nXLt7szTfU8EQRBmMCKsgiAIgvD8+Q4Kq79ZWC8rYa3tMRFpFtYQjilhNfY2kK4J61Z/JazBOPl7M+8zTw64FBKtbyeltImUkmZSS9rJMfSZn7Wqa9HumjslrFFKWD1ZcyKbuNoeCmq6yDfoCQ72ZduSA/zijdOsvJBLiOpHeecYVardda1N5CSFsO3TY0rMgtRBRQeJpY3kZ0VjecKN+VsDcQkPYt8Zf1ZaZBFTcx2TEs6W66o9yRHsmmvFzkO2rLsQxLwd8bhnd6AfekCDEtaK6mxOKGHdvOYUOx0D+HirJqxGCvvuUN3eT21lCsePqzp2JeFf3o9R5WtrryMt3Jfln1zm09M5RA4+wNR1naaMMI5uWct/enM7f2eVj2vJLbq76p8S1oCHwmrqrSPJLKyBHFLCWtHdQm5WJBt2+rPvYhTeod6sXXWKlcfiuZLXS1ppNRnJIWzf78SCA0qUK7uobcrl4jl35m1X34HCHpq6K/C+5srsNV5YepcQq29T26LRvE3SStU2qVLbRH0fzNvk6e+IIAjCDEeEVRAEQRCeP9/NGdZtUVyKa6GmWwlrsB+LNwVhFVCPoUcJa0Ioq5WwWrjH4xbqzooFJ9nqWEXSIAzcgeHb6vUWdA7dplq1vbJp+DFh1U4J9mG9RSQh+cW4FQ6S036Xrt4mor2D2TzrAEt3+3FJf4OCtptKGm/S0GQiLcqDuYvtWG1TQZ5W/l1FRQynrC/xzrZAHMJD2H86gNVWeSS13Kb5Jgx1GIj1c+U9lW/nBU+snANZsDMRz4J+6lQ7e/s6MWQGs3KtLYv3unLBP4BF20Ow9DSQ36OEtWtItbmQS1YnmTPnAoei+8gZgL6GMiJdz/PrtR5scKlFPzKu2lmD/3EvDu2/yKeXHJj76TU1PtXktreTnaKdEvzYDOu2cE6HNlLVo4Q1JpDlm/054FFNeZcS1sxI1ith3W/jj5O3M+8vcWWvdyOV6vswPHab1mx/duw+z28OZhGs76a+KZvzlvZ8vDwSh5IBGu+3EO7pwNLZSsC9Gsm4rsZB9VVtCrVNvqRdbRiT9n3QtsnT3xFBEIQZjgirIAiCIDx/ZpCw9mAqj+fwESdmbY3Hr1wJq/Zs0SY98RF+zFvjhYWtkkUPDz5aF8q56GZqe4yE+XvwyWpfDvnUYuitIy3Wn0VrPdnhkk9cURJ2hyxYsM6OxVbRWF0N5Zh9KIcdM7CPbyCnYRh9+4j5pkt15psuhbFumwdrLQPxTgpg82FP1uwK4LRbJKdc/JXMOrHfNo1AJaylrWNUtY1S29ZNXk46h/dfZtXOq+zXrst0COX06VN8vOoEr633xzEyBIuTV/hgyWW2XgzhqPb4GWsHtu+2Z875dFzS03BzcebjRedZZemDhVsMJ855cnjPJWZbxXIsOoPAMG/mr/Nhz7VK8rpvYewawdTVSkKQG4fXH+TjrT5sOB+D9VE71m08yUd2WThU9KCvzMHzqj0rV/hwxKOS+Mo8nPadYPEaD3b7ZuIdE8CSzT7sO+eHvZ8nH68Lmji9ureGhEhv5n3qyc5rVZR3N5OTpgR6gztbzibilxjPrj2XWXfQmUMusZy46of1MWt+vfAEv96TSqChT325GvC7dI0Vsw+y6JjqT1IJTgEhnNl+iAUbHVl2LBrrqyFY24dxxDkL5+Rm8tX3Qd+mtsnT3xFBEIQZjgirIAiCIDx/ZoiwKvlr6aOqMovzl4LYcDyL8Mp+Knvv0NBUQ0piDFsPR3HBKwbX0AjWWyThlNJGdVctsVERbDwUg01EEwYlVVmpMWw/HMFR7xpKO7soLYjn6N5j/Pq9bfxk9nZ+MmcXf734KquvlJBQN6Q6NoZBCXNNczulhckcOh7GwWtZRBalcGr3CT56Zwt/P2srP110iPdPpnIpYwC9OmAwTT6HtarrDrrqNqJcL7N53Qb+7mNVx7w9fLzvInMOhLDJKo7g+DCsrY7z09c38Lezdqj1O/nxb47y0fYY7Mu6qeyowNf+Au+8vYm//s0W/mH+Dv7u/YP8YrEHljGNFPQ0kpwQzdZDkZwMrKaga1SJ9qhq9yj1TdUkKpldu2I/P39/E//nNxa8szaY8zkdlN7sJSXGn4OfWrLuTB4uui+UmLehTwhiyyZHFh0OwC4+hi2nYjnnEoNXZKQa2wRsY1owdjeSmqTqPBzJicA6yjvbyM9JYO9RJZeetaTpqwm0P8XKlRv56w+389ri/cw+dIXZSvC3ncklRrtWd/AehakpXDqwhXcWbOFnB2I5k1irtlEklrus+OW72jbZxj/M2cOPlzuz8ZqOtKbrGCcfGfSV74kgCMIMZkpYDxw9y7Jly+jq6jQL6DeNW6OjbNuwgX/67rsirIIgCMIPnpkhrM3aDYyG0Td0klXWQlJxpypTO1V3BGNzP6WmNpIL28iubCPP0EpSUYdq6CD61n5KqlrN67KMAyr9AGVKHlMKW0nXKbFs157p2U1mvoGQuGL84kvwjS/FJ7GKqCJVh5Ij7eZJWv2G5kF0dR2kFbeqvnRTXK/akmsgXOXziVV5EysILe4ip36UqtbrGLTTibW2K9nWZgPL9TUkZaryVXrfhFJCc2qILuois7ie4vxYDh1xYPYGP2zCCvFLK8c3Vk9YrqpH1d/UWIjL1WvMWuXKAZcMvDMq8IurIDClkczaYSXFQ5SZx6CVTDW2FVqbzdd5jlLdPoyutoXE9HICYwvxVuWGZqpxalDi1zNEcWU9ial6Esp6yG/RToMeprpejVlOLVE5DWRWqXJL2snSKSE1tqmx1a4lVWOnxnJq3DP1/ehaBimvbSe1SI1PpXrfNEiprorYtInx8U8qJyyvjph8tb6ki5JGNTbtN9HXdZFXpNYlleCf2Uy6+oLpGzvJzNMTrI1rvBovbZskVRNT0m2+hlU/+c8AQRCE7xIPZ1iVsC5dsoT2tlazgH7TGB8eZps2wyrCKgiCIAgzRVg1NAkbo6b7FvU9Y2qnrJY1KRlrHsGgxKe+5ybVnTcxdWjvxzG13UDXpIRWW9d7k5oOVbb6bGi7SZ1KW9upfVZltqoDiN57NA8+oGXwvpnWgTs0TN2JVpNW9arT6tfSanm1ddqsa+9dmoa0fIqB+zSpeqvbpto7iXa9pZJHY+cd6vsn69DS9t6hsf8+bb19mEqi2bHHhQUHsklU0thyC9qH7tHUf5daVV5jVQa2l1z44LMYXPL7abij1g/fU+XcplY7ZVnr12P91E+2eaLdal2HGjNVl9bHVnO5t1Q7VX8alYi336K2/x713WOYlKya+6mW1ffdprFXpdPK7VbldqmxNY+zds3r5Fg+MbY30LeNPxxbgzpoquq6S4Pqc6vqc7Pqc6PWZ1Vmnapravtpeap7H9A0oMZGK0vrj9pG5m0yNbbmMbtNfdfkzOpj/RMEQfiuYBbWnrucOHWZd19/neMHDuBw/vw35rK1NfPefJN/N2sWPzpqKcIqCIIg/KCZQcL6YtErqZxAez99mul4It8065/kqbStmiT2oq/Mx9YxHguHUpJqhtBrYmZuh/Y6TE2tjoCgePafzyGgoMv8HNKJ9U+X/1swp3/Wdj5Hnml8JtM8tXwi32Teb9JXQRCEGYhJCWt99x0snb35N798jX/2t3/Dv/jpT74x/1Lx73/5C/5w1Up+dGAfP7Ky4kRqIa1dd0RYBUEQhB8cPxhhfXUMU9k4QHFNH4XVA5Rrs4dPyZm+aZCyWrXe1E+Zdiq0yJsgCMJ3DlPbKPUdNzkUm8G/PHqUPz54iD8+YvHNsbDkX1pZ8y9PnuJfHD/Ovz53nguZpTTLDKsgCILwA0SE9YUzcapztRro2smZ1adPedW1jE5e+6Q921Wll1NiBUEQvnMYWm4oobxBbFUHdkVG7AqN2BZVfWuuFBiwzy7HIbeS1KpOtX/Q7qCu9hHT1C0IgiAI31dEWAVBEAThOaFT1LaP0dZ957mhnQpc3TaKTp5RLQiCIPwAEWEVBEEQhOeIdr2+Ntv6PHmp9yYQBEEQhBmECKsgCIIgCIIgCIIwIxFhFQRBEARBEARBEGYkIqyCIAiCIAiCIAjCjESEVRAEQRAEQRAEQZiRiLAKgiAIgiAIgiAIMxIRVkEQBEEQBEEQBGFGIsIqCIIgCIIgCIIgzEhEWAVBEARBEARBEIQZiQirIAiCIAiCIAiCMCMRYRUEQRAEQRAEQRBmJCKsgiAIgiAIgiAIwoxEhFUQBEEQBEEQBEGYkYiwCoIgCIIgCIIgCDMSEVZBEARBEARBEARhRiLCKgiCIAjPEX3LDQxto4IgCILw4vkB+JUIqyAIgiA8R7QDCFPnLUwdN6kSBEEQhBeEtq+pah83/6N0uv3R9wURVkEQBEF4DphnVltHySytJTAiEc+ASDwDowRBEATh+aP2Md5B0cSmFVJW34+xbWzafdP3ARFWQRAEQXgOmGdWO24SoGTVwuIIF87bcPXKFUEQBEF4/tjZYXX0CBdtr1JgbKdaydp0+6bvAzNAWG9M/ld6xLx+CkOrtvzptL+NqXLU6+Syh5+/UTm/ja/W8bWodPqn+mTul2rL78wrCIIgfOfQhFU7RcsjIIKLSlZrqk309/UJgiAIwgugl5CgAM6ev0RuZYsI64sUVl2zWt55m/r+ezQNKNRrs/n1FjXtSvCahr+SZzp0LepAofMmdT3jVCmh1DUpQVQHDtpnkyqnsmn6fN8EXcsYJq2O7jFzHdOXOdFefdtNanoe68/AfZr6VD87VbvUmOm+kk8QBEH4LjMlrO7+ETg6ODA+NqbtLiUkJCQkJF5IpKUmY3PRToT1xQnrxMxnVVMH2fmlePolcv5aNKevRXLCKZFzXuVEV/ZT2X/zd8xKTsx2GhtaScuvwj+xgTTjgBLKdjLzdbiHG4gp6aaiQ9Wtypm+jN+BNluqRNRY30xStpGApAYyqwepbBt5ql1KVtvGzaJcY6omPi6Jsy7Rqj9RnHKM4Jx/Hh75PeTVj1Dd+ng+QRAE4bvOoxnWSOyvXmWgv998QCEhISEhIfEiIjEhToT1hQpri3Yb5hs01Jfi63SZD9/bzI9/s4W/n7eDv31vLz//5ApbfcoJU3l0Kl1V25g6EBinuvMR2sypoWXMLLQNdQW4XPNj8a5E3HJ6aOqvIyYiii2WCVyNb6K0R4mvKsP0eBkdEzOlek16VT1Vqo1V7WpZ+1N1qHzGlkHqTdlcvOTLsr0p+Jf1Yxq8jUmJ5yNpnUhbWdNKcpAne7bt4u9m7+DHs3bwk4828PcrzzLvcjnBZaq92sxvh1af9qrapdXzWBmmyfprOlV7HorxCEbtgOgJUdbarpUzcVtr7YYfJq0Pqp+P99XUdsM8Tg/HXxAEQXiuiLBKSEhISLzM+HbCeoPK9pvoVPoKDeUQuhnuCK9WWFXexpo8nK/Y894ie7bbJuKSqsM/MB7ns3bM2ePDWk8DGU1KWM3yOKYkUwnYJJrkGVs1mRymsTYHhyvuzFofhWNGJ6ah65TqG4nNbiZDdahCHUhMHExMSquWXxNWJXLadalT0jclrA/TaO3WZLllgPqqNM6cdmP2lni8ivuo0oRV9WFCHlUZ7XeoMjWQEuTKmm02fHIwkHMR+XjEFuIXl8pZpzB2WsfjmdFKRf9tJZJaXVp7tHZoEqq1RfXJvGyynyqNSa0zaF8u8zqtjY+EVfeYsJqvkdWEVSvviX5OjpUIqyAIwgtDhFVCQkJC4mXGtxVWnSas3Xeo6FbC2qGEdYaf+fnKhbWhJh8nR2/mb0/ALa+f+rswcGOAuop4tq25wqI9aQRXd5KTnYzt5Wt8esiBtYecWHvYn1NBBlJabqtB7iI91Itdn+3m7z48wofbbNnhGMUx3wLsg40klA1Sqw4cyivysb3gwZZ9V1i9/xpbz8RxLa+bkvZucgp02PtW4O4VxlXHq6w/Ys+nFq5YB1USU38PXUMLyb7OrF+5i7/5yIJPdl9lm1s+rrkDlDeNKKlUotg/TF5GEhc3HeDDzb7sjuujcvBzOka+oHNEtbO6nbjoUtLyiwhIM2LnmY+3pyeWJ3045KYnQX2BarqbiQ2P5tCRK3x20IlPD0dzIbKRgu4h9HVV+Ibk4xBWTVb9MHolpTWNSshzSrjqU0J4RhlRuaVcdE/F1k4rV/XhgD0bT/phk9BMSsN9Jdg3RFwFQRBeACKsEhISEhIvM55dWLUzVm9S0XsLXUcH1aFutO/eR99uK3o8iqmrHKe8S61vHzNfCjl9Ga+OGSKsXszfpuQxu5faW9Ax1IeuNJY9q2xZvTsVf1MbaQnBHD1ynHfWHOODVUf5aP4BPjkShlXuIHkNrSR7OrBuwRr+1xub+Zu5+5h/4Axzdjvw3poQ/v/t3Qd0FdeC5vue6el5b3peWG/Ce2t63qz11syb6Z6entfTfft23xx8fX2dAzbYxiYYY4IBg8kZk3POQUQhECCSECIJIQkJZZRzzhEJJLLx9/auE3QkDrbc18C5+L/X+q1zTtWuXbt2FUv1UXXqrAzPU0JuhkK3BmnkqPl6edAcvfThDL368QoN2ZSk0CupOnJgt/r0X6V+H8/WkAlT9Zt+4/SLV4boZ6P3meDZpIs5BTq6aYX6vz5Y/+WXw/UDs/6X557S4rMNSim5rjyzgwvrC3Ts0D59/NZSjV2bqLDyu8qs7FB+7S0V1N9VSfMDVTS2qyTngpYs2KTfvrVIH42ZrjcGr9Dg5XE6mFekC5H7NW3MDP3klSn6WZ/J+vHz0/Xq9JNalVqi+KRwTZ28Tf2mXNBRM74Z9bdUVpSi0OB96vPxPi3ecVArd2w17c7T2wOnqc+w6frlWyP1y9dG6JcTTmp2RIsSK9qUXdnmc0sxAOC7QGClUCgUypMsvQ6s5c3KKG5WZnmrMnPTVfr587rxJybS/dGf6sE7O1V9ssVkg0ZllDWa+i1GYIXWgAisWzYG6a1hoVp2LFdxVR26kmhC2KZlem2wCZDLEhVRYga3tEYxpgNHo/N04nyKTu3erI9mbtHzazJ0KqNe5dkXtXLpBr0y9IAWHs5QXFasNm/ebdoN0fJTUdqxM1Sf9d+sWfvitTOpRJFR0dqzK0jvjgrWtPXHtWPfWr3xxmd6cXyYFl8wATU+U9EHNuuD0Wv1m7kJOpJVrayrZzV/znq9NswEw/Bsnc1vVHx+q3Orrr0Vt7gkRQf27tY7H+/XvIP5Smy8aXZ8i1Lz6pSQXWvqXlNaSZNyM6O0bNpU/eKlafpgTZK2m9CdUlqu6MQIzflkgll+myYdq9eJywWK3LlOH01Zq1dWROnI6TDNmhWk96Z2BdZSE1gPBQfr7U+CtcRs44rVK/XCa4s0fGO89qQ3KSEuTsc2r9JLJkS/NDtaB8wBmGZvRfY5CAAAvz8CK4VCoVCeZPnmwGqyV3mL0svzlX/htCqCjqhy027VvPcj3fhTG1j/hR78bJaaZx1Txd6jqjAZKze33tS/7qetp+fpP3SpIFG7NqzSiy99rp+9M10vD5+nFwZ8od8OXq2h66O1M8Uk/pp2lZbn6MCuYH06epn6j16k/kPG6q/enKMfTjEhLK1R1TUp2r51n/qNPaudCc2quZarsP0heu/Tg1p16JhWr1yh5380Wr8YOF9vTF6rQeO+0BsDPtf/+w/z9MGsXVp6YIf6DFmrz7ZkKLJOqm5qU1V6hCZN2aSXJ17Q4cw6lVQkmHb26j17m/JVE7bb76qg4przvdOrNrCabdm/24TkT49q8dFiZV3vUEpWhnavXKtPhk7V8yO3aNBSs+y5cC1aslqvDdmlJeealNQiNTSV6dKZEA3+YJk+mndJx6uk4pbbqs48pXkzVuuFgUFaFbpfYxfu08AZF3XcG1hTdTgkRO+O2K9lu0K1fOM2vTVkn5adrVHKdamxrVHZSeH6rN9svWnC+9qMNl2xD5Uy+833QAAA/H4IrBQKhUJ5kuUbA2tZp9IrmpSWG66Kqe/p1n/8C939T3+lO3/2r3Tvn5tI90//RF/9H/9J9/7DX+ruX/9Gtz/br8pLNbpa16H0ALo1OCAC684Na/TSq1P0mw/n6Z2xS9Rn3GYNXH5Z+01YLW5pU1pKovZu3KRhoxbq5aHL9e6YJfrgs5n62buL9OL4s9qbUqvC8ivavGGX3h5zSpujqlRYc1Uhe/abIHdAq3cd1DJz8vDcG3P0+rDF6j9hhd79bJkJt+s1YOJhrTlwQutCQ/TOmGNafLhQqS13lVdZp+y0M5oxK0gfTLuko5m1yi+K0fKlO/XOuNPanWB2Zn2H82RfG1jtg4+KKjMUGrxb7727RTN2ZSuu7a7SsnMVsnGrJowep5+8M0N/3X+XVoQc0tz1JkxPPK8DKfXKbL6r4qIcnTseovfHHNakHdlKbrqp3NpWlRTFa/3szXr31ZWabdoevMSE2lnROmnGN9PeElySrrDQUPU3gXX5zgNatn2/+o49pW3RlbracFv5zY1Kyo/V4iFfaIgNyAltiiszgZWf1QGA7xSBlUKhUCi9LV9++aU6Ozv11Vdfuaf4L556Dx48cE/pKt8cWE3wLG9Wem6MilYvUNPrb6jt13+hO//6f5L+yF5h/WPpX/65bv/oFbV+NF6tSy6oNL5BGTX2ycEEVldgdd8SvHnjTvUZEabVESVKrL2h9JIW19NvKzpVUp6jyNDteveteXp/7kXtL/3K7JA2FadF6IsvNun1z89qT2KNisrjtXH1dr057KQ2XqpTaXO2Du8zoXBkiFYFH9Kiddv11tADWne+SkmN95RfZX8y5qYZgE6Vl6bp0P696jv8oOYezFNiowmsFSawppzWtJk79L43sEZr6fxtess+JTi5Udmtt53gl1FqAqsJrflNVTpz0gTOfjM1YHak1qd3KqvOhNH6TlWWJmlPULDeGbZPa/Ye0Jx1+9RvfKT2JtYp3ayvuCxf5yNCNGDIZo1ccUXnar9SYWOHKnLOa+nM9Xrt3U1aErJHw+bs1gdTLupESYfy2x+oqihZh/bs0lvD92nxThPMtwWbwBqhoLg65bZLlfb7wOmRmjzIjN/wA1qf2qYrFQRWAPiuEVgpFAqF0tvS0GAyU1SUCgoKnFDqr9y/f1+ZmZm6ePGirl275p7aVXr/0KVrSjeZJyPjiopWDNS1//a/64ETWP+Z9O/66NrMkyo0gc/mmUAKqh4BEFjjtGnDThMCT2hTVI2yr3+porpOFZiOZVd2qrgkUxGHd+ntD7dqzMZ0xZl9VVzbqqzIXRrz2Xz9zATWoORaFVcmasvijXrt7d2aZ4Jvan2mDuzep3dHHtSKk+e0acsaffDWXI3ZVaQTZVJZw00V1d9WoVFZlq7DwXv0zichmhOSpyvewBqhqTO2672pJrBmmcBaEqMV09fq9ff2afmlCl1uuul8F9TzszZZtZ1KS0pU8KI5enHIWr234arOl3eaIHtHNRWp2r/bdevu2n0msK7Zo77jIrTnSq3SnX5UKSb2qMb3H6+3Pw3R0oT7SipuUWZEkEZPW6nfzDqlYBOGZ49drz7Dj2mHGd+U5rvKjT2ltfPn68cf7dTs3Ye1Yts+vTPmhDZHVSqt5UuVFOYpNixIfT5ep7fmx+hkkTkIq8y+8OwHAMB3gsBKoVAolN4WG0RnzpypNWvWqKioyD21q9grr9nZ2Vq8eLHmzZun4uJi95yu0rvAavJX2U2ldDQrKyZIdT/9c9350z92X2E1/uTf6P5Px6plW67JNDeUUtehqyX+2nl6nnpgLc6N0brVW/Ti4FCtOFWqlMZOZ7oTAk3Kz6tqVGxMjOZNXqD3PpmpvpPWaeCkFRo+aZZ+/u4C/cK52lmvvOYGhe/Zr1H9Rul3Q7/QwGXrNWjKBj0/IETLwjMVdeW01s6ardc+XKzffbJWAyesUP+JG/T+nAhtPnpaQft26tWP9mnGvhwlNN1TfkWtspNPaPzEjXpj3FmFZjUqp65ahzdt19A+w/TbEQvUb2OMNl1qVGpJm3IqTBAsNwG2pEGJsVFasXCF3h02R2+OX633J6zWR6On6MVPluh3089qz8njWrhkq14dcUJB8TVKN+E5p7ZN6XmZOrZllYYPnaVfD1qrvqNWqG/faXpl4j5Nulih2Ow8nVy3RcM/mqoXxq1Qn4lrNWLKXL01bK7+9r2dWrA7TOu2bdDvXpuulz5eov7T1mnA8MXqP3CZ+i47p2XxdUox/cyyvz3r2Q8AgO8EgZVCoVAovS11dXUKCwvThAkTtGLFim6B1N7+a8PqwoULNWXKFEVERKi5udk9t6v0KrA6z9qxP1uTr7xdM9T27/9MX/3RX+rOX/1K11/6z7r3H/6F9G9f0a0x51SQ2az0+k6l+2vnKXqKgdXeRms6UJCpg4dOa8qKGAXHViu19oYz3ROoMqvvmiBXpcjgzZowfop+/f50vfjxXA1YuFufLIrQrPVXdCrTdLDpS6Ulpyl47QINGj5Vb0zeoCFLjmrs4kvaF12rvMY6XYmL1KxJi/X6e9P0wqDpen7wfD3/WagWH4zWobPnNWPVRW2NLFVS7S3llDcoK+OK1m89pZkbk3U6r1WZDfeVEh+n7Utn6d1PpuvlLyK07HyjUkralWsDa2mrMipNaLXbGntGG5Yu0suDZuq5D2fqtx9M06uTdmvi4QJdSEnT/uDTmrb2io6mNyi95rrZ5hsm9F5TQWGa9mzdpg8HmFDa3wTXD7ZpwvZ0RZo+ZdSZfl25pKB1y/TGRzP1KzMWfaev19AVpzR+SZQOnzqljRtX6/nfjdNP3zbLf2zW/d5ivTEqTGsvVepKyy2zDwirAPA4EFgpFAqF8m3KvXv3dOTIESe0rjN/NwoLC3Xjxg3n6uvy5cs1efJknT592l374dK7wGoyStl1pRWVK/tkqKrHT1PL++tUsyxUxUeWqW7m57o2bJ1qt6Yr3wTBq9U3CKw9O5BR2qzUwkZdyWtSSrH9iZju853/FTCv6YV1SsiqVHR6pS5drVJsTr3ic5uUlN+sNHvZ2gbgkhal5tfocmalYjJrTB8alGDqpBTZEwkb1JqUmF2tGKcN05ZpJzrTBNl8EzqLzDzTh+Qi2wf3vdslzUo28xK7rcP0N69acRmmjawGXSk09U1dbwg0y2aY7cwqMevNNeuy6zHrs+uKya536tvv6KYWmHbzTFslnm02y5lls8pbzbw6XTbLXXKWs/0zB49p07abacfLbGOsu92YrFpdzm8149CgvMyLWrtqq14bekDLjufoYmG92dZqxWY2KNn0P6PCtOHpJwDgO0VgpVAoFMq3LXfu3NGJEyc0ceJEbdq0ScePH9fq1audsHrhwgXdvXvXXfPh8m2+w3rVZo7CBmXm1irTZJiMgmaTa+qVmVejrOw6ZZq8k+HknR7LBYCnHljTS+0f+A7TkRvKLjdBsec9006gM0Gu6pby6+6ouOGO67untTdVUGuXM+3agbX1yk1bNfb7oKZO3S0V1HSaOqZde/WzxATCig7l1d1WkdOGq53iuk7lVt5Qlpln+5BjQ51ty/5grr3qWW0fzuS6fdmuI6PCTKu941qHWX9uhaufD/1PhH2wkemLs44G9zrrbiq/yvWbrZ5tzrLh2Heby8y86psqtPXNcsUNZhmzfuc7p7ZeuVm/t13Tj1qznaY/RXXtKsuL1uoV2/TaiJPafrlBBZ1fqdS2UW+20btdPusCAHxnCKwUCoVC+ceUtrY2RUZGOqG1X79+mj59ui5duqSOjg53Df/lWwVWm20qO5VWf1epjbeVZrJUepV5rTOfG24pzeSNdCfv9Fzu6XvqgRXfAef26lblFOTqaHislu9K1fHUOqWbA89eUeWqKgA8fgRWCoVCofxjy82bN53vtC5atMi5DfhRTw72Ld8usP7hIrA+U9qUacY4y15Ntf9D4rcOAOBxILBSKBQK5fcp9vbfW7duOd9t7U0hsBJY/wC1OydMOZXm1fM9XADAE0FgpVAoFMqTLARWAisAAL1GYKVQKBTKkywEVgIrAAC9RmClUCgUypMsBFYCKwAAvUZgpVAoFMqTLARWAisAAL1GYKVQKBTKkywEVgIrAAC9RmClUCgUypMsBFYCKwAAveYJrDuCw7RxwwZdb293TigoFAqFQnkc5dzZSAIrgRUAgN7pusIapjWrV6m6slK3b98CAOCxOHE8TEuWryKwElgBAPhmNrDmmMC699BJzZg+VRvXr9POoB0AADwW876Y5QTWy5kVJrDe9vu36VlAYAUA4DuQYf7GZVXc0Nm4DG3bFaJ1m3dq3ZZdAAB898zfmPVbdyr0xDkl59cru7LD79+mZwGBFQCAxyC9pBUAgMfG9femrdvfnmcRgRUAgO9Qpvlbl13V4Xyf1fUKAMDj0Kmsyhvmb8+zHVoJrAAAAACAgERgBQAAAAAEJAIrAAAAACAgEVgBAAAAAAGJwAoAAAAACEgEVgAAvkOZ5deVU9UJAMDjVX1TWfb3V8t4SjCBFQCAXrK/jZdW1KyUwiajEQCAxyK1qMn8zWnx+7foWUJgBQDgO5Bh/sZlVdxQZEyaNm3frdXrt2r1hu0AADwG27Rmw1aFhJ1Wcn69su2VVj9/m54FBNanIL28Q7m1d1TadM+4q6KaG8opb/Vb9/fTqvSydmVU3lRh/R2VNd9TScNtFVSZk6oyM8/vMt+d9DKzXdWdKqi9oezyNl0t8V8PAJ4FmRWuW4H3hJ7QjOlTtX3LJgXv2wsAwGOwRwvnz9HiZSt1ObPCZIvbfv82PQsCJLCaMFN2XdlVHcqr6VSeCTl51SbU2WVM+/6X+UPUpgwjp7ReCRklCo/J0YmYXEWm1epyYZsJkGa+CZhZlTeU6x0Hw7zPrXKFvgy/7T6KK5hmFlbrYlKBjkdn6eTlIp3PalJSsQmyj21sXffRZ5Q0KCGrRtFX65RY1PLM318P4PvNBtZsE1iDgsO0ds0a1dfW6v79+wAAPBbhJ49ryfLVir1aZrLDLb9/m54FARNYXbdSmT/2pl62fXW0K/NZCqzlHcoubVbhlQtas2SpfvzmGP3o7UnqvzJGWxJvKc2E9hy7zc44mIDqGQv3a5YNrL0eDxMOK26qsLBUSREHNGrcbP31iyP03NDlGhNSquM5d5RXYU6wHsf4ll837bYoLydRW7cf1ZgF0TqQWKu0ug5lmvnfLnQDwB8GT2DdYQLrhvXr1d7WZv9cUigUCoXyWMq5s5FaumINgfXxBlZ7VbFDBTVNyshK1KY1OzVi3CoNnLBag6dt1ee7krUvxdQra1N2ue9yf4jalV17TWl5GTq8dLWGfzxPL0zYqqHzdmtBaIYOZdxSZnmrcvOzdPhgmKbO3Kihk9dp8JS1+vDzzRq9zIxjSpMSa+4o17T39aHPXoltV05Dk+IvntWG8XP19ogVennyNo1fdURrzlbrXP5NZ0wfy1XW8hvKKjPBPPOcFs7fpJeGHtWWS5VKa+wksAJ4ZnmvsO4/qvXr1qmpsdE5oaBQKBQK5XGU0xHhBNbHG1jt1cI2ZVa1KC09SaFbN+mjj2bpF29N1/P9P9evPhynH44J1eQDlSbUtju3COfU3FRhwx0VNdw2biq/6roJQPZ2YnsLbYepYz+btkuuOcvYxzzn1dgrlS75tR3OziyoM8z0LKdum7LMCUZ+vW3ztopN+4W2XoUNc+bko9qu0zWvqMG1XPYjQp5dZ2alaavO1r1j2rqlwjrTb+f7m50qbKxTcnqkJvdfqMHjTmlflVTYLlXWmb5U2O+xNign7bTmTZ6lv/vpp/px3yl6btAMPff2RP1u4FJ9vDZBO5OalVJpr0jb7Xb1r8Db99vu/tkrnDdU2lqkY/t366OXl2nCzlyduy5VtdxVkRnLPN+xrL+lfDN2WWZ/ZJiwmVt9Q3m1N81Y3Tb9v6m8KrMNpn/2YLHjZ7ev0H4v1V0/x9QrMn2w67ftFZr3+RUtKsyK0rJlQeozJlw7YquU1kBgBfDsIrBSKBQK5UmWbx1YnefJtCu9+o7Smh4otelLpZrckx7gFwafYmA14c6ErvzGQh3evVuj316sMRsStCu9RVeyc3X2yjlNWX1OC7fnKd2EyryaNqXm1+lyRqVirlbpUka9EgtbTWAybZU0Kzm/UUkFzUqzbZs+ZZSaIFzUpMS8JqWY15SiFiXmNyk5r0bxmdWKy25Uig3NJvylFzboSkaV2dmm3auVis02bRfZMNbirDPOTHet0yybb9ZhH2Rkw5p3WywTvp2+NJn+V5u2Kk39WsXlNJk+2WBuwl5Jvs4d26tBbyzSO+NPaEduk2JLTFvm4MmoMKGwrE7Zqac1Y+YmvTnqqDZHFep8bp2upF7R/qAd6v/ORo1Zn6STdZ26asYzx/avwI6Ju39XTf/M9qaZEJlpAndeXry2L1unV19cpdHbkxRmQmeKGcvs8mazXaZvzjJ2u2qVUNCidLNNzlia90l5DUrKNeOUaeaZsU0utuNn5uWZz1mu8UsqblV6sXnNqVaM6YOrrRpdzrMPkGpWQXa0lpvA+jaBFcD3AIGVQqFQKE+y9D6w2gtdhs1i5SY/FdQqM7NSWZlVyjTZIcPkg3Q7z9bxu/zT9ZQD6zUVNGdrz4YgDfrtRs07WaXEL6XG63dUWm9WnliuMwkNyqloVUFhqoI2bNEHH07VCx/M0W8G7NTUvbmKrmtUWmaCVm04rS92pOuCDZrVN1RYlKsT4ec1c8UF7Q2P0s6T8Zq6OEKrli/V8NHLNWhhrA6YwJV1vVoRB0M1cfBMvfrBdP36gynqNydMyy82m8CWqeCtW9T/w+n63Yez9PyHyzVyXYxC8jqUaq+Ieq+02gB7Q8VVFYo+e1yTxs7Xa/2n6Ffvr9T7U89qd3qjMm82mnlHNX3gOP39D4foz1/4TD/+eIlenhauNWfLlVx3W3nl9cpJjdSMOTvVf3qMThR2qKRDaug04TLqhEa/bILnwmgdarhrdki7SkuuKnjHDg0cOFMvfjhTz/Vfqk9WXNT+gnal1RTp6NYNGvjCUP3lj4fpr/tM0k9GbNcna0y7V2K0edMWvdd/ml4w2/XbQav12fYUnSgywTQtUau3xmjW4mAtWbhA74/coVm7I7XlfLymmbFcuXy1Ph+/SP1nntfWlFpdvnJBG5cu0mtDZpt9Mku/6b9QA+ZFaHtSvdJNYF69PEjvEFgBfA8QWCkUCoXyJMu3Cazp5Z3mXPym0iuLVbBplupfeUntL/fTtYXnVJJoso0JhWkmr/lf/ul6qrcE2yuseY11Cj8Qpol9J+v98av1YVCsVl1oVG7tA7Xc+FKVbTeUlp2mwxtX6GMTin41aI36frpMb789Xa9MO6zZMbm6FBOmcWO3qO+UCybkmXbrO1VWeEV7duzSa4P2aGnQfi1ctUa/enmW3h2zRAMm7tLELSk6kl9mtiNE86cu1FsfrFK/USZgfrbEhNLjWnHaBOlNR7Vg9kYNnbNNI2Zt1qcTl2jgjGBNCC5QZE6rOTExQdVuR4VRXaOY04e0eOJM/e6DpXplxBq9O2C2Xv1wqfrvSdXBsjolX4rQ4jHT9fMXxumHfWfrrfGbNGCRCX4XK5VSe0u55XXuwLrLBNZYnSy+qbLbUmtzsaKP71PftzZo+MpEnbtmxqS4UKd2HtG8mZv0ienf8NlbNGriUg2evlfjg3N0KiffjOtOjXh3nP72xUn69ZBFete0O2LpES1bskcz5m3V0C+2a+TMjWa7lmrAnGOaeyhVp88e1KiRC/TL12dp4NT1GjTliNaFHtPyHRv1/Guz9eYnCzRw0jaNXharvel1upycoN3bdmjkF9s0dNY2jRk9Tx+a7fpgd6bZ/9HatGqn+hJYAXwPEFgpFAqF8iRLrwJrWauuljcoq6BG2Xm1JmskquzTn6vjj0yk+6N/qq9e2ara0Fpl5VUqu7haGSXNzi+X+G3rKXmKgdUEF/sTLjW3lXg5QdsWTNZb74/Ufx2wRu8sPa+giCyFp9brSmWFoqMO6fP3xuudsUe0IumBUgvrlXZiqz6ZvEa/+yJCB04e1uSZezRw9iWF28Ba16nSwmQF7w5WvxEHtHLvYS1bNlfPvzFLH23N1aHc+yppaFFSaqyWT5imISbAzou6rrjiDuWZE478hgpdjDqhz99eqo/GHdAyE4pDL6bqxLF9GjV2pV74OEybL1crteGmskrNCUpli7LLk7V+7jz1fXO+RgeX60TxVypMilLQqgX66WcHNP5QpYqrSxR/4bA+HrNbI1ck6oIZjwzne7hmPMrtLcH1yjaBdY4JyW8MC9bSsGQdvFyg0ydPa/OazXp1YpimHSlRxrU6xSdFaur7yzRw+F4tispWSPRVnToZogmTV+o3gw9r9YVKc+Be1d6g3Xpn+GEtPV6i7I5qnYsI05jXl+rjqUe08nK+Dl9I0rEju/XxqPV6a9R+bQ3bq1GjJuo3AzZremSbYkpuqao0RXvXL9HLr07Q24sua+fVu8o0fbdPLs6ralZKVrHCozJ16OxVhYfs1bQvVukHU8K17uhJbVq/W30/I7ACePYRWCkUCoXyJMs3B9brJmPYAJqmokM7VD9jqeqnLlDjy3+jjv/VRLo//pf68gcj1TZ0hernr1HdgWgVZNQqvfKGn7aenqcaWB1lN5RR1KDEjHxFxGbp1InTWrN4kZ57f6r+YtQhzQ2LU8Tx/Ro8dJs+W5+qqHqpqOG6yrLOaN7kdXq9/xYtDw3WJ3P3a8icGJ3yDax79+vdESFatSdUi9Zt01vDD2ptVK1SWqSq2jLFnTuiYSM2avjSOJ2quK3chrsqqr+nyroyXYrYrUFvjNFf/3ykfjTAdavw8++N0n/96ef6Yb+9Wna5SvFN9km7Hcq1D0vKOKcvZm1Qn5FHFZTcooxWqaYyR5EHtuutt9bp49Vpim6oVHzccY0Yt09j1qQpzj78yYTeXPsAJRtYbTvpZ7V4xhz96GfD9INXP9M/vD1Wf/PmXP1ufJiWny/VpYqbKq4q0+XzIRreb5z+x49H6B8+mKZffThVvzX9+6ufm2lv7ta885XKbMrWwb371O/T41p1ukalN6p08XiQ+r80Sn/9y0/Nds3Qcx9M1nP9RunPfzJNzw3aqmVH9+vjaVs1aOYFHSm4rZymO6opTdLuLVv15pBdmnOoSPGN91VgH8pU0abCokwd3rtTAz+crufemWSM1P/3ymT9xeB9WnHI9HnjXhNYTymIwArgGUdgpVAoFMqTLN8YWMs7lV7RpLTs46oY/5Zu/59/pvv/17/T/f/tT/Xgj02k+yd/rK/+xb/Vl//63+v+f/6J7g7bp6qLtcqotw9iCpyrrE89sKab5G+fMmuaUXnrA9VVVCvp0inNXr1Wv3p7g0ZP26PNh4LVd/wJzdmXr7TmW2aHtKio4LJWTtmkd99YpS9C9mjA/AP6eG6cTpvAmmUCa1lxqg4EH1R/E1hX7zmgBZv2q+/nZ7XvSo0yWu6quDhHUeHBev/TAxqzIUuJ9e3Kqjbh2QTH4uJcnT22R+8PWa43Rm7W1PUHNG31AU1deVDTVp7SiuA0Hc9uVLJ9KrENrKV1ykk+pRlz96jftFidyG1SbtNtlVYV6MLREA1+abk+WnxZx+vKFX0xTMO+7gprmgnis5brt31XaNiCXZq1bJF++/oM/aDfYe3IvqaCu2acigsUcypYg4ct1yufbNKktSGavsbdvxXhWrYnXUfNTswpS9HeHbv19ogjWnrCHMi1eQoPDdI7A5arz5itmrrhoKauCtGUlaGavvq8Nh+8pMNnD+uTqSEascT0z5581d1QaUG8dm7fo7dHndCaiFKlN5twbw7+q+lJ2rlmg4aNWqr3Z+7X2GWhmrdqgz6asFq//WifVu0P1UITWN8hsAL4HiCwUigUCqW35e7du2ppadG9e/fcU/yX27dvO/Xu37/vntJVvjGwll03WpSen678kBBVTZ6shkE/V+d/+Jf6yrkl+E+kf/UTdbw9TrVLt6hmb6oKUptMPjGZzYSzh9p7Sp7qd1gzSluVXViqc4n5ComrV3LpTVWY4Fp/q1PlFQmaP3Kbxo7dpuXH9qrfkDX6dFmCIuqksuZOVaaf0IzJa/TSR0Fac3CPhk4IUv+pMYqouafiTqk277J2bdykV+yttXtDtcgTnOKqldZ4R0UV5YqJOq4xI1fokwUXdLjkvvKbv1JFy1eqbSrXpTP7NXDAKo1YkaKoFslsv8xqZTKXalrtz7aY/he3mp1pf/LFhMOcKM2bsVJvDt6rdZdNEG+TGiszFbFvg17qt0lDN2QqvrZMsReP6JNHBlb7lGDXQ5fenx6ncDOulS0lOrF1t0YNXquP11xWULYJ1NdqlBBtguXgFRoy/7JO10tVtn833f1ru69CE75L8uz3eH0Ca3OhToaZIP7+Wo3dnKXYdqnOLNNkt8su31Kn9NhjGjkuSB8vMO2WmL7V2sCaoJ3bdqmPaWf5iWIlN5n2yyuUeumAPvlwrl4ccVx7y8x+Mf+OOqpSdHD7Nr0+3Iy7vbJNYAXwPUFgpVAoFEpvS0VFhfbv36/4+HjduXPHPbV7uXnzpi5cuKCDBw+qvt6c8PcovXvoUpvJK51KbX+g9KIkFc19V23/xRNY/4n0b15U+8QwFWddV5oJBqk2rDo/fxM4nl5gdX4rtFWFeYnavu+QPpwTqS3HcxSXXafYlAydDg/VyAn7NG5jlA5eOq6Zwyaq74jdmhbeqNOX83R6x2oNmLRer6+N0bEzJzX/s7XqO3y/VsaX6VR2taKPBWvGpDn64aBdWrAvVAvX79Zbo05qe4wJrA03lVfbpuSrydoya7qGjtugcQfLFZZQqUupZYorLNLp6JOaMWSC+o3cpekn6xSZWq24q+W6kFZlBqRRKU5YtdtiTlAq7QOYMhS0bJEG9Jmhweuvakd8k2LCj2nFvHn62TTT/1P1qqguVvz5UA3+dKeGLbui8/4Ca0qEps3cpncmnFdoVotyWu+qNCNZYebk56W3V6jv0mgdqqjWhZRzWjhisgnyWzTxSLVOplTrcoanf83OT/aUFF7R7m079cbHoVp8rERZnY26aALz1AHj1XfsQX1xukHnUu3P+ZjlMuzP0xQqzswfNnaHBs+NU4Q3sMYraEuQXh96SEuPF5nAek8FFVVKTTil8RM26f1Jx7U7qVJRuWbfhYdo9pQv9PcPjTuBFcCzjcBKoVAolN6WrKwszZo1S/NMVkhMTHzoCqq9snrp0iXNmDFDCxYsUElJiXtOV+ldYLVXSzuU2lapnPAVavovf6b7/+Sf66s/+Z/14E//mfQn/1z68w90fWGisvPblFrf4aeNp+spXmE1Yc3+DmtVqcJCgzX0/bF6vs/n+tWH0/WrdybquX5z9O7SKG1MMQNXVKToo0EaN3KGfvzqFP28z2T95LfT9fqsE1qV1aykwgqdD9quscPG6u/fn6Ifvz/NhKQZemHYCv1i4F6tCT6g+et26Y2RJ7zBKavSKKlW0rkQzZk0Qz99Zap+9s4U/aLvePWZfVDzIwp07NB+TfvMrNPM+2W/KXqu/yT9eMBqvbc4RqFXG5wwl2mfEmy2K7OyyQS4c9qyeKFe7jNVP35rin760iT96t01+vRojo5X3FFlWaEunz2ggSOCNHRJwiMD69QZW9RnXKT2pzcqveGOimvadDXhsjbM+kIvvjVRL845oTWXCxV56pDmfD5TPzP9+3lf27+J+vEHy9Vn3iXtS25QSWWKCawmaA45oEVhRUq9dkuZBXk6d2CbRg+brn+w2/WuXc6M2eCtGrYyQgdOHdDwiTs1+ItY7xXWsoLL2rF5h141wXfJMRNYG28px/Q7I79UwevX65NBI/RL08bPv3bcKwmsAJ5pBFYKhUKh9La0t7frypUrTiC1wTU5Odl7e7ANqzExMZoyZYoTaK9evaqOjg5nnm/pVWAtM/mr/IZSK/KVt3uuWv/yv+nL/+U5dT73oZqH/VS3/ub/lv6fd9UxPkqFmc1Kr+9Uur92nqKn+x3WsjZlmTCWmJSq/Zu2a8KsdRo0Zb0GT9qk4V8c0ZpzZYquum9C7XUVleXr8IEjmjRltYZM3qjB005o5fFCxTXeVpZ9AFB6sg7u261Pp6/XoMnrNW7dYc3afVkrdibrVEyKDp65otX7MhRhgmZ6tQlb9sqoCcwFZcU6EXZC02es19DJZv2TVuuztee0Nb5NacWlOnkkTJOnrdNQ068h5nXAzBBN2pGqk1lNynDasdtiL7XfMMGyTgkJMVq+eKtGTFytDyfu1fg1CTqa06yrTbeUW2oCckqKNu+L17bwIsWb7c+oMKHVGQszPmVmoHMyFXwkTmsPZOtcrlmu0oba2ybMNik99qxWrzTBfXW09qa1KrOqQpHHXX3/xN2/gTP2adyWZIWZsJtbWaYzF+K1eneKDsdXK7XajFNVm/KLc81YHdKEKev08VS73AYNmH1Es/dcUXhCsnYcvqItxwoUV2LWbdafV1So0+fitWp3qo4k1Jh2TJCt6FSGOfiTYqK0Y+N6DZ9mx31DL8adwArg2URgpVAoFMq3LbGxsU5gnTt3rnOltaGhQdHR0U6QnT9/vhNkH1V6F1htTmlXWlG1sqIuqGz1NtXMClPZvkvKjz6giq0bVLfwsMoP5Sk3v0VXTe4isPrpRIaZnlV5QzlVhufVyDZhLtO57dY10N46vvO9bZj2fZc177PNOnNM4HKugJr52fa9054P025mxcPtZtkwadfZY57dDjvfb+gyy7hOWLrXzzLBuCvYtjv9yrLfge25vOWs09XXDN++etq22+iMi6t/Pfvu6Z9n3LzbbZ/05dyPbpbrMVa+y7m22b737Z9PO/ag9073jHuHt51ejzsAPGMIrBQKhUL5xxT7PdbZs2dr4cKF2rBhgxNebVjNyMhw1/BfendLsIc5hzfn5enm71S6CYDpVUaleV91U2nV5r3JAf6Xe/oCJ7CaQcut7lSeGTArt9oGRxuaWl31bJAyYairjitYekOVvUJpglOuZ3l3CLNscPKEwIeDk5lmQ5+zTrtsp3Kdvpp+2UDorNM1zzXftvuoAOYKgzk+25JbZdqyIc8dFj2BtXsg9OEJjGYd3QKr07bZZtu206Zrmm/fPf3L9favK2ja0NxtHY/aLjNWrv51ja398eBuwdfTjmG3156gudqwfevtuAPAs4XASqFQKJR/TLFPDE5LS3Ouqvbp08f5zmp+fr7fJwP7lm8fWG8o3WQUV2A17yvsK4G1V4EVAIA/dARWCoVCofxji/3+akJCgkJDQ5Wamuqe+vXl2wXWP1wEVgAAvgMEVgqFQqE8yUJgJbACANBrBFYKhUKhPMlCYCWwAgDQawRWCoVCoTzJQmAlsAIA0GsEVgqFQqE8yUJgJbACANBrBFYKhUKhPMlCYCWwAgDQawRWCoVCoTzJQmAlsAIA0GsEVgqFQqE8yUJgJbACANBrnsC6IzhMGzdsUMeNG84JBYVCoVAoj6OcP3eGwEpgBQCgd7qusIZp2ZLFyryaruqqSgAAHov9wXu0eOlKAiuBFQCAb2YDa44JrCFHIzVz5gwtNaF11apVAAA8FrNmTtfKNRsUn1VJYCWwAgDw9TLK2pRp/s5dSi3SofAo7TscYZwGAOAxiND+sEidjk5RaqEJaxXX/f5tehYQWAEA+A5lVdxw/qfbyqm+CQDAY+D6O2O/imL/w/RqaetDf4+eFQRWAAC+Q54rrQAAPF7XlWFe/f0tepYQWAEAAAAAAYnACgAAAAAISARWAAAAAEBAIrACAAAAAAISgRUAAAAAEJAIrAAAAACAgERgBQAAAAAEJAIrAAAAACAgEVgBAAAAAAGJwAoAAAAACEgEVgAAAABAQCKwAgAAAAACEoEVAAAAABCQCKwAAAAAgIBEYAUAAAAABCQCKwAAAAAgIBFYAQAAAAABicAKAAAAAAhIBFYAAAAAQEAisAIAAAAAAhKBFQAAAAAQkAisAAAAAICARGAFAAAAAAQkAisAAAAAICARWAEAAAAAAYnACgAAAAAISARWAAAAAEBAIrACAAAAAAISgRUAAAAAEJAIrAAAAACAgERgBQAAAAAEJAIrAAAAACAgEVgBAAAAAAGJwAoAAAAACEgEVgAAAABAQCKwAgAAAAACEoEVAAAAABCQCKwAAAAAgIBEYAUAAAAABCQCKwAAAAAgIBFYAQAAAAABicAKAAAAAAhIBFYAAAAAQEAisAIAAAAAAhKBFQAAAAAQkAisAAAAAICARGAFAAAAAAQkAisAAAAAICARWAEAAAAAAYnACgAAAAAISARWAAAAAEBAIrACAAAAAAISgRUAAAAAEJAIrAAAAACAgERgBQAAAAAEJAIrAAAAACAgEVgBAAAAAAGJwAoAAAAACEgEVgAAAABAQCKwAgAAAAACEoEVAAAAABCQCKwAAAAAgIBEYAUAAAAABCQCKwAAAAAgIBFYAQAAAAABicAKAAAAAAhIBFYAAAAAQEAisAIAAAAAAhKBFQAAAAAQkAisAAAAAICARGAFAAAAAAQkAisAAAAAICARWAEAAAAAAYnACgAAAAAISARWAAAAAEBAIrACAAAAAAISgRUAAAAAEJAIrAAAAACAgERgBQAAAAAEJAIrAAAAACAgEVgBAAAAAAGJwAoAAAAACEgEVgAAAABAQCKwAgAAAAACEoEVAAAAABCQCKwAAAAAgIBEYAUAAAAABCQCKwAAAAAgIBFYAQAAAAABicAKAAAAAAhIBFYAAAAAQEAisAIAAAAAAhKBFQAAAAAQkAisAAAAAICARGAFAAAAAAQkAisAAAAAICARWAEAAAAAAYnACgAAAAAISARWAAAAAEBAIrACAAAAAAISgRUAAAAAEJAIrAAAAACAgERgBQAAAAAEJAIrAAAAACAgEVgBAAAAAAGJwAoAAAAACEgEVgAAAABAQCKwAgAAAAACEoEVAAAAABCQCKwAAAAAgIBEYAUAAAAABCQCKwAAAAAgIBFYAQAAAAABicAKAAAAAAhIBFYAAAAAQEAisAIAAAAAAhKBFQAAAAAQkAisAAAAAICARGAFAAAAAAQkAisAAAAAICARWAEAAAAAAYnACgAAAAAISARWAAAAAEBAIrACAAAAAAISgRUAAAAAEJAIrAAAAACAgERgBQAAAAAEJAIrAAAAACAgEVgBAAAAAAGJwAoAAAAACEgEVgAAAABAQCKwAgAAAAACEoEVAAAAABCQCKwAAAAAgIBEYAUAAAAABCQCKwAAAAAgIBFYAQAAAAABicAKAAAAAAhIBFYAAAAAQEAisAIAAAAAAhKBFQAAAAAQkAisAAAAAICARGAFAAAAAAQkAisAAAAAICARWAEAAAAAAYnACgAAAAAISARWAAAAAEBAIrACAAAAAAISgRUAAAAAEJAIrAAAAACAgERgBQAAAAAEJAIrAAAAACAgEVgBAAAAAAGJwAoAAAAACEgEVgAAAABAQCKwAgAAAAACEoEVAAAAABCQCKwAAAAAgIBEYAUAAAAABCQCKwAAAAAgIBFYAQAAAAABicAKAAAAAAhIBFYAAAAAQEAisAIAAAAAAhKBFQAAAAAQkAisAAAAAICARGAFAAAAAAQkAisAAAAAICARWAEAAAAAAYnACgAAAAAISARWAAAAAEBAIrACAADgmZRhzlMzy9uMdmVV4Gmy+8Dui4yyNr/76kmw6+ZYCAx2P/T2WCCwAgAA4Jljw6p9TS1qUXJ+kxLzGvAUJeU3KqWwWeklrU88tHqOhbRicywUcCw8ffZYaHKOhZ77yh8CKwAAAJ45NqQkFzQqOq1Cp+MKdfJSrk7gqTkVW6ALJnTYwOLZPz332eNiA7INq3GZNTqbUKzwS3l++4gnIzwmX2evlCg+u7ZX/4FBYAUAAMAzx4bVi6nliowv0sWUMsVnVishp1YJ5iQZT5AZ8/jsGl1Kq1BkQpHOJ5e6Q2vvrq79/tqUWtSs2Ixqnbli1p9YosvmvadvD/UXj497vGOvVumcCaxnrxQrLqvG+c8E//vOhcAKAACAZ4a9WmOv2kSnVeqMCUiXzQlxXvV1VbfeU237A1W3fakat+p28+rDmddjWm/Ydr4Nz/q9/fDR63m2HT9863vZ6d9QrzdtO3rU8y7fY76zTme6HfP7Kqy7aYJqvRNS7JVWGyIzn8CtwfZ4sMeAPRbs1fbMslZVtNx197freHjU+PhO6w3PWPeWdyzdPOv19KtX82w7j+C7jMNOc3tkHaM3bffsg3fZHvOd9TnTXeNd1nRb6SakRqWU6Yw5Hq7k1H/tsUBgBQAAwDPDPszFXrE5HV/kBKPCuk5VmbBafe2eqhz3nc8O+94zzZnu+ezhnt6N7/ye9R41vQe7nkcyyz2STz1/7Vq+dbx1zbI9++O3fTffej11a7fHe6PSLG+55tlX89lON0qb7ig2o0rhsQXOd1ofdzawYdU+6CkqtVwRlwtNKLrm9K3bseDtp33vM93ZLs9nz3x/fOv0rPd189w84+eXWeaRfOr5a9fDt55T1yzbsz9+23fzbaunbu32eO98fvhYcKaZzxXm1f6nxanYfMVcrfraY4HACgAAgGeGJ7CGmxPhqJRy19W0ti/NifNd532F57Wbe26+73vqWdcfTx1/dXvO89Xbel/DbpffbTP8zvNdZ089636TruXK3bracc2rarvvXHWztwfb7zHa24Lt02L97cPviiuwmpxiws6puHwTfG6o9vqD7seC3zHzHQPPtvnqWfdRfOv1rNtznkdv6nwDz3b52za/83zX2ZNvvd7qWq77seB+b4Jr7Y0HJhu2Od8tj06v/NpjgcAKAACAZ0b3wFqm8uY7qr5237yak2ej68TZ8H72nJzf8QYu50TbznfzTvPHU++heZ52XW17+K7D1aZvvZ5tdOm+nG3Hhwkglr/lvAHFZ3u6r7MH33qG73r8tm+WKbfMWHffJvdrs+tKm701OD7r6QVWe2u4Dc1OH50x8NHts+27a1u929NtPHym9+RT76F5Trsej/9Y8Hs8eI4Fy9tP33X24Ls9bp71PNS226OPBc/7e6q5/qVzxZvACgAAgO8VT2C1txrawFpmTpztLYnOCbTDnDR7Trztq/dE2n52nYh7T8jNZw9P4PWd7+XMf/gE3jdUeAKKv5Dibdtpvyff9ZjP3no+0x2e+l+j2/I9+MzzDSfOOD1iPT230TV+PvPssm42pNj9YL9P+jQDq/0+pbev7u1zttHpYxfPPvVst99jweo2NnZeF9/2nDZ9PPVjwXrkegz3PN/jwDtWftbz0DZ6xsEz3S7nw+4HAisAAAC+d7oH1lLnAS/26p4Nrr5hwn7umuY6iX5UHWd6k6lj+E7zznPzN88f33X05K++h+8J/0PLNrmU+eGdZ+p1tdVdmbP9Ht3r9maety2fdfm2b0OL3Q+Xs6qfTmA1x0Ne1XXn1uSefbO6T+vaTt/53mnuY8Hf8dDVRvfpj+Jbvyd/9T16cyw4+6GHrnmm7zZMuq/C9mzj0fv76+a5pnvbca/LzvNt27JX2zNKW51jgcAKAACA7w3fwGofulTaeNs5Ie86ab/d/b05efY/745KzWcP70m5U6cn10m4b31nGZ+2ess+mKi7rva8YcOsywkCfjy8vP96/rbhUfO6t9d9+zzTy81nVzgx0y1nvquOZYNVpdkPlzOfXmDNNXnEPvinq1++fTSv3n3s+my3y9P/btvtqefU9bTh4X8ZZzmfeb3RNeYeXW15jwXD37IePdvomn5PFde+UkPnV6prv+fsP//b0XO6Xb+nve7b5pnedSxYPZd3tWuvtmeUtnCFFQAAAN8vPQNriQms9rbErhPqrhNuz8m352Tad56LZ1qXrhNvzzJ3zYm/1HBTaup4oJpWVz273pKm+6ps+0r1Znp1q+mDmeZaX3fd19mTe93OskbzfVW3P1D9jS9NADTLm+nd23LX68bV1jfXc3l4G/17uB1/7brWZwOr/Y+DpxlYbR6pNIH14b7aPnqmed53fXbxTOvOd5xc3GPs7H+zXOsD1XZILbclk90cLeZYaXBCopn/0P77Oo/qQ9fyPT1c3067p8qmNuUVlyviUqnOXW1WgTmWSt0B3Lf+w9vXfX5XvZ597Pm5q55FYAUAAMD3kjewxtnAWqrihlvOrY/OCbMNfTZIuHk+95zune9zou1vmlXW1KmiqhZdLahXcul15dTddYKIvcpU2tih/Ko2XS1pV07NTRWb6U4bPXja9qernl32lkobzDpMQs4ou66CevPZhAzf/pQ03XIzfTMhubzVBIRu7bj5LOMsZ6Z519ljni/bBw/XZzf3e0/7PduyV9vsfxzEPaXAah/ClW3WZ39Oxfb1oX724Jnune/ejm7b3GO6w05zprseNFTV2KasolrFZVQqNrPKMK95TUquNMdDg70S6bOM4dt2T4+q91AffHQdDy5OiGx+oPrGMiVGH9Pw8Yc0fWeO0k2ALrtmj133cr1pu8ex4O2XM8/1+VF9tf9xcNUEVm4JBgAAwPdKt8CaZAJr/U0nLDkn1ia8WsXmfbE9gTaBwXe6M89M8/A9IbfB1/JOc07876qusUJxkQc14bNF6rfwgjYk2fXdU821O6qrK9DpU5GatDRae+JqlXfd/hapDbldJ+4O73q6pnnX40yz67pvwkSHqsrTtGtvhKauSdKZgjaV3Lhv2vPUddV3mGXKTDhznhZrwq4TWn22s6v+42HHuNs0s012P8SZ0PZ0AmueCaxtToh0+uMeB9exYN/7jLln3jccC92OBw/3siWtUl1zu6pTIrVkwWL9tO9k/erdyXru/Un60dg9GnagVCkVN9XQ5rni211Xm77T7X9OuNh53r4bvst6dVves+xdcyx9pYb6YsWfO6D+w/Zq3KYMpbab6c5/bnjW+93peSzYz/a4TC9pJrACAADg++VxB1ZPSLBXS0tNMG2qz9WZ0PV66eXR+osXFmnU9hRdqHmgkvYHaqlNVsjOHXrlo4NaGl6mnE6p3N4ifEsyWVcmO6nZvK814bbMtF1mbx81nxs7v1RNi12v6UeTed8hmdmqv9ah5qpLWrZ8l/qMi9LJkttqNOflda0msLj7VWLD6bVbKqiqV+ShRIWdKVKKWbbujlneBJISs/Ju2+Fd7rvl26bz3oSmZzGwepb3tmOvhDfdV3lVpRJOHdHCiYvVZ+wK9Zm/Q6OMsfO36Z1PN2nw3BM6UtCiQrv/7S3DZv84zDHR1PlA1S02ZN5TZfuXqjefbR1727nJec7txXUmYJY33VSR04d7qrLz7Tx3O4037quq2bTR8kA15rgzQ+9Mt7ck1103r/UlSrhwWIPHhGjy9iyltplxMcdH13H03fFtzzNOBFYAAAB8Lz0qsDonyubkviukuAKrb/h4KKS4p7mmu3lOuu1VLhNYG+pyFBl+UO8O26iBfado1MKdmhhzQ4n1D3SzKV2hwfvU99OjWn26WsV3TCgwQeb8xVSFnDDn0ieTdeBCoWLLOlR0/ZbyissUFZWp8ORaXak2YcWk2eqmZl1Jytdpc14dV1Kr5NhjmjF5iX47eIdmB8fqQFqNYoo7nTBgr7QWN9wxodgE1soKHd54WEsXBWtFeKp2XapSQtltVZvwUttmHzx0yx123Hy20Xe7HWa+P95lfaeZ+p5x8izvtGmv8pn9EJvxdAOrvS3Zs72ebXP19eFjwTXta44Fy728R4m9gtn2pXLjz2jL1En69XtbNeZwqZJNWKw2gbOu4yulnk/V0X2RCitqVGJljS7Hp2h/RKL2nDLC03QsoUqptTdN31qVmm+yVXK14pPTdepigjlmrijkQrbO57crq+G+KtruqOJau1JT83QyPEH7jL2mrbDEWiXVmGO0rl5xlzN04HiC9pjjbV9krs4XdJh/EyZQXziij0xgnWQCa0qPwNp9HHqw29lDtzHwMHU9Y+RZ1vPZ7of0YgIrAAAAvme6AmuBzieVqMgEVnt7bFGDvRplvzdog5rrvQ1sdn7XPPNab6d52M9uPnUcNvCadutrs3Tq+GF98OkBrVy6UbO3BOm3a9J0NOu6OluydCg4WP1GHdfqs9Uqaa9WXMRBjflkun7xymj93Svj9dyg9ZpyvEQx16/rSuxRzf5oml4dd0wLY2+ak/o2VeZFacnUlRo46aBWxGRq29pVGvDKB/qPP/1If/XaOP3mi9NaeqldhSZUVbW4+m1Da0njDRVWZevQtg0a9OZU/eyjYM0+XqgrtR3KqnX1vbzZFcScMfHZ1mLbhg9nnPzqPia+bdj59j8LvO3Y0GJCa+xVd2DNb3zigTWr4przfWZP353w5N0O8+rtu3ub7LZ7uee553t4jweH2cZmE8baW3R2f4jmjFikCfuzFVbxQFXX76uq3T6E675Ka6+rwGSjXPOaFXNSq7+Yrp/3/Vx/9+bn+vuXJum1iaFanthg+p+uvbtPavCYvZo5c7o+HDlaf/3CJ/pRv+kasC1bB/IfqKajXUXlCdr0xVK99fyn+uErn+oHb47V28svKSi1VUmxp7Vg8lz92hxvf//a5/pp38UasTtLkaWVirsQpqGfmcC6zQTWayawtpjA6hkT97Z695+Prv3vq/uYdB8vu5xty92e+Wz/EymtyBVYLxFYAQAA8H3RM7AW1nU64bLQnCxb9gS6sL7Tzbyv6/pc5Og60e6q1326w155a7yjuposnTxyUP1HH9X6o+k6FHFI42au0LwTpUosLdKx4BD1/8zMi07TqcgLWj5hl77YcVarTl7WnpBjWrN+hz6aF6nl5yqUWpik0PUr9Pqba/XRukydKy/S8S3rNWHiZk04mKfwvBrFnTmoSaPn6BfvrdaYdce17kKRInJMODVBoKzR3bc6E0TNNleZMHM1M0eH95zS2s17NWHqUr3x2XYN3FmgS+V31H7zS5XZgOEs48N3Ow3P2PXUfbzMOPmMpXe+u00bYmyfvFdYn2BgtU+LtoE1s/yac5W3q/8unv46/Xdvw7c6Fjyc24E7VFmToR2LNmvAe1u1PKFOybekKjPfGWejxIRme2t4uRmTgpx8nT0foy1hsdpyOEZ7N27RpPnb9MbWNJOlLmrXkvn6xQtT1XdOqObsP6dNG7dp9tSZ+vnYME2IqFFSQaoObVygTydt0bDF57R8Z4TW7D2t3fHp2n8yTqsn7dLcdSe0LPyydoae1patQRo+P1zz917SychD+nh8qCabwJrcekfF9j8wPNvi3m/dts/NM36+/B4L7rHsmm+427Q/d0NgBQAAwPfO7xNYvdO8HjXdMIHVBpS6ahNYD+3Xe6PCtPi0OWkuuKywjXP14YJobTydorDDoRrweZg2n4nUxjUb9dYv52jwkiOaFxatbXtDNHfuAv3wN0v13uIUxXXeVmlllnbM3qBho5dp6LrdGjJxpxYfzNbFFhN6Wm+queKyVq8J0YdTYxRefFN1X0rV9knFtk/Otlimv05gMO05P7lzXw11+ToaHKrPZ2zR8EUHNWVVlHZFlSuh8ZYK7NViGyQ8TBu+Htp2NyeYeD+71+kzXr7BJWACa1P3wOrbX09fu03z8kzrOd1H412VNFxXVcFFrZq7Wa8PPqotyXXKNuPvGV+nnjkmC+tvq7jpnuqvtys7O1shIee1fnektqxdrcHjFumvxp3Q5vDT2rFqsV55f6UmHW9S/A3py7YKZUbu05vDd2rk1osKPROmz4fN1dgtyTrRIJndqbY70vU7JTq9d5ve/+V09Zu8RzOPRmtzcJhWrl6uX7+yRH1GB2lTeKgGTj6sqSawJpnAWmRCpA3Vto+POhZcY/Ywv8eCs72u6Z7AaqfZVwIrAAAAvpd8A+s5E1gLajucWxILbEhws+99P/ec7m9+z3n2J2VsaK2tynQF1k8Pa+GxChW1Vyv+Yrg+m7BH8zcf0OqQo+o/NkzbDh3V2g0r9ctfj9I/vD5OP31/kn7eb5x+/MZE/fDVNRq9LU3n2qXiZnNCfyFEMz55T//u5yP0P2ZfVlCaWU/bl85PpFQVXtKKFXv03qTzOpTZouIOG4bslSs//aw1bTXZW1Hvqbq5Vak5Fbp4IVr7Nm/W2wM3asj6JEU03VKevbLmXt4f3za/aV7Pep7PNujYW0FjrlY+ncAak2c+tzqh2V//PJ97Tvc3v+c8L3srtg2spXFau2KH+o48oZ3JTcrteOAdX1uv0PTBPmG6tKZZOakXtXnFSr3WZ6J+8sbn+sU7I/XfX5uhvx2yXxuPH9PyLcF6b3ykglObVXDTBNL6MiVdPKaPPwvRrLWh2nE4RH1Hm3on7EO9vnQeBGZ/Vqm+JkNHd67Ty78box+8OMZ9vI3XT9+eoL99aaWGzw/RxohQfTgpVFO2Ziqx5bYK7feaPX38Gp7tfdR033k963k+2ycXpxY1EVgBAADw/dItsCaWmJPdG05YKqg1J8uOjq/x6Pn5PdWZNk1oranKcAfWQ1p4pEQ5t+4rr6BYJzev0ZI1K9V/4VG9OfKIgg4f0tJNO/XGsGAtsU/vTczTsUtZRq7C40oVk9uszKYvTaC6qfrUcC0dN1j/9ifD9Fcz4xWUbgLItfuqbLim8oKLWrZ0l94df04HMppVeP2+im0IMH3q2U8nPDTcVXlDm4pyL2vzspV6ddASvT4/QquP5zq/B5re0Kl8e+XLvbyLZ6w8fOd1l1/n4v3s5ny2091sSLH7wYaTpxZYS1uc7+y6+vr12/V12+47xt3UmcDX2KGK1mztXrtZg/uu15yTFbrYJNet14ZzBbLxntmXzcpNv6DFkxfr3eFbNPlQpvbF5Cvq4kktWbFdb444oI2hh7VoywG9N/G8DqY3qaDjK9XWlijBBNahYw9ojgms282x986YEyawliu30xwLTfecByfVVabowM4gvfHRTk3eGqPD3uMtTyfjqpSUcVVnzhzSIPsd1q0ZJrCacWmyV0Xtdvhur2ccfPnO79LbY8F+tvshpbCRwAoAAIDvF9/AejaxWHnV111XjWpMMHPc6MGcVLvZOgXOq4tvvbxaN/ve+WzaMqG1utIVWN8deUgLjhTp6g2ZwGACYsZRrV0wUz9+YaF+PPiANl04ozXr1qvf+5u1LMasx5xPf2ncMW4bTe0PVNVmf6O1XKfWh2jOpEV6f8lqvfpxkObszlNci1Rh2q3OP6dF0zfq9SGntCevQ6WmkapGGyJ8+2cCqAlHFZ0Nir14TkunbNCwyVs1en6QPl9/WvMiKpVcd0dNN+6asTHbZ5bz3VbfMXGNi/8xcZbzhJSHlnXNKzDtO8x42dtDL12teCqB9aQJrFdLWpxbXl197c2x0HU8+NbzHgve8fYw29h4UyVt1xR3zOzDgRP0/PDDmhNlwul9qcHsbHvLbl5queLDT+rY2SC9PWS1+kyK0blO6bo5Dr6qSVTIxvX63YgQrQo9oqWbzbE1/oyCUxqVe/0r1dQUK/5CmIaYoDlje5QOnj6sMcMW6vOtaTrVKJnNc3725lpngY7v26T3+izTpBCzv81xYo+1u+7j7U5nlRLPHdLgUcGasCVDV1puKr/JbK/ZV3n2mHBvq++YdI3Nw2Pi71jI8y7jM89pu8MJ7ymFDQRWAAAAfL/0DKy5JrDaq3v2pNeeQNtg4Xui3XVS/bBuYaRnQPEG1nQdDdmtNz7arzkHC5TWdl/F1+yDdcp0astK9f3Vp/pP7+3V/JgMRUTs1bSPp+jtSUc0cVucth06p40Ho7XhWLZOZdYptTRDYaG7NXLQTk3dGK/jOZe1YdJCDRi6Q+OOVelSdbvKq7O1c9EGvffWF/pkwwktjynXmdzrpj/2KqbtmwkFJhjmVTco4colbV62SgMHLdIr48O15lKDim5+parW2yo24cE3ePUcE1/dx8Wnrl3OfRXNtZyd7qrnvHfmueoFQmBNN4HVXuXt2kZPn138b6+Lp67DPWYO3+mGc+W9wRwD+dk6vm2d3n9nll6bvEvTwmK04fBFbTkUpRlzTdhcuEe7oyM1bUmQPv58mxYdvKhNRy9px+Z1GvrpHP3tgD1aERqqBevMsTXqlPYkNSj3hlRbU6jLZw7o/U92aezWdEVlXtbuJTM0ePwWDVkTp3UhUc469idn6MDJo5o/crL6jtmlERvjtOngeW0Kvai1YVk6FZ+s0xH79d7wPRqzPl0JzWZcfP7jo+eY+Ooal656/o4FT11nXDzznLYJrAAAAPie8hdY7a2x3UKFm+ekuou/z4/gDqyVlVkKDztkAsMxLTtWoqutd8yJv/0ZnU5VpFwwgXGtfjX2uBZHVau4qUjnjgTpow8n6e9/O0o/fP1T/e0bk/WDj4I193SqCVVhmvnJdA2aeVbr0++puKZWBWeCNfqT5XphYqR2l7Sb0HJPyRHHtWDUR/p5n0/1D9NOaVFUq7JNf0obbJ87VdRszrtLirVveaiWrQrXnuw6RZtls6vMvEb7YB3Tdz9hq4vvGHzDODxUx/8y+aZ/dj9Epz/dwGpvye3WLzfXZ0/fv3l7Hs3WtVda7yovv0iRO9dq6Cdj9N9e/Ux/99po/cPro/QXA9bp3a3ZuphXr9gjOzRh2FD9/euj9TevfaYXR8/VqxN2qu/YY9pz4oRW7gjV4OnndTC1UbntD1RdU6qEi8c1ctIhTQ0y29RQr4zEE5o1frZ+8vwo/eDlT/V3b3ymt5ZFaWtinWLPHdbUMdP1I/uTN2bdf/fGOP33D7Zr3OYzOnT2mEZOP6qZQVlKbDKB1Ryz9urow9vTU886Hj3nP6p+h/MfB8kFBFYAAAB8z/QMrDkmsNqwlFt9w5HnuO7wTOvGnFB7uOr2UGOWdZj3JvQVVjcoNbtU4TFlis5uVo69cmkCS37NTZVX1yslq1CHYssVld+uklbTbkmJwiPitC3kgjYevKANoTHaeNxeYa3WldwChZ9M0LEr1bpc4/q9zvKyMkWev6p9Z4oUU3FDOU33VFBcqZhLl7T7yEVtOVOoiJx25Zj+OLdzVtvbLq8rp6JRMdEFikqqVvq1L1XWdk+lzpVX93Z+HZ8xcDhj5WE/ezxiDL3MfDNWzlia0GH3Q3SaK7AmPYXAmmYCa4EJSp7+ufbp73EsWN7jwc09Pb/+rvMfA4X5eYo4G6tNIVHadDBKm40NEZkKvdqmrOqbKszL05lzZj/a6QeiFHQmVSExJTphjqfEnDIT5szxcrlSiSXXlGf6XlTdosyCMp2OLdG5tCblNXSYY7BWUdHJ2nXAHFP2uAqN0u5os2zZTRVUVivq4hXtDDnvrHtjaLTWh13VkXgTfPPKFGHy2vn0RmXWusOl6fujxsDLGa+eY/aIMfRyL+Nuwz4tOCnfBNZoAisAAAC+Rx4KrFUmRJiT8Zwqc6LssCfO7c7Jc445kbaB1vek2n72cOp69Dzxdsup7jQh6I7K7e9YmoDiqW/Xm2NOoItMwHRuwa3vUHaVCQQmyJRde6Dq61+puv0r1bQ/UE3bXef3L/Pr7qjUhMvyZrNcjQmhdn1mWtm1+04bRXadlabvdaa9VqmqXao26y0xQdVuU45nu+x2mn4VNZs+Nd1WgV3O9sfpr0vX9vjj2jZ/fNt4iLMOO6Zd7dg+OZ9tGDJBPjr1KQbW4mbnKq/TH8+xYAbRNXauY8Hq6nsXz351OPM97GdfrumusTDb3HDP7L+vVGv2t1Vj1LXdU0Wj66p/rjkeSs2+dB0LX6nS7P9K+zutZr86P33TeFvlLbdUWGvqmjxljzd7nJS13FapacNuR07tbZW0fimzStO+9cC0YcJtrTn27U8btZrj7Yadbtf/QLXt5hhssk/Ovu1tJ8/21+mzZ7s8em5fF9/xcbHj6H7/UHueZVzHh707ISmPwAoAAIDvGd/AeuZKkbJtwDPBINue7FsmoGQ7rruZk2zPybV3nkuOWdbDU7+rbhdnuvskvatdw1mfOVE3vPPsCbsTKA0nNLned7VjT+i76jvL27pmWlffPPVc020d23dX/93rsbxteeZ1cS3zCD7b7fCZ59vGQx4aJ888897pa4cuppY/+cCaYgNrrvMzKvZ7lE5/3MeCbx8929G97+5pPuPh2UannR5857l49pMPM93uF2d+pd33dpprnme/ekOf+72t6+qvZ7rrs6t/nnqeddhjxtZ91DwX17yu49Mvn+32cs/zHZ+HmHqe48FV3y7n+mzZW+oTTWA9Hp1jAmvVQ8eC3XfZZpr9N2S/g05gBQAAwDOhZ2DNrGhzTtazzMmzw/dk2tHmnec6wfZh5nVxz/8WsqpM227d2/0avvWcul198G6DU7drend23pORZdbnHbdu7z399OmP2RYbjqKeYmBNMYHVXun1jKE9FrofD64x9G6HZx84dX7/MfZ7PPip5+W7fqduVx+82+DU7Zr+MDv/8fMcC57+dL339NNO8/SnzflPpCt59Y8MrFZ6iQtXWAEAAPDM6BZYE9yBteqGMs1JsuWcPJtp3dlp7uk+oeLheob7xLsbf/Us37a+tr5n/YZvvZ586/Vso0cw6M7fPM80f/O+xkPr9c811oa7vzZwPdXAatbpBNZqE1hNv73HgtVzmzzj67v/Hqrj5tlO7/Z+Dd/2HlnfNV4O33Z78q3Xs42v3a/+5vlO6znvazy0Xv+8x4Ll3q5ugfVqV2DNMNnSXlmNyazV3shMbT+Rqqj0aiewzt0eSWAFAADAH7aHAmu5DazXXYHVObE2J8w9T7R92Doe/uZ7T7x9PLK+bz1/89181+n000f3NmzfPVzLen2boOHw1P+Wyz203u68fffMc/fXCaxmPzzVwFpoA+sNp9+u/WX7Zl/9890v/uY73Nvt3X4z7ZHL+Nb1N9/wXd73OLC6L+8aV7/b8K33q2/9b7HcQ+t9WLdjwbL9Na9OYM31H1jtg8NOXynTzE1n9NnyYzoUlaeL6ZWaH3SWwAoAAIA/bJ7AeuZKsU7HFzlX1Vwny+ZE2TlZ9j0Z99yy6PlseEOAp65L91sfe3LXe+gEvmv57uy83vK3vNW93tf1z3N7qP92/OnZhr86/vjUNePnuSXVMy+9tEXnk0sVcbnAFVgfczZwBdY2RZuwEx6br/icWhOernn719VnV78fGsNvOBa61fXyqdur48FO7y1/y1vd631d/zzHQu+Ph+7Lu/ir15NPXe+x0LVshtkPsZnVzsOw7KvnWLCB1d4RcT61Uiv3x2lBUJTOJpfrcnaNFuw8q60EVgAAAPwhsyHFfu/NPnk04nKholLKTGhtVKbnRNqcPHuvWjlhxP3eOZl2TetiP7t4TsB9p30T37Bi1+/RdTLv1q2uq48e/tq1PCf+Xnbao/ip49sfh53mZT938V2u5zq71/dt39btYn9S5tLVSp129km5UouanX3lbx9+l+w64rPrFBlfZMJMsa7k1ZmwZPtn++/eBtM/3+309t27Xa5t8/DdLt/p38TTvmsdpk1nHLvacnSr5+mji782rW77xLLTHsVPPe8x4MtOd9j33T2qre7LuOvYzz22MaO81QmgZxKKdeZKiRJzG5z/aPLdZ0kFzbqUUW3q1am4rlNxWTWat+MMgRUAAADPhpTCZkWnlpuAlO88fOlccqlzde98Uql5X+Ji3ye53xvnvdM87Gc37zK9d96HXb+HXU833eq6+ujhr13L2RYf3ul+eNfrZ5qXneZlP3fxXa7beh+q79t+F7uNNixGmH1xwSxnf3/T3z57XFKLWhRrws+ZhEJFGp5tdo2xu5/u/jvcfXaNf9e2+c738p3+DTxj41qnuw+edXl0q+fpo4u/Nq1u+8S26zuvB896Xdv/8DQvO91h33fnbc/U8/LW9yzju84unu08He+6Zd/+Z4K9Cm4frGSvrLr+w6nVBN12lTTcUlXrPdW23VdUWoXJlTx0CQAAAM8Ie+KbXNCoaHOiezq+0Ln1EE+PvQ04KqXU+SkTu28sf/vtcbDrsreJx2Wa0HqlyLk92F8f8WScisvXucRiJeTUOOH0ck69zqVUKPpqtVKKWpzMmFzYrIvp1c6twalm30UmlemLbQRWAAAAPCPsd+Hsqw0q9mprckETniK7D+y+6LmfniQbjuytyPbhS/76iCfDjr/dD/Yqqr1VfM/pDM3eclbrQxMUl12vorpbTlBdHhyrudvP60RcsQm05c4twQRWAAAAPFPs1TX7/Th7Hoqnx+4D60leWe3JcyxwPDxdnn1gn9hsr55uOpKoUUvCtGjnRV3JbVBly12dTizTzM1nNHb5MR2JzldMZjUPXQIAAAAAPBk2tKaVtOpEXJGCTqbpWEyhciraVNpwy/kd1uAzmdoTkeE8UTo+u0bzg3joEgAAAADgMbBXuO1twNn2KcI+V9ozytqVX3NDJfU3VVzX4cy30+1rUd1N1V67p0sZVZq7PZLACgAAAAB4PGxo7XlbuM2IuVU3HJ68aOvY/JhXbYJswy3nO6w8JRgAAAAA8J3yXFl13eabpd0RV3U2udyZZuefvFzs3BIceiFXCbmNTnCNza7T/rPZ2nkqXRevVuuM85TgSAIrAAAAAOC7YwNrXnWHwuNLNH1jpMavPKGQc9nO7b52/qawJI1eetR56FJcVp3Kmu44D12atfmsxq04rkMX8xSVXqn5QWcfX2DddSpV+aaTuZWuy7wAAAAAgGdfdsV15dd06lxKpZbvi9WCoChFJJSoquWuM29PZKbJjOe0OSxZV0taVd16T1Fp1Vq5P07zd0Q5v9GakFP7eJ8SvDsiTYW1nU5oza68DgAAAAD4HrB32trbfFOLWnUpo1aXs+uUV3VdFU13zPTrupxjAmdGtVILm1XacNO4rbTiVsVk1Dh1yxpu6UpunfM7rFu+68B6PL5MMzad0hfbIpzQaq+02tuDAQAAAADPviDrZIqTBYPPZuhQVJZCz2dq7+k0Z/4e83rQfLbTQ85edertOpWi4DNXzbRshUXnaMPhOE1cc1TbTqZ/d4E1NqdFEUlVWhkS54RWe6UVAAAAAPA9tM0649Jtunua7/QedWdujtC8HWd14EK+YnKav5vAahuxC9vQeiK+TMcvAwAAAAC+l9yZ0H5t1MPf9IenlTrvw69U6Fxabbewav2jA6tlG7NXWu3twQAAAAAA/OO0KDqr6aHM+XsFVgAAAAAAHhcCKwAAAAAgIBFYAQAAAAABqVeBNaGwTWdT65zQCgAAAADAk3Aurc55dlJGtZ/AuufoeTOjw7jjhFZ7pRUAAAAAgCchoahNyaU3lN/8pc4nF3QF1jNRl7X94GklFjUq04RWe6UVAAAAAIAnKa2iXVk1nToVm6HlG3a7A+vFBC3ZsNcJrfZKq709GAAAAACAJ8vm0fPauOeYlqzb5QqshaWVJrTGKzIqzrnaCgAAAADA03Lu0hVdvJziCqwUCoVCoVAoFAqFQqEEVpH+f225qCMqj7tYAAAAAElFTkSuQmCC;strokeColor=#97abc5;gradientColor=#d4e3f1;" vertex="1" parent="1">
          <mxGeometry x="1" y="679" width="940" height="700" as="geometry" />
        </mxCell>
        <object label="" fieldType="Yes/No Checkbox" id="V5l7xqbYga4Lv0CrcqgJ-12">
          <mxCell style="fontFamily=Tahoma;group;recursiveResize=0;fillColor=#bdd0e8;movable=1;resizable=1;rotatable=1;deletable=1;editable=1;locked=0;connectable=1;" fieldType="Pick List" vertex="1" connectable="0" parent="1">
            <mxGeometry y="440.0000000000001" width="960" height="40" as="geometry" />
          </mxCell>
        </object>
        <mxCell id="V5l7xqbYga4Lv0CrcqgJ-13" value="" style="rounded=0;whiteSpace=wrap;html=1;strokeColor=none;fillColor=#cfddee;movable=0;resizable=0;rotatable=0;deletable=0;editable=0;locked=1;connectable=0;" vertex="1" parent="V5l7xqbYga4Lv0CrcqgJ-12">
          <mxGeometry x="10" width="940" height="40" as="geometry" />
        </mxCell>
        <object label="&lt;font face=&quot;Tahoma&quot; style=&quot;font-size: 14px;&quot;&gt;Blank Selection&lt;/font&gt;&lt;div&gt;&lt;font face=&quot;Tahoma&quot; style=&quot;font-size: 14px;&quot;&gt;&lt;br&gt;&lt;/font&gt;&lt;/div&gt;" tooltip="&lt;b&gt;fieldType:&lt;/b&gt; %fieldType%" placeholders="1" id="V5l7xqbYga4Lv0CrcqgJ-14">
          <mxCell style="fontFamily=Helvetica;text;html=1;strokeColor=none;fillColor=none;align=left;verticalAlign=top;whiteSpace=wrap;rounded=0;fontSize=16;fontColor=#485fab;editable=1;movable=0;resizable=0;rotatable=0;deletable=0;locked=0;connectable=1;" vertex="1" parent="V5l7xqbYga4Lv0CrcqgJ-12">
            <mxGeometry x="17" width="433" height="40" as="geometry" />
          </mxCell>
        </object>
        <mxCell id="V5l7xqbYga4Lv0CrcqgJ-18" value="" style="group;movable=0;resizable=0;rotatable=0;deletable=0;editable=0;locked=1;connectable=0;" vertex="1" connectable="0" parent="V5l7xqbYga4Lv0CrcqgJ-12">
          <mxGeometry x="466" y="6.499999999999886" width="411" height="27" as="geometry" />
        </mxCell>
        <mxCell id="V5l7xqbYga4Lv0CrcqgJ-16" value="" style="rounded=0;whiteSpace=wrap;html=1;fillColor=default;strokeColor=#87898b;strokeWidth=1;" vertex="1" parent="V5l7xqbYga4Lv0CrcqgJ-18">
          <mxGeometry width="411" height="27" as="geometry" />
        </mxCell>
        <object label="" tooltip="&lt;b&gt;fieldType:&lt;/b&gt; %fieldType%" placeholders="1" id="V5l7xqbYga4Lv0CrcqgJ-17">
          <mxCell style="fontFamily=Tahoma;html=1;verticalLabelPosition=bottom;labelBackgroundColor=#ffffff;verticalAlign=top;shadow=0;dashed=0;strokeWidth=2;shape=mxgraph.ios7.misc.down;strokeColor=#818181;aspect=fixed;container=0;movable=1;resizable=1;rotatable=1;deletable=1;editable=1;locked=0;connectable=1;" vertex="1" parent="V5l7xqbYga4Lv0CrcqgJ-18">
            <mxGeometry x="394" y="10.75" width="11" height="5.5" as="geometry">
              <mxRectangle x="540" y="1327.75" width="160" height="160" as="alternateBounds" />
            </mxGeometry>
          </mxCell>
        </object>
        <object label="" fieldType="Yes/No Checkbox" id="V5l7xqbYga4Lv0CrcqgJ-25">
          <mxCell style="fontFamily=Tahoma;group;recursiveResize=0;fillColor=#bdd0e8;movable=1;resizable=1;rotatable=1;deletable=1;editable=1;locked=0;connectable=1;" fieldType="Pick List" vertex="1" connectable="0" parent="1">
            <mxGeometry y="480.0000000000001" width="960" height="40" as="geometry" />
          </mxCell>
        </object>
        <mxCell id="V5l7xqbYga4Lv0CrcqgJ-26" value="" style="rounded=0;whiteSpace=wrap;html=1;strokeColor=none;fillColor=#cfddee;movable=0;resizable=0;rotatable=0;deletable=0;editable=0;locked=1;connectable=0;" vertex="1" parent="V5l7xqbYga4Lv0CrcqgJ-25">
          <mxGeometry x="10" width="940" height="40" as="geometry" />
        </mxCell>
        <object label="&lt;div&gt;&lt;font face=&quot;Tahoma&quot; style=&quot;font-size: 14px;&quot;&gt;Time of incident&lt;/font&gt;&lt;/div&gt;" tooltip="&lt;b&gt;fieldType:&lt;/b&gt; %fieldType%" placeholders="1" id="V5l7xqbYga4Lv0CrcqgJ-27">
          <mxCell style="fontFamily=Helvetica;text;html=1;strokeColor=none;fillColor=none;align=left;verticalAlign=top;whiteSpace=wrap;rounded=0;fontSize=16;fontColor=#485fab;editable=1;movable=1;resizable=1;rotatable=1;deletable=1;locked=0;connectable=1;" vertex="1" parent="V5l7xqbYga4Lv0CrcqgJ-25">
            <mxGeometry x="17" width="433" height="40" as="geometry" />
          </mxCell>
        </object>
        <mxCell id="V5l7xqbYga4Lv0CrcqgJ-41" value="" style="group;movable=0;resizable=0;rotatable=0;deletable=0;editable=0;locked=1;connectable=0;" vertex="1" connectable="0" parent="V5l7xqbYga4Lv0CrcqgJ-25">
          <mxGeometry x="466" y="6.999999999999886" width="184" height="26" as="geometry" />
        </mxCell>
        <mxCell id="V5l7xqbYga4Lv0CrcqgJ-42" value="" style="group" vertex="1" connectable="0" parent="V5l7xqbYga4Lv0CrcqgJ-41">
          <mxGeometry width="184" height="26" as="geometry" />
        </mxCell>
        <mxCell id="V5l7xqbYga4Lv0CrcqgJ-38" value="" style="group;fillColor=none;" vertex="1" connectable="0" parent="V5l7xqbYga4Lv0CrcqgJ-42">
          <mxGeometry width="184" height="26" as="geometry" />
        </mxCell>
        <mxCell id="V5l7xqbYga4Lv0CrcqgJ-33" value="" style="rounded=0;whiteSpace=wrap;html=1;fillColor=default;strokeColor=#96aac5;" vertex="1" parent="V5l7xqbYga4Lv0CrcqgJ-38">
          <mxGeometry width="160" height="26" as="geometry" />
        </mxCell>
        <mxCell id="V5l7xqbYga4Lv0CrcqgJ-35" value="" style="rounded=0;whiteSpace=wrap;html=1;fillColor=default;strokeColor=#97abc5;gradientColor=#d4e3f1;" vertex="1" parent="V5l7xqbYga4Lv0CrcqgJ-38">
          <mxGeometry x="160" width="22" height="26" as="geometry" />
        </mxCell>
        <mxCell id="V5l7xqbYga4Lv0CrcqgJ-40" value="" style="shape=image;verticalLabelPosition=bottom;labelBackgroundColor=default;verticalAlign=top;aspect=fixed;imageAspect=0;image=data:image/svg+xml,PHN2ZyB4bWxucz0iaHR0cDovL3d3dy53My5vcmcvMjAwMC9zdmciIGZpbGw9Im5vbmUiIHZpZXdCb3g9IjAgMCA0OCA0OCIgaGVpZ2h0PSI4MDBweCIgd2lkdGg9IjgwMHB4Ij4mI3hhOyYjeGE7PGcgc3Ryb2tlLXdpZHRoPSIwIiBpZD0iU1ZHUmVwb19iZ0NhcnJpZXIiLz4mI3hhOyYjeGE7PGcgc3Ryb2tlLWxpbmVqb2luPSJyb3VuZCIgc3Ryb2tlLWxpbmVjYXA9InJvdW5kIiBpZD0iU1ZHUmVwb190cmFjZXJDYXJyaWVyIi8+JiN4YTsmI3hhOzxnIGlkPSJTVkdSZXBvX2ljb25DYXJyaWVyIj4gPHJlY3QgZmlsbC1vcGFjaXR5PSIwLjAxIiBmaWxsPSJ3aGl0ZSIgaGVpZ2h0PSI0OCIgd2lkdGg9IjQ4Ii8+IDxwYXRoIHN0cm9rZS1saW5lam9pbj0icm91bmQiIHN0cm9rZS13aWR0aD0iNCIgc3Ryb2tlPSIjMDAwMDAwIiBmaWxsPSIjMDAwMDAwIiBkPSJNMzYgMTlMMjQgMzFMMTIgMTlIMzZaIi8+IDwvZz4mI3hhOyYjeGE7PC9zdmc+;" vertex="1" parent="V5l7xqbYga4Lv0CrcqgJ-42">
          <mxGeometry x="165" y="6" width="13" height="13" as="geometry" />
        </mxCell>
        <mxCell id="V5l7xqbYga4Lv0CrcqgJ-46" value="" style="group;fillColor=#cccccc;movable=0;resizable=0;rotatable=0;deletable=0;editable=0;locked=1;connectable=0;" vertex="1" connectable="0" parent="V5l7xqbYga4Lv0CrcqgJ-25">
          <mxGeometry x="659" y="6.999999999999886" width="87" height="27" as="geometry" />
        </mxCell>
        <mxCell id="V5l7xqbYga4Lv0CrcqgJ-43" value="&lt;font color=&quot;#78797d&quot; style=&quot;font-size: 15px;&quot; face=&quot;Tahoma&quot;&gt;GMT&lt;/font&gt;" style="rounded=0;whiteSpace=wrap;html=1;fillColor=none;strokeColor=#c3c4c5;align=left;" vertex="1" parent="V5l7xqbYga4Lv0CrcqgJ-46">
          <mxGeometry width="87" height="27" as="geometry" />
        </mxCell>
        <object label="" tooltip="&lt;b&gt;fieldType:&lt;/b&gt; %fieldType%" placeholders="1" id="V5l7xqbYga4Lv0CrcqgJ-44">
          <mxCell style="fontFamily=Tahoma;html=1;verticalLabelPosition=bottom;labelBackgroundColor=#ffffff;verticalAlign=top;shadow=0;dashed=0;strokeWidth=2;shape=mxgraph.ios7.misc.down;strokeColor=#b0b0b0;aspect=fixed;container=0;" vertex="1" parent="V5l7xqbYga4Lv0CrcqgJ-46">
            <mxGeometry x="70" y="10.25" width="11" height="5.5" as="geometry">
              <mxRectangle x="540" y="1327.75" width="160" height="160" as="alternateBounds" />
            </mxGeometry>
          </mxCell>
        </object>
      </root>
    </mxGraphModel>
  </diagram>
</mxfile>
